<svg id="Слой_1" xmlns="http://www.w3.org/2000/svg" viewBox="0 0 205.8 210.7">
  <style>
    .st0{fill:#915f44}.st1{fill:#574622}.st2{fill:#5b2a18}.st3{fill:#362115}.st4{fill:#71582a}.st5{fill:#2c2116}.st6{fill:#472816}.st7{fill:#a46545}.st9{fill:#f7ea6b}.st10{fill:#65572a}.st11{fill:#f2cf3e}.st12{fill:#634d26}.st13{fill:#fbf4a9}.st17{fill:#d0a43b}.st18{fill:#daa738}.st19{fill:#6e3020}.st20{fill:#3f2517}.st23{fill:#241813}.st29{fill:#935e30}.st30{fill:#fff}.st31{fill:#6e5d2d}.st32{fill:#2f5479}.st33{fill:#141d39}.st34{fill:#182242}.st35{fill:#3e6b98}.st36{fill:#2c3c68}.st37{fill:#2d4070}.st38{fill:#744b27}.st39{fill:#f1e9dd}.st40{fill:#6a572a}.st41{fill:#6d5228}.st42{fill:#2c4e6b}.st43{fill:#141c33}.st44{fill:#714725}.st45{fill:#cfdbe2}.st46{fill:#caced6}.st47{fill:#d0dee8}.st48{fill:#ced5e0}.st51{fill:#dec06d}.st73{fill:#583d1e}
  </style>
  <path class="st0" d="M167.3 92.3s18.4-25.4 12.8-45.5c-5.6-20.1-19.4-29.5-22.6-41.2-3.2-11.7-14.3-3.8-11.3 17.7 0 0-1.7-5.6-4.9-3-3.2 2.6.6 16 .6 16s-7.1-6.4-11.1-4.5c-3.9 1.9 7.5 10.2 7.5 10.2s-12.6-1.3-4.7 3.6c0 0-13.6.6-13.4 4.9.2 3 8.3 4.3 8.3 4.3s-12.8 7.7-12.2 28.6c.6 20.8 51 8.9 51 8.9z"/>
  <path class="st1" d="M167.3 92.3l-.2-.2s.2-.3.6-.8c2.6-3.9 13.2-20.5 13.2-36.3 0-2.8-.3-5.5-1.1-8.2-2.8-10-7.6-17.4-12.2-23.7-4.5-6.3-8.8-11.6-10.4-17.5-.5-1.8-1.2-3.1-1.9-4-.8-.8-1.6-1.2-2.5-1.2-1.5 0-3.3 1.3-4.6 4-1.3 2.7-2.3 6.7-2.3 11.8 0 2.1.2 4.4.5 6.9 0 .1-.1.3-.2.3s-.3 0-.3-.2v-.1c-.1-.3-.4-1.2-1-2-.3-.4-.6-.7-.9-1-.3-.3-.7-.4-1.1-.4-.4 0-.9.2-1.5.6-.4.3-.7.9-.9 1.7-.2.8-.3 1.7-.3 2.7 0 2.4.5 5.2.9 7.5.2 1.1.5 2.1.6 2.8.2.7.3 1.1.3 1.1 0 .1 0 .2-.1.3-.1.1-.2 0-.3 0l-.2-.2c-.5-.5-2-1.6-3.7-2.7-1.7-1-3.7-1.9-5.4-1.9-.6 0-1.1.1-1.5.3-.5.3-.7.5-.7 1 0 .6.5 1.5 1.2 2.5 1.2 1.4 2.9 3 4.4 4.2.7.6 1.4 1.1 1.9 1.5.5.4.8.6.8.6.1.1.1.2.1.3 0 .1-.2.2-.3.2 0 0-.4 0-1-.1-.6 0-1.4-.1-2.2-.1-1 0-2 .1-2.7.2-.4.1-.7.2-.9.3-.2.1-.3.2-.3.4s.1.5.5.9 1 .9 2 1.5c.1.1.1.2.1.3 0 .1-.1.2-.2.2 0 0-.8 0-2.1.2-1.9.2-4.7.6-7 1.3-1.2.4-2.2.8-2.9 1.3-.7.5-1.1 1.1-1.1 1.8v.1c0 .6.5 1.2 1.3 1.7 1.1.8 2.8 1.4 4.3 1.8.7.2 1.3.3 1.8.4.5.1.7.1.7.1.1 0 .2.1.2.2s0 .2-.1.3l-.1.1c-1.3.9-12 8.4-12 26.9v1.3c.1 4.8 2.9 7.8 7.2 9.6 4.3 1.8 10 2.5 15.9 2.5 6.7 0 13.6-.8 18.8-1.7 2.6-.4 4.8-.8 6.4-1.2 1.5-.3 2.4-.5 2.4-.5l.1.3-.2-.2.2.2.1.3S153.1 96 139.7 96c-5.9 0-11.7-.6-16.1-2.5-4.4-1.9-7.3-5.1-7.5-10.1v-1.3c0-20 12.3-27.5 12.4-27.5l.1.2v.3s-2-.3-4.1-1c-1-.4-2.1-.8-2.9-1.4-.8-.6-1.4-1.3-1.5-2.1v-.1c0-.6.2-1.1.6-1.6 1.4-1.6 4.6-2.4 7.5-2.9 2.9-.5 5.5-.6 5.5-.6v.3l-.1.2c-1-.6-1.6-1.1-2.1-1.5-.4-.4-.7-.8-.7-1.2 0-.3.2-.6.5-.8.4-.3 1-.4 1.7-.5.7-.1 1.4-.1 2.2-.1 1.7 0 3.2.2 3.2.2v.3l-.1.2s-2.1-1.5-4.2-3.4c-1-.9-2.1-2-2.9-3-.8-1-1.4-1.9-1.4-2.8 0-.6.3-1.1 1-1.4.5-.3 1.1-.4 1.8-.4 2.1 0 4.5 1.2 6.4 2.5 1.9 1.2 3.2 2.4 3.2 2.5l-.2.2-.2.1s-1.9-6.6-1.9-11.5c0-1 .1-2 .3-2.8.2-.8.5-1.5 1.1-1.9.6-.5 1.2-.8 1.8-.8.6 0 1.1.3 1.6.6 1.3 1.1 1.9 3.2 1.9 3.2l-.2.1h-.3c-.4-2.5-.5-4.9-.5-7 0-5.2.9-9.3 2.3-12 1.4-2.8 3.2-4.3 5.1-4.3 1 0 2 .5 2.8 1.4.8.9 1.5 2.3 2.1 4.2 1.6 5.8 5.8 11 10.3 17.3 4.5 6.3 9.4 13.7 12.2 23.8.8 2.7 1.1 5.5 1.1 8.3 0 18.3-13.9 37.4-13.9 37.4l-.1.1-.2-.6z"/>
  <path class="st2" d="M152.9.5c.9 0 1.7.4 2.5 1.2.8.8 1.4 2.2 1.9 4 .1.4.2.8.4 1.2.9 2.7 2.3 5.3 4.1 7.9-.5-.4-1-.9-1.5-1.3-1.7-1.4-3.6-2.5-5.5-2.5-.6 0-1.2.1-1.8.4-.9.5-1.5 1.3-2 2.4-.5 1.1-.9 2.4-1.1 3.7-.5 2.8-.6 5.9-.6 8.2v2.1c-.3-.6-.8-1.3-1.5-1.9-.5-.4-1-.6-1.6-.6-.5 0-1 .2-1.5.5-.6.4-1 1-1.2 1.8-.2.8-.3 1.7-.3 2.7 0 3 .8 6.6 1.2 7.8-.3-.1-.7-.2-1.1-.3-.9-.3-2-.5-2.8-.5-.3 0-.5 0-.8.1-.2.1-.4.3-.5.5v.2c0 .5.3 1 .7 1.5.4.5.9 1.1 1.4 1.7.6.6 1.1 1.2 1.5 1.5-.5 0-1.2 0-1.9.1-1.4.1-3 .2-3.9.5-.3.1-.5.2-.6.3-.1.1-.2.2-.2.3v.1c.1.4.4.6.8.7.4.2.8.2 1.2.3h.1c-1.7.5-4.5 1.4-6.7 2.3-1.1.5-2.1 1-2.6 1.5-.3.3-.6.6-.6 1v.3c.1.4.4.6.8.8.4.2.8.4 1.3.6 1 .3 2.3.5 3.6.7 1.4.2 2.8.3 3.7.3-2.9 1.3-11.2 5.4-17.5 12.5 3.1-6.3 7.2-9.4 8.3-10.1l.1-.1.1-.1c.1 0 .1-.1.1-.1v-.1c0-.1-.1-.2-.2-.2 0 0-.3 0-.7-.1-.5-.1-1.1-.2-1.8-.4-1.4-.4-3.1-1-4.3-1.8-.8-.5-1.2-1.1-1.3-1.7v-.1c0-.7.4-1.3 1.1-1.8.7-.5 1.6-.9 2.6-1.2.1 0 .2-.1.3-.1.3-.1.5-.1.8-.2 2.1-.6 4.6-.9 6.2-1 1.2-.1 2.1-.2 2.1-.2.1 0 .2-.1.2-.2v-.1c0-.1 0-.2-.1-.2-.9-.6-1.6-1.1-2-1.5-.4-.4-.5-.7-.5-.9 0-.1.1-.3.3-.4 0 0 .1 0 .1-.1.2-.1.4-.2.7-.3.7-.2 1.7-.2 2.7-.2.8 0 1.6 0 2.2.1.6 0 1 .1 1 .1.1 0 .2-.1.2-.2v-.1c0-.1 0-.2-.1-.2 0 0-.3-.2-.8-.6-.5-.4-1.1-.9-1.9-1.5-.1-.1-.3-.2-.4-.3-1.4-1.2-2.9-2.6-4-3.9-.8-1-1.3-1.9-1.2-2.5 0-.2 0-.3.1-.4.1-.2.3-.4.6-.6l.9-.3h.6c1.7 0 3.7.9 5.4 1.9 1.7 1 3.1 2.2 3.7 2.7.2.1.2.2.2.2s.1.1.2.1h.1c.1 0 .1-.1.1-.2v-.1c0-.1-.1-.5-.3-1.1-.1-.6-.3-1.3-.5-2.2 0-.2-.1-.4-.1-.6v-.1c-.5-2.2-.9-5-.9-7.3 0-1 .1-1.9.3-2.7.2-.8.5-1.3.9-1.7.6-.5 1.1-.6 1.5-.6.4 0 .8.1 1.1.4.3.3.6.6.9 1 .5.8.8 1.6 1 2v.1c0 .1.1.2.2.2h.1c.1 0 .2-.1.2-.2-.4-2.5-.5-4.8-.5-6.9 0-5.1.9-9.1 2.3-11.8 1.4-2.7 3.1-4.1 4.7-4.1z"/>
  <path class="st3" d="M128.8 54.8c0 .1-.1.1-.1.1l-.1.1.1-.1c.1 0 .1 0 .1-.1zm0 0zm0 0zm0 0zm0 0zm-4.5-7.5c-1 .3-1.9.7-2.6 1.2-.7.5-1.1 1.1-1.1 1.8 0-.7.4-1.3 1.1-1.8.7-.5 1.6-.9 2.6-1.2zm9.6-1.8s0 .1 0 0c0 .2-.1.3-.2.3 0 0-.8 0-2.1.2-1.7.2-4.1.5-6.2 1 2.1-.6 4.6-.9 6.2-1 1.2-.1 2.1-.2 2.1-.2.1 0 .2-.1.2-.3 0 .1 0 0 0 0zm-2.2-3c-.1 0-.1.1 0 0-.3.2-.3.3-.3.4 0 .2.1.5.5.9-.4-.4-.5-.7-.5-.9-.1-.1 0-.2.3-.4-.1.1-.1 0 0 0zm3.4-.5c-1 0-2 .1-2.7.2.8-.1 1.8-.2 2.7-.2zm3.5-.1c0 .1 0 .1 0 0-.1.2-.2.3-.3.3 0 0-.4 0-1-.1-.6 0-1.4-.1-2.2-.1.8 0 1.6 0 2.2.1.6 0 1 .1 1 .1.2 0 .3-.1.3-.3 0 .1 0 .1 0 0zm2.8-9c.2.9.4 1.6.5 2.2.2.6.3 1 .3 1.1 0-.1-.1-.5-.3-1.1-.1-.5-.3-1.3-.5-2.2zm-11-.3c-.1.1-.1.3-.1.4 0 .6.5 1.5 1.2 2.5 1 1.3 2.6 2.7 4 3.9-1.4-1.2-2.9-2.6-4-3.9-.8-1-1.3-1.9-1.2-2.5 0-.2 0-.3.1-.4zm2.1-.9h-.6.6c1.7 0 3.7.9 5.4 1.9 1.7 1 3.1 2.2 3.7 2.7.2.1.2.2.2.2s.1.1.2.1h.1c.1 0 .1-.1.1-.2 0 .1 0 .2-.1.2h-.1c-.1 0-.1 0-.2-.1l-.2-.2c-.5-.5-2-1.6-3.7-2.7-1.7-1-3.7-1.9-5.4-1.9zm7.9-6.8c0 2.3.4 5.1.9 7.3-.5-2.2-.9-5-.9-7.3zm1.1-4.4c-.4.3-.7.9-.9 1.7-.2.8-.3 1.7-.3 2.7 0-1 .1-1.9.3-2.7.2-.8.5-1.4.9-1.7zm1.5-.6c.4 0 .8.1 1.1.4.3.3.6.6.9 1 .5.8.8 1.6 1 2v.1c0 .1.1.2.2.2h0c-.1 0-.2-.1-.2-.2v-.1c-.1-.3-.4-1.2-1-2-.3-.4-.6-.7-.9-1-.3-.3-.7-.4-1.1-.4zM157.7 7c.9 2.7 2.3 5.3 4.1 7.9-1.8-2.7-3.2-5.3-4.1-7.9zm0-.1zM152.9.5c-1.5 0-3.3 1.3-4.6 4-1.3 2.7-2.3 6.7-2.3 11.8 0 2.1.2 4.4.5 6.9-.4-2.5-.5-4.8-.5-6.9 0-5.1.9-9.1 2.3-11.8 1.3-2.6 3-4 4.6-4 .9 0 1.7.4 2.5 1.2.8.8 1.4 2.2 1.9 4-.5-1.8-1.2-3.1-1.9-4-.8-.8-1.6-1.2-2.5-1.2z"/>
  <path class="st4" d="M120.7 48.8c-.1 0-.1 0 0 0-.1 0-.1 0 0 0zm10.8-4.6c.3.3.8.7 1.4 1.1-1 .1-2.8.2-4.7.5-2.9.5-6.1 1.3-7.5 2.9 1.4-1.6 4.6-2.4 7.5-2.9 1.9-.3 3.7-.5 4.7-.5-.6-.4-1.1-.8-1.4-1.1zm.1-2.2c-.1.1-.3.1-.4.2-.3.2-.5.5-.5.8 0 .4.2.8.7 1.2-.4-.4-.7-.8-.7-1.2 0-.3.2-.6.5-.8.2-.1.3-.2.4-.2zm.7-.2zm0 0zm2.9-.3c-.7 0-1.5 0-2.2.1-.2 0-.4.1-.7.1.2 0 .4-.1.7-.1.7 0 1.4-.1 2.2-.1.9 0 1.7 0 2.3.1-.6 0-1.5-.1-2.3-.1zm-5.4-8.2c.1.8.6 1.6 1.3 2.5.7.9 1.6 1.7 2.5 2.6-.9-.8-1.8-1.7-2.5-2.6-.7-.9-1.2-1.8-1.3-2.5zm0-.5zm0 0zm0-.1zm11.4-12.6c-.5.4-.9 1.1-1.1 1.9-.2.8-.3 1.8-.3 2.8 0 3.9 1.2 8.8 1.7 10.7-.6-.5-1.5-1.2-2.6-1.9-1.9-1.2-4.3-2.5-6.4-2.5-.6 0-1.2.1-1.8.4.5-.3 1.1-.4 1.8-.4 2.1 0 4.5 1.2 6.4 2.5 1.1.7 2 1.4 2.6 1.9-.5-1.9-1.6-6.8-1.7-10.7 0-1 .1-2 .3-2.8.2-.8.6-1.4 1.1-1.9zm4.3-3.8c0 1.6.1 3.4.3 5.2-.3-.5-.7-1.1-1.2-1.6-.4-.4-1-.6-1.6-.6.6 0 1.1.3 1.6.6.5.4.9 1 1.2 1.6-.2-1.8-.3-3.5-.3-5.2zM152.9 0c-1.9 0-3.7 1.5-5.1 4.3-.7 1.4-1.3 3.1-1.7 5.1.4-2 1-3.7 1.7-5.1 1.4-2.8 3.2-4.3 5.1-4.3 1 0 2 .5 2.8 1.4.8.9 1.5 2.3 2.1 4.2 1.1 4 3.5 7.8 6.4 11.8-2.9-4-5.2-7.8-6.3-11.8-.5-1.9-1.2-3.2-2.1-4.2-.9-.9-1.9-1.4-2.9-1.4z"/>
  <path class="st5" d="M152.9 0c1 0 2 .5 2.8 1.4.8.9 1.5 2.3 2.1 4.2 1.1 4 3.5 7.8 6.4 11.8 0 .1 0 .2-.1.3 0 0-.1.1-.2.1s-.1 0-.2-.1l-.1-.1c-.7-.9-1.3-1.9-1.9-2.8-1.7-2.6-3.2-5.2-4.1-7.9-.1-.4-.3-.8-.4-1.2-.5-1.8-1.2-3.1-1.9-4-.8-.8-1.6-1.2-2.5-1.2-1.5 0-3.3 1.3-4.6 4-1.3 2.7-2.3 6.7-2.3 11.8 0 2.1.2 4.4.5 6.9 0 .1-.1.2-.2.2h-.1c-.1 0-.2-.1-.2-.2v-.1c-.1-.3-.4-1.2-1-2-.3-.4-.6-.7-.9-1-.3-.3-.7-.4-1.1-.4-.4 0-.9.2-1.5.6-.4.3-.7.9-.9 1.7-.2.8-.3 1.7-.3 2.7 0 2.3.4 5.1.9 7.3v.1c0 .2.1.4.1.6.2.9.4 1.6.5 2.2.2.6.3 1 .3 1.1v.1c0 .1 0 .2-.1.2h-.1c-.1 0-.1 0-.2-.1l-.2-.2c-.5-.5-2-1.6-3.7-2.7-1.7-1-3.7-1.9-5.4-1.9h-.6c-.3 0-.7.1-.9.3-.3.2-.5.3-.6.6-.1.1-.1.3-.1.4 0 .6.5 1.5 1.2 2.5 1 1.3 2.6 2.7 4 3.9.1.1.3.2.4.3.7.6 1.4 1.1 1.9 1.5.5.4.8.6.8.6.1 0 .1.1.1.2v.1c0 .1-.1.2-.2.2 0 0-.4 0-1-.1-.6 0-1.4-.1-2.2-.1-1 0-2 .1-2.7.2-.3.1-.6.2-.7.3 0 0-.1 0-.1.1-.2.1-.3.2-.3.4s.1.5.5.9 1 .9 2 1.5c.1 0 .1.1.1.2v.1c0 .1-.1.2-.2.2 0 0-.8 0-2.1.2-1.7.2-4.1.5-6.2 1-.3.1-.5.1-.8.2-.1 0-.2.1-.3.1-1 .3-1.9.7-2.6 1.2-.7.5-1.1 1.1-1.1 1.8v.1c0 .6.5 1.2 1.3 1.7 1.1.8 2.8 1.4 4.3 1.8.7.2 1.3.3 1.8.4.5.1.7.1.7.1.1 0 .2.1.2.2v.1c0 .1-.1.1-.1.1l-.1.1c-.9.6-5.9 4.1-9.2 12 0 .1-.1.1-.2.1h-.1c-.1-.1-.2-.2-.1-.3 3-7.1 7.4-10.8 9-11.9-.8-.2-2.1-.5-3.5-.9-1-.4-2.1-.8-2.9-1.4-.8-.6-1.4-1.3-1.5-2.1v-.1c0-.6.2-1.1.6-1.5 1.4-1.6 4.6-2.4 7.5-2.9 1.9-.3 3.7-.5 4.7-.5-.6-.4-1.1-.8-1.4-1.1-.4-.4-.7-.8-.7-1.2 0-.3.2-.6.5-.8.1-.1.2-.1.4-.2s.4-.2.7-.2c.2 0 .4-.1.7-.1.7-.1 1.4-.1 2.2-.1.9 0 1.7 0 2.3.1-.8-.6-2.1-1.7-3.5-2.9l-.4-.4c-.9-.8-1.8-1.7-2.5-2.6-.7-.9-1.2-1.7-1.3-2.5V33v-.2c.1-.5.4-.9 1-1.2.5-.3 1.1-.4 1.8-.4 2.1 0 4.5 1.2 6.4 2.5 1.1.7 2 1.4 2.6 1.9-.5-1.9-1.6-6.8-1.7-10.7 0-1 .1-2 .3-2.8.2-.8.5-1.5 1.1-1.9.6-.5 1.2-.8 1.8-.8.6 0 1.1.3 1.6.6.5.4.9 1 1.2 1.6-.2-1.8-.3-3.6-.3-5.2 0-2.6.2-4.9.6-6.9.4-2 1-3.7 1.7-5.1 1.1-2.9 2.9-4.4 4.8-4.4z"/>
  <path class="st6" d="M128.8 54.8zm0 0zm0 0zm0 0zm-8.2-4.5v.1c0 .6.5 1.2 1.3 1.7 1.1.8 2.8 1.4 4.3 1.8.7.2 1.3.3 1.8.4.5.1.7.1.7.1.1 0 .2.1.2.2v0c0-.1-.1-.2-.2-.2 0 0-.3 0-.7-.1-.5-.1-1.1-.2-1.8-.4-1.4-.4-3.1-1-4.3-1.8-.8-.5-1.2-1.1-1.3-1.7v-.1zm4.8-3.3c-.3.1-.5.1-.8.2-.1 0-.2.1-.3.1.1 0 .2-.1.3-.1.3-.1.5-.2.8-.2zm6.4-3.2c.4.4 1 .9 2 1.5.1 0 .1.1.1.2 0-.1 0-.2-.1-.2-.9-.6-1.6-1.1-2-1.5zm.6-1.5c-.3.1-.6.2-.7.3.2-.2.4-.3.7-.3zm2.7-.3c.1 0 .1 0 0 0 .1 0 .1 0 0 0zm.4-2.7c.1.1.3.2.4.3.7.6 1.4 1.1 1.9 1.5.5.4.8.6.8.6.1 0 .1.1.1.2 0-.1 0-.2-.1-.2 0 0-.3-.2-.8-.6-.5-.4-1.1-.9-1.9-1.5-.1 0-.3-.1-.4-.3zm6.7-3.1s0 .1 0 0c0 .1 0 0 0 0zm-1-4v.1c0 .2.1.4.1.6 0-.2-.1-.4-.1-.6.1 0 .1 0 0-.1zM131 32c-.3.2-.5.3-.6.6.1-.2.2-.4.6-.6zm.9-.3c-.3 0-.7.1-.9.3l.9-.3zm8.5-6.8zm6.1-1.6zm-3.5-3.4c-.4 0-.9.2-1.5.6.6-.5 1.1-.6 1.5-.6zm11.8-9c-.6 0-1.2.1-1.8.4-.9.5-1.5 1.3-2 2.4-.5 1.1-.9 2.4-1.1 3.7-.5 2.8-.6 5.9-.6 8.2v2.1c-.3-.6-.8-1.3-1.5-1.9-.5-.4-1-.6-1.6-.6-.5 0-1 .2-1.5.5-.6.4-1 1-1.2 1.8-.2.8-.3 1.7-.3 2.7 0 3 .8 6.6 1.2 7.8-.3-.1-.7-.2-1.1-.3-.9-.3-2-.5-2.8-.5-.3 0-.5 0-.8.1-.2.1-.4.3-.5.5v.2c0 .5.3 1 .7 1.5.4.5.9 1.1 1.4 1.7.6.6 1.1 1.2 1.5 1.5-.5 0-1.2 0-1.9.1-1.4.1-3 .2-3.9.5-.3.1-.5.2-.6.3-.1.1-.2.2-.2.3v.1c.1.4.4.6.8.7.4.2.8.2 1.2.3h.1c-1.7.5-4.5 1.4-6.7 2.3-1.1.5-2.1 1-2.6 1.5-.3.3-.6.6-.6 1v.3c.1.4.4.6.8.8.4.2.8.4 1.3.6 1 .3 2.3.5 3.6.7 1.4.2 2.8.3 3.7.3-2.9 1.3-11.2 5.4-17.5 12.5 3.1-6.3 7.2-9.4 8.3-10.1l.1-.1c-.9.6-5.9 4.1-9.2 12 6.7-8.4 16.6-13 19-14 .3-.1.5-.2.5-.2.1 0 .2-.2.2-.3 0-.1-.1-.2-.2-.2h-1.2c-.7 0-1.7-.1-2.8-.2-2.1-.2-4.5-.6-5.6-1.3-.3-.2-.5-.4-.5-.6v-.1c0-.1.1-.3.2-.4.2-.2.4-.4.7-.6.6-.4 1.5-.8 2.5-1.2 1.9-.8 4.3-1.6 5.9-2 1-.3 1.7-.5 1.7-.5.1 0 .2-.2.2-.3 0-.1-.1-.2-.3-.2h-1c-.5 0-1.2-.2-1.6-.3-.3-.1-.4-.3-.5-.4l.1-.1c.2-.1.4-.2.7-.2.6-.1 1.5-.2 2.3-.3 1.7-.1 3.4-.1 3.4-.1.1 0 .2-.1.2-.2s0-.2-.1-.3c0 0-.1-.1-.4-.3l-.9-.9c-.7-.7-1.5-1.6-2.1-2.4-.4-.5-.6-1-.6-1.2v-.1c0-.1 0-.1.2-.2.1-.1.3-.1.6-.1 1.1 0 2.9.6 3.7.8.3.1.4.2.4.2l.3-.1c.1-.1.1-.2.1-.3 0 0-.1-.3-.2-.8s-.3-1.2-.4-2c-.3-1.6-.6-3.6-.6-5.5 0-1 .1-1.8.3-2.6.2-.7.5-1.2 1-1.5.5-.3.9-.4 1.3-.4.8 0 1.5.6 2.1 1.3.5.7.9 1.6 1 1.9 0 .1.1.1.1.1 0 .1.1.2.2.2s.2-.1.2-.3v-.9-2.5c0-3.4.3-8.7 1.7-11.7.5-1 1.1-1.8 1.8-2.1l-.1-.2-.1-.2.1.2.1.2c.5-.3 1-.4 1.6-.4 1.6 0 3.5 1.1 5.2 2.4 1.6 1.3 3 2.8 3.8 3.7-.7-.9-1.3-1.9-1.9-2.8-.5-.4-1-.9-1.5-1.3-1.7-.9-3.7-2-5.5-2.1zm2.9-4c0 .1 0 .1 0 0 0 .1 0 .1 0 0zm-.4-1.2c.1.4.2.8.4 1.2-.2-.4-.3-.8-.4-1.2z"/>
  <path class="st7" d="M174.1 73.6c1.4-2.6 2.2-5.8 3.1-8.3 2-6 3-12.5 1.2-18.7-3.7-12.7-17.1-31.5-20.7-31.5S156.2 26 156.2 26s-2.3-4.2-3.8-2.7c-1.5 1.6 0 10.4 0 10.4s-1.7-2.7-2.7-1.3c0 0-1.3-2.7-3.4-2-2.1.7 2.7 13 2.7 13s.7-2 .3-4.5c-.4-2.5 2.4 3.4 1.8 7.1-.6 3.7 2.1-3.8 1.6-6.2-.6-2.4 3 3.7-.3 10.2 0 0-1.1 3.1-6.3 3.5 0 0 2.7-1.1 3.4-3.8 0 0-1.4 1.4-8.6 3.9-7.2 2.5-18.5 10.9-19.5 17.9-1 7.1 10-4.8 10-4.8s-1.8 4.5-.6 4.2c1.3-.3 6.9-6.9 6.9-6.9s-4.8 9.6.8 9.7c5.6.1 15.1-12.6 15.1-12.6s-3.1 6.3-1.1 6.3 4.8-4.2 4.8-4.2-4.2 10.3-.6 12c3.7 1.7 7.6-5.2 7.6-5.2s-1.6 3.7 1 3.5c2.5-.1 3.8-4.1 3.8-4.1s-3.7 10 .4 8.3c2.1-.6 3.5-2.2 4.6-4.1z"/>
  <path class="st7" d="M147.6 45.6s-.6-3-2.1-3.6c-1.5-.6-.5 2.7-.5 2.7s-2.9-1-2.5-.3c.4.8 1.3.9 1.3.9s-11.1 2-10.3 3.9c.8 2 12.7-.8 12.7-.8s-1 1-3 1.8c-2 .9 6 .5 4.4-4.6z"/>
  <path d="M175.9 63.3s5.7-12.7-2.5-25.8c0 0 2.4 4.1 2.2 7.5 0 0-1-5.4-7.1-11.5 0 0 3.4 9.2 2.4 14.1 0 0-.1-2.6-.9-5.3 0 0-1 8.7-4.9 12.5 0 0 2.8-1.4 3.9-3.8 0 0-.1 3.9-3.6 7 0 0 2.9-.5 5.2-4.4 0 0-2 7.8-6.5 11.8 0 0 7.1-1.6 9-7 0 0-.5 6.8-2.4 10.2-1.9 3.6 3.1.4 5.2-5.3z" fill="#ae6b49"/>
  <path class="st9" d="M51 163.6s-4.5 7.5-7.2 9.9c0 0-9-6.8-18.5 1.5 0 0-.5 1 .1.9.6 0 6.7-3 12.2 4.1 5.5 7.1.1 19.3-4.4 23.3s6.8 1.4 9.6-6.6c0 0-1.2 5.5-6.3 9.4-5 3.9 7.9 2.6 12.1-8.7 0 0-.1 4.6-6 10.2-5.9 5.5 12.3.7 13.5-15.1 1.3-15.8-7.4-15.8-7.4-15.8l8.8-10.4-6.5-2.7z"/>
  <path class="st10" d="M51 163.6l.2.1s-1.1 1.9-2.6 4.1c-1.5 2.2-3.3 4.7-4.6 5.9-.1.1-.2.1-.3 0l-.1-.1c-.7-.5-3.9-2.5-8.1-2.5-2.9 0-6.4.9-9.9 4l-.2-.2.2.1v.1c-.1.1-.1.4-.1.5h-.1v-.1h-.1V175.2c.2 0 .6-.2 1.2-.3.6-.2 1.5-.3 2.4-.3 2.4 0 5.7.9 8.7 4.8 1.7 2.2 2.4 4.8 2.4 7.6 0 6.4-3.6 13.2-6.8 16.1-.4.3-.6.6-.8.8-.2.2-.2.4-.2.4l.1.1c.1 0 .2.1.4.1.9 0 2.9-.7 4.9-2.1 1.9-1.4 3.9-3.5 4.8-6.2 0-.1.2-.2.3-.2.1 0 .2.2.2.3 0 0-1.3 5.6-6.4 9.6-.4.3-.7.6-.8.8-.2.2-.2.4-.2.5 0 .1 0 .1.1.2s.3.1.6.1c1.2 0 3.5-.7 5.9-2.4 2.3-1.7 4.7-4.3 6.1-8.1 0-.1.2-.2.3-.2.1 0 .2.1.2.3 0 .1-.1 4.7-6.1 10.3-.4.4-.7.7-.9 1-.2.3-.2.5-.2.6l.1.2c.1 0 .2.1.4.1.7 0 1.8-.3 3.2-1 4-2.1 9.8-7.4 10.5-16 .1-1.1.1-2.1.1-3 0-6.3-1.9-9.5-3.7-11-.9-.8-1.8-1.2-2.5-1.4-.3-.1-.6-.1-.8-.2H48.5c-.1 0-.2-.1-.2-.2v-.3l8.6-10.1-6.2-2.6.3.1.2.1-.2-.1.1-.2 6.5 2.8.1.2-.1.2-8.8 10.4-.2-.2v-.3s2 0 3.9 1.7 3.8 5 3.8 11.4c0 .9 0 1.9-.1 3-.5 5.9-3.3 10.3-6.3 13.2-1.5 1.5-3.1 2.5-4.5 3.3-1.4.7-2.6 1.1-3.4 1.1-.3 0-.5 0-.7-.2-.2-.1-.3-.3-.3-.6s.1-.5.3-.8c.2-.3.5-.7.9-1.1 2.9-2.8 4.4-5.3 5.2-7.1.4-.9.6-1.6.7-2.1 0-.3.1-.4.1-.6v-.1h.3l.2.1c-1.4 3.9-3.8 6.6-6.3 8.3-2.4 1.7-4.8 2.5-6.2 2.5-.3 0-.6 0-.9-.2-.2-.1-.4-.4-.4-.6 0-.3.1-.5.3-.8.2-.3.5-.6.9-.9 2.5-1.9 4-4.2 5-6.1.5-.9.8-1.7 1-2.3.1-.3.2-.5.2-.7 0-.2.1-.2.1-.2l.3.1.2.1c-1 2.8-3 5-5 6.4-2 1.4-4 2.2-5.2 2.2-.3 0-.5 0-.7-.1-.2-.1-.3-.3-.3-.5s.1-.5.3-.7c.2-.3.5-.6.8-.9 3.1-2.7 6.6-9.6 6.6-15.7 0-2.7-.6-5.2-2.2-7.3-2.9-3.8-6-4.6-8.3-4.6-1 0-1.8.2-2.4.3-.3.1-.6.2-.8.2-.2.1-.3.1-.5.1h-.1c-.1 0-.3-.1-.4-.2-.1-.1-.1-.2-.1-.3 0-.4.2-.8.2-.8l.1-.1c3.6-3.2 7.2-4.2 10.3-4.2 5 0 8.5 2.6 8.5 2.7l-.2.2-.2-.2c1.3-1.1 3.1-3.6 4.6-5.8.7-1.1 1.4-2.1 1.8-2.8.5-.7.7-1.2.7-1.2.1-.1.2-.2.3-.1l.3.1z"/>
  <path class="st10" d="M42.5 177.5s2.5 4.2 2.5 10.3c0 2.8-.5 6.1-2.1 9.5-.1.1-.2.2-.3.1-.1-.1-.2-.2-.1-.3 1.5-3.4 2.1-6.5 2.1-9.3 0-3-.6-5.5-1.2-7.3-.3-.9-.6-1.6-.8-2.1-.1-.2-.2-.4-.3-.5-.1-.1-.1-.2-.1-.2-.1-.1 0-.3.1-.4 0 0 .2.1.2.2zM49.9 183.3s.6 2 .6 5.1c0 2.6-.4 6.1-2 9.8-.1.1-.2.2-.3.1-.1-.1-.2-.2-.1-.3 1.5-3.6 1.9-7 1.9-9.6 0-1.5-.1-2.8-.3-3.6-.1-.4-.1-.8-.2-1-.1-.2-.1-.3-.1-.3 0-.1 0-.3.2-.3.1-.1.3 0 .3.1z"/>
  <path class="st11" d="M50.5 187.7v.7c0 2.5-.4 5.6-1.7 9.1 0 .1-.1 4.7-6.1 10.3-.4.4-.7.7-.9 1-.2.3-.2.5-.2.6l.1.2c.1 0 .2.1.4.1.7 0 1.8-.3 3.1-1 4-2.1 9.8-7.4 10.5-16 0-.6.1-1.2.1-1.8-.3-.1-.6-.3-.9-.5.4 10.7-9 16.3-9 16.3s5.7-3.8 6.1-12.8c.1-2.1 0-3.9-.3-5.4-.2-.1-.4-.3-.6-.4-.2-.1-.4-.3-.6-.4zm-5.9-4.2c.2 1.3.4 2.7.4 4.3 0 2.8-.5 6.1-2.1 9.5-.5 1.5-2.1 5.8-6.2 9-.4.3-.7.6-.8.8-.2.2-.2.4-.2.5 0 .1 0 .1.1.2s.3.1.6.1c1.2 0 3.5-.7 5.8-2.4 2.2-1.6 4.4-4 5.8-7.3v-.1c1.5-3.6 1.9-7 1.9-9.6v-1.1c-.2-.1-.5-.3-.7-.5 0 13-9.6 18.3-9.6 18.3 6.1-7.2 6.6-15.2 6-20.9-.3-.2-.7-.5-1-.8zm-11.3-12.2c-2.4.4-5.1 1.5-7.8 3.8-.1.1-.1.4-.1.5.2 0 .6-.2 1.2-.3.6-.2 1.5-.3 2.4-.3 2.4 0 5.7.9 8.7 4.8 1.7 2.2 2.4 4.8 2.4 7.6 0 6.4-3.6 13.2-6.8 16.1-.4.3-.6.6-.8.8-.2.2-.2.4-.2.4l.1.1c.1 0 .2.1.4.1.9 0 2.9-.7 4.8-2.1 1.9-1.4 3.9-3.5 4.8-6.2 0-.1.1-.1.2-.2 1.3-3.1 1.8-6.1 1.8-8.7 0-1.8-.2-3.4-.5-4.8-.3-.3-.6-.5-.9-.8 1.6 6.7-1.5 15.4-4.6 18.4 0 0-.7.6-1 .6-.1 0-.1 0-.1-.1 0-.4 11.4-21.2-6.5-27.9 0 0 .7-.4 1.9-.4.5 0 1.2.1 1.9.3-.5-.4-.9-1.1-1.3-1.7z"/>
  <path class="st12" d="M42.9 197.4c0 .1-.1.1-.2.1h-.1c-.5 1.6-2.1 5.7-6.1 8.7-1.6 1.3-1.4 2-.1 2 2.5 0 8.9-2.8 11.8-9.8-.1 0-.1-.1-.2-.2-1.4 3.4-3.6 5.8-5.8 7.3-2.3 1.7-4.6 2.4-5.8 2.4-.3 0-.5 0-.6-.1-.1-.1-.1-.1-.1-.2s.1-.2.2-.5c.2-.2.4-.5.8-.8 4.1-3.1 5.7-7.4 6.2-8.9zm13-6.6c0 .6-.1 1.1-.1 1.8-.7 8.6-6.4 13.9-10.5 16-1.3.7-2.5 1-3.1 1-.2 0-.4 0-.4-.1l-.1-.2c0-.1.1-.3.2-.6.2-.3.5-.6.9-1 6-5.6 6.1-10.3 6.1-10.3-.1.2-.2.5-.3.7 0 0 0 .1-.1.1-.3 1.5-1.5 5.2-5.9 9.4-1.6 1.5-1.5 2.2-.4 2.2 2.9 0 13-5.7 13.9-17.3 0-.6.1-1.1.1-1.7-.1.1-.2 0-.3 0zm-22.7-19.7c-2.4.4-5.1 1.5-7.9 3.9 0 0-.5.9 0 .9.3 0 1.7-.6 3.7-.6 2.4 0 5.5.9 8.5 4.7 5.5 7.1.1 19.3-4.4 23.3-1.4 1.3-1.3 1.9-.3 1.9 2 0 7.5-2.7 9.6-7.8-.1-.1-.1-.2-.1-.3l.3-.6c-.1 0-.1.1-.2.2-.9 2.7-2.9 4.8-4.8 6.2-1.9 1.4-3.9 2.1-4.8 2.1-.2 0-.3 0-.4-.1l-.1-.1c0-.1 0-.2.2-.4s.4-.5.8-.8c3.2-2.9 6.8-9.7 6.8-16.1 0-2.7-.7-5.4-2.4-7.6-3-3.9-6.3-4.8-8.7-4.8-1 0-1.8.1-2.4.3-.6.1-1.1.3-1.2.3 0-.1.1-.4.1-.5 2.7-2.4 5.4-3.5 7.8-3.8 0-.2-.1-.3-.1-.3z"/>
  <path class="st12" d="M44 183c.2.2.4.3.6.5.2 1.3.4 2.7.4 4.3 0 2.8-.5 6.1-2.1 9.5 0 .1-.1.1-.2.1h-.1c.1-.5.2-.7.2-.7-.1.2-.2.5-.3.7-.1-.1-.1-.2-.1-.3l.3-.6c1.3-3.1 1.8-6.1 1.8-8.7 0-1.8-.2-3.4-.5-4.8zM50 187.3c.2.1.4.2.5.3v.7c0 2.5-.4 5.6-1.7 9.1-.1.2-.2.5-.3.7 0 0 0 .1-.1.1.1-.5.1-.8.1-.8-.1.3-.2.6-.3.8-.1 0-.1-.1-.2-.2v-.1c1.5-3.6 1.9-7 1.9-9.6.1-.3.1-.6.1-1z"/>
  <path class="st13" d="M46.5 185c.6.4 1.2.9 1.8 1.3.8 6-2.3 10.7-3 10.7-.2 0-.2-.5.2-1.5 1.3-2.9 1.3-7.2 1-10.5zM52.3 188.8c.6.4 1.2.7 1.9 1.1.5 4.4-1.4 8.7-1.8 9.3-.1.2-.2.3-.3.3-.2 0-.1-1-.1-1 1.1-3 .9-6.7.3-9.7zM35.3 174.9c.1 0 .4.1.7.2 1.4 1.8 3.1 3.6 5.1 5.5.9 2.4 1.3 5.6.2 10 0 0 1.9-9.3-5.4-14.9 0-.1-.9-.4-.6-.8-.1 0-.1 0 0 0z"/>
  <path class="st9" d="M75 168.2s-2.7 7.3-4.7 9.9c0 0-9-4.5-16 4.3 0 0-.3.9.2.8.5-.1 5.4-3.7 11.4 1.6 5.9 5.3 3.2 17-.1 21.3-3.3 4.3 6.2.2 7.4-7.4 0 0-.2 5.1-4 9.3-3.8 4.2 7.4 1 9.2-9.6 0 0 .7 4.1-3.7 9.9-4.3 5.8 10.9-1.4 9.5-15.5-1.4-14.1-9.1-12.7-9.1-12.7l6.1-10.6-6.2-1.3z"/>
  <path class="st10" d="M75 168.2l.2.1s-.7 1.8-1.6 4c-.9 2.2-2.1 4.6-3.1 5.9-.1.1-.2.1-.3.1h-.1c-.5-.2-2.5-1.1-5.3-1.1-3.1 0-6.9 1.1-10.3 5.4l-.2-.2.2.1v.5h-.1v-.1h-.1v-.1V183.1v-.1c.1 0 .2-.1.5-.3.8-.4 2.2-1.1 4.2-1.1s4.4.7 6.9 3c2.6 2.4 3.6 5.9 3.6 9.4 0 4.8-1.7 9.7-3.6 12.2-.5.6-.6 1-.6 1.2v.1h.2c.3 0 .9-.2 1.6-.6 2.1-1.2 5.1-4.3 5.8-8.2 0-.1.1-.2.3-.2.1 0 .2.1.2.3 0 0-.2 5.2-4.1 9.5-.5.6-.7 1-.7 1.2l.1.1s.1.1.3.1c.4 0 1.1-.2 2-.7 2.5-1.4 6.2-4.9 7.1-10.5 0-.1.1-.2.3-.2.1 0 .2.1.3.2v.7c0 1.4-.4 4.9-3.8 9.4-.5.7-.7 1.2-.7 1.4v.1h.2c.4 0 1.3-.3 2.3-1 3-2.1 7.3-7.2 7.3-14.3 0-.6 0-1.2-.1-1.9-.6-5.9-2.3-9-4-10.7-1.7-1.7-3.5-1.9-4.3-1.9h-.5c-.1 0-.2 0-.3-.1v-.3l5.9-10.3-5.8-1.3.1-.1.2.1-.2-.1.1-.3 6.2 1.4.2.1v.2l-6.1 10.6-.2-.1v-.3h.6c.9 0 2.8.3 4.6 2 1.8 1.8 3.5 5 4.1 11 .1.7.1 1.3.1 1.9 0 4.9-2 8.9-4.2 11.6-1.1 1.4-2.3 2.4-3.3 3.2-1 .7-1.9 1.1-2.6 1.1-.2 0-.4 0-.5-.2-.2-.1-.2-.3-.2-.5 0-.4.3-1 .8-1.7 3.3-4.4 3.7-7.8 3.7-9.1v-.6h.6c-.7 3.9-2.5 6.8-4.5 8.7-1 1-2 1.7-2.9 2.2-.9.5-1.7.7-2.2.7-.2 0-.4 0-.6-.2-.2-.1-.3-.3-.3-.5 0-.4.3-.9.8-1.5 1.9-2.1 2.9-4.4 3.4-6.1.3-.9.4-1.6.5-2.2 0-.3.1-.5.1-.6v-.2h.6c-.4 2.8-2 5.1-3.6 6.7-.8.8-1.7 1.4-2.4 1.9-.7.4-1.4.7-1.9.7-.2 0-.4 0-.5-.1-.1-.1-.2-.3-.2-.5 0-.4.3-.9.7-1.5 1.8-2.4 3.5-7.2 3.5-11.9 0-3.5-.9-6.8-3.4-9.1-2.5-2.2-4.7-2.9-6.6-2.9-1.2 0-2.3.3-3.1.6-.4.2-.7.3-.9.4-.1.1-.2.1-.3.2l-.2.1h-.2c-.2 0-.3-.1-.4-.2-.1-.1-.1-.2-.1-.4 0-.3.1-.5.1-.6v-.1c3.5-4.4 7.6-5.6 10.7-5.6 3.2 0 5.6 1.2 5.6 1.2l-.1.2-.2-.2c1-1.2 2.2-3.7 3.1-5.8.5-1.1.9-2.1 1.1-2.8.3-.7.5-1.2.5-1.2 0-.1.2-.2.3-.2l-.3.5z"/>
  <path class="st10" d="M69.9 181.8s4.2 4.9 4.2 12.3c0 1.6-.2 3.3-.6 5.1 0 .1-.2.2-.3.2-.1 0-.2-.2-.2-.3.4-1.8.6-3.4.6-5 0-3.6-1-6.6-2-8.7-.5-1-1-1.9-1.4-2.4-.2-.3-.3-.5-.5-.6l-.2-.2c-.1-.1-.1-.3 0-.4.1-.1.3-.1.4 0zM77.3 185.8s1.7 3.4 1.7 8.5c0 1.5-.1 3.1-.5 4.9 0 .1-.2.2-.3.2-.1 0-.2-.2-.2-.3.4-1.7.5-3.3.5-4.8 0-2.5-.4-4.5-.8-6-.2-.7-.4-1.3-.6-1.7-.1-.2-.1-.3-.2-.4 0-.1-.1-.1-.1-.1-.1-.1 0-.3.1-.3.2-.2.3-.2.4 0z"/>
  <path class="st11" d="M69.5 195.9c.3.1.5.1.7.2-.2 4.1-1.2 7.3-1.2 7.4 0 0 0 .1.1.1.2 0 .8-.7.8-.7 1-1.4 1.8-3.8 2.2-6.4.4.1.8.1 1.2.2l-.3 1.8c-.1 0-.1.1-.1.2-.6 4-3.7 7-5.8 8.2-.7.4-1.3.6-1.6.6h-.2v-.1c0-.2.2-.6.6-1.2 1.8-2.1 3.3-6.1 3.6-10.3z"/>
  <path class="st12" d="M69.3 195.9c.1 0 .2 0 .3.1-.4 4.2-1.9 8.2-3.6 10.3-.5.6-.6 1-.6 1.2v.1h.2c.3 0 .9-.2 1.6-.6 2.1-1.2 5.1-4.3 5.8-8.2 0-.1.1-.1.1-.2 0 .2-.1.4-.1.6 0 .1 0 .2.1.3-1.2 5.1-6 8.4-7.5 8.4-.6 0-.7-.5.2-1.7 1.6-2.2 3.1-6.2 3.5-10.3z"/>
  <path class="st11" d="M73.9 196.8c.3.1.7.1 1 .1-.2 3.1-1.1 6.4-3 9.8 0 0 4-3.3 5.4-9.5.4 0 .7.1 1.1.1-.1.5-.2 1.1-.3 1.7v.1c-1.1 5.2-4.6 8.5-7 9.8-.8.5-1.6.7-2 .7-.2 0-.3 0-.3-.1l-.1-.1c0-.2.2-.6.7-1.2 3.1-3.5 3.9-7.5 4-9 .2-.8.4-1.6.5-2.4z"/>
  <path class="st12" d="M78 199.1c0 .1.1.2.2.2-1.6 7.1-7.3 10.6-9.2 10.6-.8 0-.9-.6.2-1.8 3-3.3 3.7-7.1 3.9-8.6.1 0 .2-.1.2-.2-.2 1.4-.9 5.5-4 9-.5.6-.7 1-.7 1.2l.1.1s.1.1.3.1c.4 0 1.1-.2 2-.7 2.4-1.4 5.9-4.7 7-9.9z"/>
  <path class="st11" d="M78.8 197.3c.8 0 1.5.1 2.3.1-.1 6.2-3.5 9.5-3.5 9.5s4.2-3.7 5.4-9.5h.8c-.9 5.8-4.5 9.9-7.1 11.7-1 .7-1.8 1-2.3 1h-.2v-.1c0-.2.2-.7.7-1.4 3.3-4.5 3.8-8 3.8-9.4v-.7c0-.4.1-.8.1-1.2z"/>
  <path class="st12" d="M84.1 197.4c-1.2 8.1-7.7 13-9.6 13-.7 0-.8-.7.3-2 3.2-4.4 3.7-7.7 3.7-9.2l.1-.1c.1-.2.1-.5.1-.7v.7c0 1.4-.4 4.9-3.8 9.4-.5.7-.7 1.2-.7 1.4v.1h.2c.4 0 1.3-.3 2.3-1 2.6-1.8 6.2-5.9 7.1-11.7.1.1.2.1.3.1zM73.4 196.7c.2 0 .3.1.5.1-.1.8-.3 1.6-.5 2.5 0 .1-.1.2-.2.2.1-.4.1-.7.1-.7 0 .2-.1.5-.1.7-.1-.1-.2-.2-.1-.3.1-.2.1-.4.1-.6 0-.7.1-1.3.2-1.9z"/>
  <path class="st12" d="M78.3 197.3h.5c0 .3-.1.7-.2 1.1 0 .2-.1.5-.1.7 0 .1 0 .1-.1.1v-.7c0 .3-.1.5-.2.8-.1 0-.2-.1-.2-.2v-.1c.1-.6.2-1.1.3-1.7z"/>
  <path class="st13" d="M75.4 197c.3 0 .6.1.9.1-.3.9-.7 1.4-.9 1.4-.2 0-.2-.4 0-1.4v-.1zM81.6 197.5H82.4c-.1 1-.3 1.6-.4 1.8-.1.2-.2.3-.2.3-.2 0-.3-.9-.3-.9 0-.4.1-.8.1-1.2z"/>
  <path d="M43.2 154.4c-2.6-.2-3.2-1.3-3.2-1.3 6.6 1.1 15-4.3 15-4.3-.6 1.9-4 4.9-4 4.9 10.3-1.1 17.9-10.7 17.9-10.7 0 2.8-4.7 8.3-4.7 8.3 11.5-5.1 13.4-15.8 13.4-15.8 0 6.8-1.3 10.5-1.3 10.5 20.1-10.7 20.9-32.7 20.9-32.7l41.9 62.4s-7.1 11.8-.2 22.2c0 0-9-2.3-9.2-8.8 0 0-.9 10.3-9.2 12.2 0 0 2.3-4.5 1.9-10.5 0 0-5.3 14.5-24.1 7.5 0 0 7.9-2.1 9.4-7.5 0 0-25.6 16.4-56.4-2.8-26.7-16.6-22.8-35.3-21.3-40l.2-.4c4.2 10.9 15.6 7 13 6.8z" fill="#b88a37"/>
  <path class="st4" d="M43.2 154.4v.3c-2.7-.2-3.4-1.4-3.4-1.5v-.3c.1-.1.2-.1.2-.1.6.1 1.2.2 1.8.2 3 0 6.3-1.1 8.8-2.2 1.2-.6 2.3-1.1 3-1.5.4-.2.7-.4.9-.5.2-.1.3-.2.3-.2h.3c.1.1.1.2.1.3-.3 1-1.3 2.2-2.2 3.2-.9 1-1.8 1.8-1.8 1.8l-.2-.2v-.3c5.1-.6 9.5-3.2 12.7-5.7 1.6-1.3 2.8-2.5 3.7-3.4.4-.5.8-.8 1-1.1.2-.3.3-.4.3-.4.1-.1.2-.1.3-.1.1 0 .2.1.2.2 0 .8-.3 1.7-.8 2.6-1.3 2.8-4 5.8-4 5.8l-.2-.2-.1-.2c5.7-2.5 9-6.4 10.9-9.7.9-1.6 1.5-3.1 1.9-4.2.2-.5.3-1 .4-1.3 0-.1.1-.3.1-.3v-.1c0-.1.1-.2.3-.2.1 0 .2.1.2.3 0 6.8-1.3 10.6-1.3 10.6l-.2-.1-.1-.2c10-5.3 15.2-13.4 17.9-20.2 1.3-3.4 2.1-6.5 2.4-8.7.2-1.1.3-2 .4-2.6.1-.6.1-.9.1-1 0-.1.1-.2.2-.2s.2 0 .3.1l41.9 62.4v.3s0 .1-.1.2c-.6 1.1-3.1 5.9-3.1 11.6 0 3.2.8 6.7 3 10v.3c-.1.1-.2.1-.3.1 0 0-2.3-.6-4.6-2s-4.7-3.7-4.8-7.1h.6s-.2 2.6-1.5 5.5-3.6 6-7.9 7c-.1 0-.2 0-.3-.1v-.3s0-.1.1-.2c.4-.8 1.8-4.3 1.8-8.9v-1.3h.3l.2.1s-.9 2.4-3.2 4.8c-2.3 2.4-6 4.8-11.7 4.8-2.7 0-5.9-.6-9.6-1.9-.1 0-.2-.1-.2-.3 0-.1.1-.2.2-.2 0 0 .1 0 .3-.1.8-.2 2.7-.9 4.6-2.1 1.9-1.2 3.7-2.9 4.3-5.2l.2.1.1.2s-10.2 6.5-25.5 6.5c-9 0-19.7-2.3-31.1-9.4-18.8-11.7-22.5-24.5-22.5-32.7 0-3.5.7-6.2 1.1-7.6v-.1l.2-.4c.1-.1.1-.1.2-.1s.2.1.2.2c1.2 3.1 2.9 5 4.8 6.2 1.8 1.1 3.8 1.5 5.3 1.5.9 0 1.6-.1 2.1-.2.3-.1.4-.1.6-.2l.1-.1.1.1h-.1v-.1l.1.1h-.1.2l-.1.1v-.1h.2l-.1.1.1-.1v.1l.1-.1v.1h-.2l-.4-.2v-.3c.2 0 .3 0 .4.1l.2.1.1.2c0 .1-.1.2-.1.3-.1.1-.3.2-.4.2-.6.2-1.5.4-2.7.4-1.6 0-3.7-.4-5.6-1.5-1.9-1.2-3.8-3.2-5-6.4l.2-.1.2.1-.2.4-.2-.1.2.1c-.4 1.4-1.1 4-1.1 7.5 0 8.1 3.6 20.7 22.3 32.3 11.4 7.1 22 9.3 30.9 9.3 7.6 0 13.9-1.6 18.3-3.2 2.2-.8 4-1.6 5.1-2.2.6-.3 1-.6 1.3-.7.3-.2.5-.3.5-.3h.3c.1.1.1.2.1.3-.8 2.8-3.2 4.7-5.4 6-2.2 1.2-4.2 1.7-4.2 1.7l-.1-.3.1-.2c3.6 1.3 6.7 1.9 9.4 1.9 5.5 0 9.1-2.3 11.3-4.6 1.1-1.2 1.9-2.3 2.4-3.2l.5-1c.1-.1.1-.2.1-.3v-.1c0-.1.2-.2.3-.2.1 0 .2.1.2.2v1.4c0 5.4-1.9 9.3-2 9.3l-.2-.1-.1-.2c4-.9 6.3-3.9 7.5-6.7.6-1.4 1-2.7 1.2-3.7.1-.5.2-.9.2-1.2 0-.3.1-.4.1-.4 0-.1.1-.2.3-.2.1 0 .2.1.2.3.1 3.2 2.3 5.3 4.6 6.7 1.1.7 2.2 1.2 3.1 1.5.4.2.8.3 1 .3.2.1.4.1.4.1l-.1.2-.2.1c-2.3-3.4-3.1-7-3.1-10.3 0-6.7 3.3-12.1 3.3-12.1l.2.1-.2.1L97 113.4l.2-.1h.3s-.2 5.5-2.9 12.4c-2.7 6.9-8 15.1-18.1 20.5h-.3c-.1-.1-.1-.2-.1-.3 0 0 0-.1.1-.2.2-.8 1.2-4.4 1.2-10.3h.6s-1.9 10.9-13.5 16c-.1 0-.2 0-.3-.1-.1-.1-.1-.2 0-.3 0 0 .3-.3.7-.9.7-.8 1.6-2.1 2.5-3.5.8-1.4 1.5-2.8 1.5-3.7h.1l.2.2s-7.6 9.7-18 10.8c-.1 0-.2 0-.3-.2 0-.1 0-.2.1-.3l.5-.5c.5-.5 1.2-1.2 1.9-2s1.3-1.6 1.4-2.3l.2.1.1.2s-7 4.5-13.3 4.5c-.7 0-1.3 0-1.9-.2v-.3l.2-.1c0 .1.6 1 3 1.2l.1.4z"/>
  <path class="st4" d="M107.8 190.9s-4.6 2.1-10.6 2.1c-4.8 0-10.5-1.4-15.4-6.2-.1-.1-.1-.2 0-.3.1-.1.2-.2.3-.1 0 0 .1 0 .4.1.7.2 2.5.5 4.1.5 1.4 0 2.8-.2 3.4-.9l.2.2v.3h-.7c-1.2 0-3.7-.2-6.3-1.5-2.6-1.3-5.2-3.7-6.5-8.1 0-.1 0-.3.2-.3.1 0 .3 0 .3.2 1.3 4.3 3.8 6.5 6.2 7.7 2.5 1.2 4.9 1.4 6.1 1.4h.7c.1 0 .2 0 .3.1 0 .1 0 .2-.1.3-.9.9-2.3 1.1-3.8 1.1-2.3 0-4.6-.6-4.6-.6l.1-.3.2-.2c4.8 4.8 10.4 6.1 15 6.1 2.9 0 5.5-.5 7.4-1 .9-.3 1.7-.5 2.2-.7.3-.1.5-.2.6-.2.1-.1.2-.1.2-.1.1-.1.3 0 .3.1s0 .3-.2.3z"/>
  <path d="M76.8 177.5c1.4 4 3.9 6.3 6.3 7.5 2.5 1.2 4.9 1.4 6.2 1.5-.7.3-1.7.5-2.7.5-1.7 0-3.4-.3-4.1-.5-.2-.1-.4-.1-.4-.1H82c-.1 0-.2 0-.2.1-.1.1 0 .2 0 .3 4.9 4.9 10.6 6.2 15.4 6.2 2.2 0 4.2-.3 5.8-.6-3.7 1.1-7.1 1.6-10.1 1.6-7.4 0-12.8-2.9-16.2-5.8-3.4-2.9-5-5.8-4.7-5.8 0 0 .1 0 .1.1 1.6 1.6 7.3 2.2 7.3 2.2-2.7-1.7-2.7-5.6-2.6-7.2z" fill="#b07e34"/>
  <path d="M107.7 190.7c-.1.1-.3.1-.4.2.3-.1.4-.2.4-.2zm-30.8-13.8s0 .2-.1.6c1.4 4 3.9 6.3 6.3 7.5 2.5 1.2 4.9 1.4 6.2 1.5-.7.3-1.7.5-2.7.5-1.7 0-3.4-.3-4.1-.5-.2-.1-.4-.1-.4-.1H82c-.1 0-.2 0-.2.1-.1.1 0 .2 0 .3 4.9 4.9 10.6 6.2 15.4 6.2 2.2 0 4.2-.3 5.8-.6 1.4-.4 2.8-.9 4.2-1.5-1.3.5-5.2 1.9-10.1 1.9-4.7 0-10.3-1.3-15.2-6.2 0 0 2.3.6 4.6.6 1.4 0 2.8-.2 3.6-1h-.7c-2.3.1-9.9-.6-12.5-9.3z" fill="#6d5028"/>
  <path class="st17" d="M133.7 181.8s-1.5 6.8.4 10.4c0 0-4-2.7-4-7.5 0 0-1.8 8.7-5.8 12 0 0 2.5-7.5.8-12.8 0 0-.1 5.2-1 6.7 0 0-.6-4.6-1.4-6 0 0-2.3 11.4-16.8 12.2 0 0 7.3-5.5 8.1-11.8 0 0-7.2 5.8-13.8 5.6 0 0 5.3-.8 7.5-4.1 0 0-7.4 3.3-13.9.8 0 0 7.2-1 9.9-3.9 0 0-19.8 5.1-27.6-14.1 0 0 3.2 3.9 6.8 3.7 0 0-6.8-3.1-9.1-9.6 0 0-1.8 11 1.5 16.9 0 0-4.6-.9-7.2-3.9 0 0 2.7 16.7 20.7 18.5 0 0-32.3.9-48.6-19 0 0-8.3-8.7-8.5-22.3 0 0 3.5 6 15.1 3.6 0 0-.4 2.1-6.1 2.3 0 0 14.5 1.9 21-5.5 0 0-.5 3.8-6.6 6.5 0 0 14.3-2.9 18.4-12.7 0 0-.7 6.1-3 9.8 0 0 7.1-10 12.1-13.4 0 0-.8 3.9 3 9 0 0 .9-3.9 2.5-6 0 0-1 11.9 7.1 15.9 0 0-2.2-3.4-2.2-5.5 0 0 11 16.6 22.4 16.7 0 0-.5 0-.8-2.1 0-.1 12.5 9.8 19.1 9.6z"/>
  <path class="st18" d="M117.6 176.3s2.7 3.9 2.3 6.3c0 0 1.4-2.7.9-4.1-.5-1.4 3.5 5.4-2.1 11.1-5.5 5.7-8 5.4-8 5.4s5.4-4.7 4.6-12.1c0 0-2 1.8-5.4 3 0 0 2.2-.9 2.7-2.9 0 0-4.1 3-11.5 3.8 0 0 6.4-2.4 8.1-6.7 0 0-17.4 6-27.7-5.7 0 0 5.8 2.7 14.8.9 0 0-18-1.9-22-13.4 0 0 2.3 3.1 5.3 3.1 0 0-5.5-4.2-4-9.5s5.3-7.3 5.3-7.3-1.2 6.9 5.6 10.5c0 0-.4-1.5.6-4 0 0 1.6 9.2 8.6 11.6l-.1-1.9c-.1-.1 11.3 14.5 22 11.9zM71.8 157.9s-3.3 11.7.3 18.8c0 0-3.8-.6-5.5-4.5 0 0-.6 11.3 7.9 17.8 0 0-6.4-3.2-9.1-8.6 0 0 .7 4.7 2.9 6.8 0 0-11.6-2.4-15.3-10.3 0 0 0 4.2 2 6.2 0 0-11.3-3.7-14.9-12.3 0 0 2.2 1.1 4.6.8 0 0-7.2-2.6-11.7-14.3 0 0 3.5 1.3 5.7.8 0 0-1.5 1.2-2.5 1.3 0 0 6.2 3 17.6-.2 0 0-4.3 3.4-9 3.8 0 0 8.7 2.4 14.2-.7 0 0-2.5 3.9-4.9 4.5 0 0 11-2.7 13.4-8.4 0 0-1.6 4-.3 7.1-.1-.1.8-5.2 4.6-8.6z"/>
  <path class="st0" d="M.5 10.2C-1.4 1.7 7.3 8.3 15 14.3S55.4 32 61.8 44c6.4 12 14.1 64.3 35.4 69.2 0 0-.8 22-20.9 32.7 0 0 1.3-3.8 1.3-10.5 0 0-1.9 10.7-13.4 15.8 0 0 4.7-5.5 4.7-8.3 0 0-7.5 9.6-17.9 10.7 0 0 3.4-3 4-4.9 0 0-8.5 5.5-15 4.3 0 0 .6 1.1 3.2 1.3 2.6.2-8.8 4.1-13-7l-.2.4c.2-.7.4-1.1.4-1.1S25.2 151 21 148c-4.1-3 2.8-4.9 2.8-4.9S8 138.4 4.3 129c-3.8-9.4 1.7-10.5 7.7-7.5 0 0-8.7-17.5-3.8-22.6 0 0-.1-.3-.2-.9-.7-2.8-2.2-11.8 4-14.8 0 0-5.5 1.5-7.3-2.4-1.9-4 5.5-5.3 10.7-5.3 0 0-9-5.5-9.8-12.4-.8-7 9.2.2 9.2.2s-6.6-7.7-7.5-14.7c-.9-7 6.6-3.4 6.6-3.4S8 36.9 5.8 28.4c-2.3-8.5 4.9-5.5 4.9-5.5S2.4 18.6.5 10.2z"/>
  <path class="st1" d="M.5 10.2l-.3.1C.1 9.4 0 8.7 0 8.2c0-.7.1-1.3.5-1.7.3-.5.8-.6 1.3-.6 1.4 0 3.5 1.1 5.8 2.6 2.3 1.6 5 3.6 7.5 5.6 1.9 1.5 5.4 3.3 9.6 5.5 6.4 3.2 14.5 7 21.6 11.1 7.1 4.1 13.2 8.6 15.7 13.2 1.6 3.1 3.3 8.6 5.3 15.3 2.9 10 6.5 22.6 11.3 33.1 4.8 10.5 10.8 18.9 18.7 20.7.1 0 .2.1.2.3 0 0-.2 5.5-2.9 12.4-2.7 6.9-8 15.1-18.1 20.5h-.3c-.1-.1-.1-.2-.1-.3 0 0 0-.1.1-.2.2-.8 1.2-4.4 1.2-10.3h.6s-1.9 10.9-13.5 16c-.1 0-.2 0-.3-.1-.1-.1-.1-.2 0-.3 0 0 .3-.3.7-.9.7-.8 1.6-2.1 2.5-3.5.8-1.4 1.5-2.8 1.5-3.7h.1l.2.2s-7.6 9.7-18 10.8c-.1 0-.2 0-.3-.2 0-.1 0-.2.1-.3l.5-.5c.5-.5 1.2-1.2 1.9-2s1.3-1.6 1.4-2.3l.2.1.1.2s-7 4.5-13.3 4.5c-.7 0-1.3 0-1.9-.2v-.3l.2-.1c0 .1.6 1 3 1.2.2 0 .3 0 .4.1l.2.1.1.2c0 .1-.1.2-.1.3-.1.1-.3.2-.4.2-.6.2-1.5.4-2.7.4-1.6 0-3.7-.4-5.6-1.5-1.9-1.2-3.8-3.2-5-6.4l.2-.1.2.1-.2.4c-.1.1-.2.2-.3.1-.1-.1-.2-.2-.1-.3.2-.7.4-1.2.4-1.2l.2.1.2.2s-2.9 2.4-6.2 2.4c-1.2 0-2.4-.3-3.5-1.1-1-.7-1.4-1.4-1.4-2.1 0-.6.3-1.1.7-1.5 1.2-1.2 3.6-1.8 3.6-1.8l.1.2-.1.2s-4-1.2-8.4-3.5c-4.4-2.4-9.4-5.9-11.3-10.7-.9-2.2-1.3-3.9-1.3-5.3s.4-2.4 1.1-3.1c.7-.7 1.7-1 2.9-1 1.6 0 3.4.6 5.4 1.5l-.1.2-.2.1s-1.3-2.7-2.6-6.2c-1.3-3.6-2.6-8-2.6-11.6 0-2 .4-3.8 1.6-5l.2.2-.5.4s-.1-.3-.2-.9c-.3-1.1-.7-3.2-.7-5.5 0-1.8.2-3.7.9-5.4.7-1.7 1.9-3.2 3.8-4.1l.1.2.1.2s-1.1.3-2.4.3c-.9 0-1.9-.1-2.9-.5-.8-.4-1.7-1.1-2.3-2.3-.2-.5-.3-.9-.3-1.3 0-.9.5-1.6 1.2-2.1 1.1-.8 2.7-1.4 4.5-1.7 1.8-.3 3.8-.5 5.6-.5v.3l-.1.2s-2.3-1.4-4.7-3.6c-2.4-2.3-4.9-5.4-5.3-9v-.7c0-.9.2-1.6.6-2 .4-.4 1-.6 1.6-.6 1.5 0 3.3.8 4.8 1.6s2.6 1.6 2.6 1.6l-.1.2-.2.2S8 55.9 7 48.8v-1.2c0-1.3.4-2.2 1-2.7s1.4-.7 2.2-.7c1.9 0 3.8.9 3.8.9l-.1.2-.2.1s-5.8-8.5-8.1-17c-.3-1.2-.4-2.1-.4-2.9 0-1.3.4-2.2 1-2.7s1.4-.7 2.1-.7c1.3 0 2.6.5 2.6.5l-.1.2-.1.2S2.3 18.6.4 10l.1.2.3-.1c.9 4.2 3.4 7.3 5.7 9.4 1.1 1.1 2.2 1.9 3 2.4.4.3.7.5 1 .6.2.1.3.2.3.2.1.1.2.2.1.3-.1.1-.2.2-.3.1 0 0-.1 0-.2-.1-.4 0-1.3-.3-2.2-.3-.7 0-1.3.1-1.8.6-.5.4-.8 1.1-.8 2.3 0 .7.1 1.7.4 2.8 1.1 4.2 3.1 8.4 4.9 11.6.9 1.6 1.7 2.9 2.2 3.8.6.9.9 1.4.9 1.4.1.1.1.2 0 .3-.1.1-.2.1-.3.1 0 0-.1-.1-.3-.1-.6-.3-2-.8-3.3-.8-.7 0-1.4.2-1.9.6-.5.4-.8 1.1-.8 2.3 0 .3 0 .7.1 1.1.5 3.4 2.3 7.1 4.1 9.8.9 1.4 1.7 2.6 2.4 3.4.3.4.6.7.8 1l.3.3c.1.1.1.2 0 .3-.1.1-.2.1-.3 0 0 0-.3-.2-.7-.5-.7-.5-1.8-1.1-3-1.7-1.2-.6-2.4-1-3.4-1-.5 0-1 .1-1.3.4-.3.3-.5.8-.5 1.6v.7c.4 3.4 2.8 6.4 5.1 8.7 1.2 1.1 2.3 2 3.2 2.6.4.3.8.5 1 .7.2.2.4.2.4.2.1.1.1.2.1.3 0 .1-.1.2-.2.2-2.3 0-5.1.3-7.2.9-1.1.3-2 .7-2.6 1.2-.6.5-1 1-1 1.7 0 .3.1.7.3 1.1.5 1.1 1.3 1.7 2.1 2.1.9.4 1.8.5 2.6.5.6 0 1.2-.1 1.6-.1.2 0 .4-.1.5-.1h.2c.1 0 .3 0 .3.2 0 .1 0 .3-.1.3-1.8.9-2.9 2.3-3.6 3.9-.7 1.6-.9 3.4-.9 5.2 0 2.3.4 4.3.6 5.4.1.5.2.8.2.8l-.1.3c-1 1-1.4 2.7-1.4 4.7 0 3.5 1.3 7.9 2.6 11.4.7 1.8 1.3 3.3 1.8 4.4.5 1.1.8 1.8.8 1.8v.3c-.1.1-.2.1-.3 0-1.9-.9-3.7-1.5-5.1-1.5-1.1 0-1.9.3-2.5.8-.6.6-.9 1.4-.9 2.7 0 1.3.4 3 1.2 5.1 1.8 4.6 6.7 8.1 11.1 10.4 2.2 1.2 4.3 2 5.8 2.6.8.3 1.4.5 1.8.7.4.1.7.2.7.2.1 0 .2.1.2.2s-.1.2-.2.2c0 0-.2.1-.6.2-.6.2-1.4.5-2.1 1-.3.2-.7.5-.9.7-.2.3-.3.5-.3.8 0 .4.3 1 1.2 1.7 1 .7 2.1 1 3.2 1 1.5 0 3-.6 4.1-1.2.6-.3 1-.6 1.3-.8.2-.1.3-.2.4-.3l.1-.1c.1-.1.2-.1.3 0 .1.1.1.2.1.3 0 0 0 .1-.1.3-.1.2-.2.5-.3.8l-.2-.1-.2-.1.2-.4c.1-.1.1-.1.2-.1s.2.1.2.2c1.2 3.1 2.9 5 4.8 6.2 1.8 1.1 3.8 1.5 5.3 1.5.9 0 1.6-.1 2.1-.2.3-.1.4-.1.6-.2l.1-.1.1.1h-.1v-.1l.1.1h-.1.2l-.1.1v-.1h.2l-.1.1.1-.1v.1l.1-.1v.1h-.2c-2.7-.2-3.4-1.4-3.4-1.5v-.3c.1-.1.2-.1.2-.1.6.1 1.2.2 1.8.2 3 0 6.3-1.1 8.8-2.2 1.2-.6 2.3-1.1 3-1.5.4-.2.7-.4.9-.5.2-.1.3-.2.3-.2h.3c.1.1.1.2.1.3-.3 1-1.3 2.2-2.2 3.2-.9 1-1.8 1.8-1.8 1.8l-.2-.2v-.3c5.1-.6 9.5-3.2 12.7-5.7 1.6-1.3 2.8-2.5 3.7-3.4.4-.5.8-.8 1-1.1.2-.3.3-.4.3-.4.1-.1.2-.1.3-.1.1 0 .2.1.2.2 0 .8-.3 1.7-.8 2.6-1.3 2.8-4 5.8-4 5.8l-.2-.2-.1-.2c5.7-2.5 9-6.4 10.9-9.7.9-1.6 1.5-3.1 1.9-4.2.2-.5.3-1 .4-1.3 0-.1.1-.3.1-.3v-.1c0-.1.1-.2.3-.2.1 0 .2.1.2.3 0 6.8-1.3 10.6-1.3 10.6l-.2-.1-.1-.2c10-5.3 15.2-13.4 17.9-20.2 1.3-3.4 2.1-6.5 2.4-8.7.2-1.1.3-2 .4-2.6.1-.6.1-.9.1-1h.3l-.1.3c-5.4-1.2-9.9-5.5-13.7-11.3-5.7-8.7-10-21-13.4-32.2-3.4-11.2-6-21.4-8.4-25.9-3.1-5.9-12.9-11.8-22.8-17-5-2.6-10-5-14.2-7.1-4.3-2.1-7.8-4-9.7-5.5-2.5-2-5.2-4-7.5-5.6C5 7.4 3 6.4 1.8 6.4c-.4 0-.7.1-1 .4-.1.2-.3.7-.3 1.4 0 .5.1 1.2.3 1.9l-.3.1z"/>
  <path class="st1" d="M10.8 22.7s.2.1.5.4c2.2 1.6 11.8 8.4 21.2 10.5.1 0 .2.2.2.3 0 .1-.2.2-.3.2-11-2.5-21.9-10.9-21.9-11-.1-.1-.1-.2 0-.4h.3zM37.6 75.8s-4.1-3.5-8.2-8.3c-4.1-4.8-8.2-10.9-8.2-16.1 0-2.2.8-4.4 2.7-6.1.1-.1.3-.1.4 0 .1.1.1.3 0 .4-1.8 1.6-2.5 3.5-2.5 5.7 0 5 4 11 8.1 15.8 2 2.4 4.1 4.4 5.6 5.9.8.7 1.4 1.3 1.8 1.7.4.4.7.6.7.6.1.1.1.3 0 .4-.1.1-.3.1-.4 0zM54.9 69s-.1-.1-.2-.3c-.5-.6-1.9-2.2-3.5-3.6s-3.5-2.6-5-2.6c-.5 0-.9.1-1.2.3-.3.2-.5.5-.5 1.1 0 1 .6 2.6 1.6 4.4 1.5 2.6 3.7 5.7 5.6 8.1.9 1.2 1.8 2.2 2.4 3 .6.7 1 1.2 1 1.2.1.1.1.2 0 .3-.1.1-.2.1-.3 0 0 0-.1-.1-.3-.2-.5-.3-1.7-.9-2.6-.9-.4 0-.8.1-1.1.4-.3.3-.5.8-.5 1.6v.1c0 1 .5 2.6 1.3 4.3 1.2 2.7 3.2 5.8 5.6 8.4 2.4 2.6 5 4.5 7.6 4.9.1 0 .2.2.2.3 0 .1-.2.2-.3.2-3.7-.6-7.3-4-10.2-7.9-1.4-1.9-2.6-3.9-3.4-5.7-.8-1.8-1.3-3.4-1.3-4.6v-.2c0-.9.3-1.5.7-1.9.4-.4.9-.5 1.4-.5 1.5 0 3.2 1.1 3.2 1.1l-.1.2-.2.2s-2.6-3.1-5.3-6.7c-1.3-1.8-2.7-3.8-3.7-5.6-1-1.8-1.7-3.4-1.7-4.6 0-.6.2-1.2.7-1.5.5-.3 1-.4 1.5-.4 2 0 4.2 1.7 6 3.4 1.8 1.7 3.1 3.3 3.1 3.3.1.1.1.3 0 .4-.3.1-.5.1-.5 0z"/>
  <path class="st1" d="M30.3 51s-3.5-2.2-6.9-5.6c-3.5-3.4-7-8-7-12.7 0-1.6.4-3.3 1.4-4.9.1-.1.2-.2.4-.1.1.1.2.2.1.4-.9 1.5-1.3 3.1-1.3 4.7 0 4.5 3.4 9 6.8 12.4 1.7 1.7 3.4 3.1 4.7 4 .6.5 1.2.9 1.6 1.1.4.3.6.4.6.4.1.1.2.2.1.4-.2-.1-.4 0-.5-.1zM50.8 102.7s-.2-.1-.5-.3c-1-.5-3.2-1.4-4.9-1.4-.5 0-1 .1-1.4.3-.4.2-.7.5-.8 1-.1.3-.1.6-.1.9 0 1.6 1.2 3.6 2.5 5.2.6.8 1.3 1.5 1.7 1.9l.6.6.2.2c.1.1.1.2 0 .3-.1.1-.2.1-.3.1h-.1c-.2-.1-.8-.3-1.4-.3-.5 0-1 .1-1.4.5-.4.4-.7 1-.7 2.2v.2c0 1.1.6 2.6 1.7 4.2 1.6 2.4 4.1 5 7 7.1 2.9 2.1 6.1 3.6 9 3.8.1 0 .2.1.2.3 0 .1-.1.2-.3.2-4.1-.3-8.6-3-12.1-6.2-1.7-1.6-3.2-3.3-4.3-5-1.1-1.6-1.7-3.2-1.8-4.4v-.2c0-1.2.3-2.1.8-2.6s1.1-.6 1.7-.6c.9 0 1.8.4 1.8.4l-.1.2-.2.2s-1.3-1.2-2.6-2.8c-1.3-1.6-2.6-3.6-2.6-5.5 0-.3 0-.7.2-1 .2-.6.6-1.1 1.1-1.3.5-.3 1.1-.4 1.7-.4 2.5 0 5.6 1.7 5.7 1.7.1.1.2.2.1.3-.1.2-.2.2-.4.2zM47.1 140.1s-1.8-.8-3.9-2.6c-2-1.8-4.2-4.6-5-8.7h.6v.8c0 1.3.1 3.9 1.1 6.6.1.2.1.5.1.6 0 .2-.1.5-.3.6-.2.2-.4.2-.7.2-.7 0-1.6-.4-2.7-1.2-3.2-2.4-7.6-8.4-7.9-18.2h.3l.2.1-.1.1c-.4.7-2 3.6-2 6.6 0 .6.1 1.2.2 1.8 0 .2.1.3.1.4 0 .2 0 .3-.1.4-.1.1-.3.2-.4.2-.3 0-.6-.2-.9-.4-1.2-.9-3-3-4.6-6.1-1.6-3-2.8-6.9-2.8-11.2 0-2.5.5-5.2 1.6-7.8l.2.1.2.2s-.3.4-.8 1.1c-.7 1-1.7 2.6-2.6 4.2-.9 1.6-1.5 3.3-1.5 4.4 0 .2 0 .4-.1.6-.1.2-.2.3-.4.3s-.4-.1-.5-.3c-.6-.5-1.3-1.7-1.9-3.4-.6-1.7-1-3.9-1-6.4 0-2.7.6-5.8 2.1-8.8l.2.1.2.2s-.9 1.2-2 2.4c-.5.6-1.1 1.2-1.7 1.7-.3.2-.5.4-.8.6-.2.1-.5.2-.7.2-.1 0-.3 0-.4-.1-.3-.1-.4-.2-.4-.4-.1-.1 0-.3.1-.3.1-.1.3 0 .3.1l.1.1h.1c.1 0 .3-.1.5-.2.7-.4 1.8-1.6 2.7-2.6.4-.5.8-1 1.1-1.4.3-.4.5-.6.5-.6.1-.1.2-.1.3-.1.1.1.2.2.1.3-1.5 3-2 5.9-2 8.6 0 2.8.6 5.2 1.3 6.9.3.9.7 1.6 1 2 .2.2.3.4.4.5l.1.1h.1v.2s.1-.1.1-.3c0-1.7 1.3-4.2 2.5-6.3 1.2-2.1 2.5-3.7 2.5-3.7.1-.1.2-.1.3-.1.1.1.2.2.1.3-1.1 2.6-1.5 5.2-1.5 7.6 0 4.7 1.6 9.1 3.4 12.2.9 1.6 1.9 2.8 2.7 3.7.4.4.8.8 1.1 1 .3.2.5.3.6.3v-.1-.3c-.1-.6-.2-1.3-.2-1.9 0-3.7 2.2-7.1 2.2-7.1.1-.1.2-.1.3-.1.1 0 .2.1.2.2.2 6.5 2.2 11.2 4.4 14.4 1.1 1.6 2.3 2.7 3.3 3.5 1 .8 1.9 1.1 2.4 1.1.2 0 .3 0 .3-.1.1 0 .1-.1.1-.3 0-.1 0-.3-.1-.5-1-2.8-1.2-5.4-1.2-6.7v-.8c0-.1.1-.2.2-.2s.2.1.3.2c.8 4 2.9 6.7 4.9 8.4 1 .9 1.9 1.5 2.6 1.9.3.2.6.4.8.5.2.1.3.1.3.1.1.1.2.2.1.3-.1.3-.2.3-.3.3zM51.2 47.3c.1.1 8.9 3.5 16.2 35.2 0 .1-.1.3-.2.3s-.3-.1-.3-.2c-3.7-15.8-7.7-24.5-10.8-29.3-1.5-2.4-2.8-3.8-3.8-4.6-.5-.4-.8-.6-1.1-.8-.1-.1-.2-.1-.3-.1h-.1c-.1-.1-.2-.2-.1-.3.2-.1.4-.2.5-.2z"/>
  <path class="st2" d="M1.8 6.4C3 6.4 5 7.4 7.3 9c.2 0 .3.1.4.2 2.2 1.5 4.7 3.5 7.2 5.3.2.1.3.2.5.4 1.1.8 2.6 1.7 4.4 2.7-.6-.1-1.4-.2-2.2-.2-1 0-2 .1-2.8.5-.8.3-1.5 1-1.6 1.9v.4c0 1 .5 2 1.2 3s1.7 2 2.7 2.9c1 .9 2 1.7 2.8 2.3h-.3c-4-2.2-7-4.4-8.2-5.2-.3-.2-.5-.4-.5-.4s-.1-.1-.3-.2c-.2-.1-.6-.3-1-.6-.8-.5-1.9-1.3-3-2.4-2.3-2.1-4.8-5.3-5.7-9.4-.3-.9-.4-1.5-.4-2 0-.7.1-1.1.4-1.4.2-.3.5-.4.9-.4z"/>
  <path class="st3" d="M15.3 14.9c1.1.8 2.6 1.7 4.4 2.7-1.7-1-3.2-1.9-4.4-2.7zm0 0z"/>
  <path class="st2" d="M8.2 22.7c.9 0 1.8.3 2.2.4.1 0 .1.1.2.1.3.2 3.1 2.4 7.1 4.7l-.3.6c-.4.1-.9.3-1.3.7-.8.7-1.5 1.8-1.8 3.6-.1.5-.1 1-.1 1.4 0 5 3.1 11.3 4.1 13.3-.7-.3-1.8-.6-2.9-.6-.8 0-1.6.2-2.2.8-.6.6-1 1.5-1 3 0 .5 0 1.1.1 1.7.6 4.1 3.2 7.9 5.6 10.6 1.4 1.6 2.8 2.9 3.6 3.7-1.2-.3-2.9-.8-4.5-.8-.8 0-1.6.1-2.2.5-.6.3-1 1-1 1.8 0 .2 0 .5.1.7.5 2.5 2.2 4.6 3.7 6 .9.8 1.7 1.4 2.3 1.8-1.2.1-3.8.4-5.7 1-.9.2-1.6.5-2.1.9-.3.2-.5.5-.5.8 0 .2.1.4.2.6.5.7 1.4 1.1 2.3 1.3.9.2 1.9.3 2.8.3h1c-.6.4-1.4 1.1-2.3 2-1.5 1.6-3.1 3.7-3.1 6.1v.6c.1.6.3 1 .6 1.3.3.3.7.4 1.1.4.7 0 1.5-.3 2.4-.8.8-.4 1.7-1 2.5-1.6.2-.1.3-.2.5-.4-1.8 2.4-4.5 6.5-5.8 11.4.1-2.6.4-5.5 1.1-8.4l-6.5 6.6c0-.1-.1-.4-.2-.7-.3-1.1-.6-3.2-.6-5.4 0-1.7.2-3.6.9-5.2s1.8-3 3.6-3.9c.1 0 .1-.1.1-.2v-.1c0-.1-.1-.2-.2-.2h-.1-.2c-.1 0-.3.1-.5.1-.4.1-1 .1-1.6.1-.8 0-1.8-.1-2.6-.5-.9-.4-1.6-1-2.1-2.1-.2-.4-.3-.8-.3-1.1 0-.7.3-1.2 1-1.7.6-.5 1.5-.9 2.6-1.2 2.1-.6 4.9-.9 7.2-.9.1 0 .2-.1.2-.2v-.1c0-.1 0-.2-.1-.2 0 0-.1-.1-.4-.2-.2-.2-.6-.4-1-.7-.9-.6-2-1.5-3.2-2.6-2.3-2.2-4.7-5.3-5.1-8.7v-.7c0-.8.2-1.3.5-1.6.3-.3.7-.4 1.3-.4.9 0 2.2.4 3.4 1 1.2.6 2.3 1.2 3 1.7.5.3.7.5.7.5h.1c.1 0 .1 0 .2-.1 0 0 .1-.1.1-.2s0-.1-.1-.2l-.3-.3c-.2-.2-.4-.5-.8-1-.6-.8-1.5-2-2.4-3.4-1.8-2.8-3.6-6.4-4.1-9.8-.1-.4-.1-.8-.1-1.1 0-1.2.3-1.9.8-2.3.5-.4 1.1-.6 1.9-.6 1.3 0 2.7.5 3.3.8.2.1.3.1.3.1h.1c.1 0 .1 0 .2-.1 0 0 .1-.1.1-.2v-.1s-.4-.5-.9-1.4c-.6-.9-1.4-2.2-2.2-3.8-1.7-3.2-3.7-7.4-4.9-11.6-.3-1.1-.4-2.1-.4-2.8 0-1.2.3-1.9.8-2.3.5-.4 1.1-.5 1.8-.5z"/>
  <path class="st2" d="M12.5 96.1c-.2.3-.5.6-.7.9-.5.6-1.1 1.2-1.7 1.7-.3.2-.5.4-.8.6-.2.1-.5.2-.7.2-.1 0-.3 0-.4-.1-.9 1-1.2 2.6-1.2 4.4 0 2 .4 4.4 1.1 6.7.6 2.1 1.3 4.2 2 5.9.5 1.3 1 2.4 1.3 3.2.2.4.3.8.5 1 0 .1.1.1.1.2 1.6 1.8 2.9 3 3.9 3.7.1.1.3.2.4.3-.8-1.3-2.2-4-4.2-8.9-1.3-3.2-1.7-6.3-1.7-8.7 0-3.9 1-6.5 1-6.5s0-.1.1-.1c.1-1.5.5-3 1-4.5zm5.6-68c0 .1-.1.1-.1.2h.4c-.1 0-.2-.1-.3-.2z"/>
  <path class="st3" d="M10.1 116.4c.7 1.9 1.4 3.4 1.8 4.2-.1-.3-.3-.6-.5-1-.4-.8-.8-1.9-1.3-3.2zM8.2 99.3c-.9 1-1.2 2.6-1.2 4.4 0 2 .4 4.4 1.1 6.7-.6-2.3-1.1-4.7-1.1-6.7 0-1.8.3-3.3 1.2-4.4zM10.8 22.7s.2.1.5.4c1.1.8 4.2 3 8.2 5.2h-1.1c-.1-.1-.2-.1-.3-.2 0-.1.1-.1.1-.2.1-.1 0-.3-.1-.4H18c-.1 0-.2 0-.2.1s-.1.1-.1.2c-4-2.4-6.8-4.5-7.1-4.7h.1c.1 0 .2-.1.2-.1.1-.1 0-.2-.1-.3z"/>
  <path class="st3" d="M18 27.6h.1c.1.1.2.2.1.4 0 .1-.1.1-.1.2s-.1.1-.1.2c-.2 0-.4.1-.7.1l.3-.6c0-.1.1-.1.1-.2.1-.1.2-.1.3-.1zM13.6 94.4c-1 2.1-1.6 4.1-1.9 6.1h-.1c-.1 0-.1 0-.2.1.2-1.4.5-2.9 1.1-4.4-.2.3-.5.6-.7.9-.5.6-1.1 1.2-1.7 1.7-.3.2-.5.4-.8.6-.2.1-.5.2-.7.2-.1 0-.3 0-.4-.1l.2-.2c.1.1.2.1.3.1 1.3-.2 4.9-5 4.9-5z"/>
  <path class="st4" d="M7.3 109.6c.7 2.8 1.7 5.5 2.5 7.7-.2-.6-.5-1.2-.7-1.9-.6-1.8-1.3-3.8-1.8-5.8zm-.8-5.8zM1.8 5.9c-.5 0-1 .2-1.3.6-.4.3-.5.9-.5 1.7 0-.7.1-1.3.5-1.7.3-.5.8-.6 1.3-.6 1.5 0 3.5 1.1 5.8 2.6 2.3 1.6 5 3.6 7.5 5.6 1.4 1.1 3.6 2.3 6.3 3.8-2.7-1.4-4.9-2.7-6.3-3.7-2.5-2-5.2-4-7.5-5.6C5.3 7 3.3 5.9 1.8 5.9z"/>
  <path class="st6" d="M8.1 110.5c.4 1.6 1 3.3 1.5 4.7.2.4.3.8.5 1.2-.7-1.8-1.5-3.8-2-5.9zm3.3-9.9c-.1.1-1 2.7-1 6.6 0 2.5.4 5.5 1.7 8.7 2 5 3.4 7.6 4.2 8.9-.1-.1-.3-.2-.4-.3-1-.8-2.3-2-3.9-3.7 0-.1-.1-.1-.1-.2.2.5.3.7.3.7v.3s-.1 0-.1.1c3 3.2 5 4.3 5.1 4.4h.1c.1 0 .2 0 .2-.1.1-.1.1-.2 0-.3l-.1-.1c-.1-.1-.1-.2-.2-.3-.2-.3-.5-.8-.9-1.5-.8-1.5-2.1-4-3.7-8-1.3-3.2-1.6-6.1-1.6-8.6 0-1.3.1-2.4.2-3.4.1 1.1.2 2 .4 3-.2-1.1-.3-2.4-.3-3.7 0-.8 0-1.7.1-2.5zm6.2-83.2c-1 0-2 .1-2.8.5-.8.3-1.5 1-1.6 1.9v.4c0 1 .5 2 1.2 3s1.7 2 2.7 2.9c1 .9 2 1.7 2.8 2.3h-.3c.5.3 1.1.6 1.6.9.1 0 .1-.1.2-.1.1-.1 0-.3-.1-.3 0 0-.3-.2-.7-.5-.4-.3-1-.8-1.7-1.3-1.3-1.1-2.9-2.6-4-4-.7-1-1.1-1.9-1.1-2.7v-.3c.1-.8.6-1.2 1.3-1.5.7-.3 1.6-.4 2.6-.4 1.5 0 3.1.3 3.6.4-.5-.3-1-.5-1.5-.8-.7-.4-1.5-.4-2.2-.4zm-2.3-2.5zM7.7 9.2c2.2 1.5 4.7 3.5 7.2 5.3.2.1.3.2.5.4-.2-.1-.3-.2-.5-.4-2.5-1.9-5-3.8-7.2-5.3z"/>
  <path class="st5" d="M1.8 5.9c1.5 0 3.5 1.1 5.8 2.6 2.3 1.6 5 3.6 7.5 5.6 1.4 1.1 3.6 2.3 6.3 3.8.1.1.1.2.1.3 0 .1-.1.2-.2.2h-.1c-.5-.3-1-.5-1.5-.8-1.8-1-3.3-1.9-4.4-2.7-.2-.1-.3-.2-.5-.4-2.4-1.9-4.9-3.8-7.2-5.3 0-.1-.1-.2-.3-.3C5.1 7.4 3 6.4 1.8 6.4c-.4 0-.7.1-1 .4-.1.2-.3.7-.3 1.4 0 .5.1 1.2.3 1.9.9 4.2 3.4 7.3 5.7 9.4 1.1 1.1 2.2 1.9 3 2.4.4.3.7.5 1 .6.2.1.3.2.3.2s-.1-.1-.2-.1-.2 0-.2.1c-.1.1-.1.3 0 .4 0 0-.1 0-.2-.1-.2 0-1.1-.3-2-.3-.7 0-1.3.1-1.8.6-.5.4-.8 1.1-.8 2.3 0 .7.1 1.7.4 2.8 1.1 4.2 3.1 8.4 4.9 11.6.9 1.6 1.7 2.9 2.2 3.8.6.9.9 1.4.9 1.4v.1c0 .1 0 .1-.1.2s-.1.1-.2.1h-.1s-.1-.1-.3-.1c-.6-.3-2-.8-3.3-.8-.7 0-1.4.2-1.9.6-.5.4-.8 1.1-.8 2.3 0 .3 0 .7.1 1.1.5 3.4 2.3 7.1 4.1 9.8.9 1.4 1.7 2.6 2.4 3.4.3.4.6.7.8 1l.3.3s.1.1.1.2 0 .1-.1.2-.1.1-.2.1h-.1s-.3-.2-.7-.5c-.7-.5-1.8-1.1-3-1.7-1.2-.6-2.4-1-3.4-1-.5 0-1 .1-1.3.4-.3.3-.5.8-.5 1.6v.7c.4 3.4 2.8 6.4 5.1 8.7 1.2 1.1 2.3 2 3.2 2.6.4.3.8.5 1 .7.2.2.4.2.4.2.1 0 .1.1.1.2v.1c0 .1-.1.2-.2.2-2.3 0-5.1.3-7.2.9-1.1.3-2 .7-2.6 1.2-.6.5-1 1-1 1.7 0 .3.1.7.3 1.1.5 1.1 1.3 1.7 2.1 2.1.9.4 1.8.5 2.6.5.6 0 1.2-.1 1.6-.1.2 0 .4-.1.5-.1H12c.1 0 .2.1.2.2v.1c0 .1-.1.2-.1.2-1.8.9-2.9 2.3-3.6 3.9-.7 1.6-.9 3.4-.9 5.2 0 2.3.4 4.3.6 5.4.1.3.1.6.2.7 0 0-.1-.1-.2-.1h-.1c-.1-.1-.2.1-.1.2 0 .1.1.2.2.3-.9 1-1.2 2.6-1.2 4.4 0 2 .4 4.4 1.1 6.7.4 1.6 1 3.3 1.5 4.7.2.4.3.8.5 1.2.7 1.9 1.4 3.4 1.8 4.2.2.5.3.7.3.7v.3s-.1 0-.1.1c-.2-.2-.3-.4-.5-.6v-.1c-.3-.7-1-2.1-1.7-3.9-.2-.6-.5-1.2-.7-1.9-.7-1.8-1.3-3.8-1.8-5.8s-.8-4-.8-5.8c0-2 .4-3.7 1.5-4.9 0-.1-.1-.4-.2-.7-.3-1.1-.7-3.2-.7-5.5 0-1.8.2-3.7.9-5.4.6-1.3 1.4-2.5 2.6-3.4-.3 0-.7.1-1 .1-.9 0-1.9-.1-2.9-.5-.9-.3-1.8-1-2.4-2.2-.2-.5-.3-.9-.3-1.3 0-.9.5-1.6 1.2-2.1 1.1-.8 2.7-1.4 4.5-1.7 1.5-.3 3.2-.4 4.7-.5-.9-.6-2.4-1.7-3.9-3.2-2.4-2.3-4.9-5.4-5.3-9v-.7c0-.9.2-1.6.6-2 .4-.4 1-.6 1.6-.6 1.5 0 3.3.8 4.8 1.6.5.3.9.5 1.3.7C11.7 59.7 7.8 54 7 48.7v-1.1c0-1.3.4-2.2 1-2.7s1.4-.7 2.2-.7c1.1 0 2.3.4 3 .6-1.4-2.2-5.8-9.2-7.7-16.3-.3-1.2-.4-2.1-.4-2.9 0-1.3.4-2.2 1-2.7s1.4-.7 2.1-.7c.3 0 .6 0 .9.1-2.5-1.7-7.4-5.7-8.8-12C.1 9.4 0 8.7 0 8.2c0-.7.1-1.3.5-1.7.3-.5.8-.6 1.3-.6z"/>
  <path class="st6" d="M17.3 28.5c-.4.1-.9.3-1.3.7-.8.7-1.5 1.8-1.8 3.6-.1.5-.1 1-.1 1.4 0 5 3.1 11.3 4.1 13.3-.7-.3-1.8-.6-2.9-.6-.8 0-1.6.2-2.2.8-.6.6-1 1.5-1 3 0 .5 0 1.1.1 1.7.6 4.1 3.2 7.9 5.6 10.6 1.4 1.6 2.8 2.9 3.6 3.7-1.2-.3-2.9-.8-4.5-.8-.8 0-1.6.1-2.2.5-.6.3-1 1-1 1.8 0 .2 0 .5.1.7.5 2.5 2.2 4.6 3.7 6 .9.8 1.7 1.4 2.3 1.8-1.2.1-3.8.4-5.7 1-.9.2-1.6.5-2.1.9-.3.2-.5.5-.5.8 0 .2.1.4.2.6.5.7 1.4 1.1 2.3 1.3.9.2 1.9.3 2.8.3h1c-.6.4-1.4 1.1-2.3 2-1.5 1.6-3.1 3.7-3.1 6.1v.6c.1.6.3 1 .6 1.3.3.3.7.4 1.1.4.7 0 1.5-.3 2.4-.8.8-.4 1.7-1 2.5-1.6.2-.1.3-.2.5-.4-1.8 2.4-4.5 6.5-5.8 11.4v2.4c1.2-7.5 6.4-13.8 7.8-15.4.2-.3.4-.4.4-.4.1-.1.1-.3 0-.4-.1-.1-.1-.1-.2-.1s-.1 0-.2.1c0 0-.2.2-.5.4-.3.3-.7.6-1.2 1-1 .8-2.3 1.8-3.5 2.4-.8.4-1.5.7-2.1.7-.3 0-.6-.1-.8-.3-.2-.2-.3-.5-.4-1v-.6c0-1.9 1.1-3.7 2.4-5.2 1.3-1.4 2.7-2.5 3.3-2.9.2-.1.3-.2.3-.2.1-.1.1-.2.1-.3 0-.1-.1-.2-.2-.2 0 0-.2 0-.5.1-.4.3-.8.3-1.4.3-.8 0-1.8-.1-2.6-.3-.9-.2-1.6-.6-2-1.1-.1-.1-.1-.2-.1-.3 0-.1 0-.2.1-.3.1-.1.3-.2.5-.4.5-.2 1.1-.5 1.9-.7 1.5-.4 3.4-.6 4.6-.8.8-.1 1.4-.1 1.4-.1.1 0 .2-.1.2-.2s0-.2-.1-.3c0 0-.1 0-.2-.1s-.4-.2-.6-.4c-.5-.4-1.2-.9-2-1.6-1.5-1.4-3.1-3.3-3.5-5.7 0-.2-.1-.4-.1-.6 0-.7.3-1.1.7-1.4.5-.3 1.1-.4 1.9-.4 1.8 0 4 .6 5 .9.3.1.5.2.5.2h.1c.1 0 .2 0 .2-.1.1-.1 0-.3-.1-.3 0 0-.1-.1-.4-.3-.2-.2-.6-.5-1-.9-.8-.8-2-1.9-3.2-3.2-2.4-2.7-4.9-6.4-5.5-10.4-.1-.6-.1-1.1-.1-1.6 0-1.3.3-2.1.8-2.6s1.2-.6 1.9-.6c1.2 0 2.5.5 3.1.7.2.1.3.1.3.1h.1c.1 0 .1 0 .2-.1s.1-.2 0-.3c0 0-.1-.1-.2-.3l-.5-1c-.4-.8-1-2-1.5-3.3-1.1-2.7-2.2-6.1-2.2-9.1 0-.5 0-.9.1-1.4.2-1.7.8-2.7 1.6-3.2.2-.2.4-.3.6-.4.2-.2.3-.4.4-.6zm1.1-.2H18l-.3.6c.4-.1.7-.1 1.1-.1h.5c-.3-.1-.6-.3-.9-.5z"/>
  <path class="st5" d="M18.8 28.3h-.4c.3.2.6.4.9.5.7.1 1.2.2 1.5.3.1 0 .2.1.2.1h.2c-.6-.3-1.1-.6-1.6-.9h-.8zm-8.1-5.6c-.1 0-.2 0-.2.1-.1.1-.1.3 0 .4h.1c.1 0 .2-.1.2-.1.1-.1 0-.2-.1-.3.1-.1 0-.1 0-.1zM18 28.4l-.3.6c-.2.1-.4.1-.7.2.1-.2.2-.4.3-.7.3-.1.5-.1.7-.1zM14.2 112.6s.1.1 0 0c.1.1 0 0 0 0zm-2.6-12.1c-.1 0-.1 0-.2.1-.1.9-.2 1.7-.2 2.5 0 1.3.1 2.6.3 3.7.4 1.5.9 2.8 1.4 3.8-.9-2.3-1.8-6-1.3-10.1.1 0 .1 0 0 0 .1 0 0 0 0 0zm-3.4-1.8c-.2 0-.3.2-.2.3 0 .1.1.2.2.3l.2-.2c-.1 0-.1-.1-.2-.2l.2-.2h-.2z"/>
  <path class="st7" d="M84.5 123.3c-1-5.4 1.3-16.1 1.3-16.1-12.1-14.3-20.3-53.1-25.7-62-5.4-8.9-19.5-14.8-27.2-19.6-7.8-4.8-19.7-6.9-13.1-1S35 28.8 50.1 42.4C65.2 55.9 70 86.1 70 86.1l.5 2.5s-12-5.5-13.9-3.2c-1.9 2.3 6.1 15.4 18.1 18.9 0 0-14.2-1.6-21.6-9.1 0 0 1.6 5.9 9.1 9.7 0 0-12.3-3.3-13-.2-.7 3.1 9.4 11.6 17.6 13.9 0 0-13.5-3.6-14.9-.8-1.3 2.7 9.6 11.7 18.3 11.7 0 0 4.4 6.2.4 13.5 0 0 7.1-6.3 5.6-16.1 0 0 5.4 7.6 3.7 13.1 0-.1 7.1-3.2 4.6-16.7z"/>
  <path class="st19" d="M46.1 62.5c1.5 0 3.4 1.2 5 2.6 1.2 1 2.2 2.1 2.9 2.9-1.1-.8-2.8-2-3.9-2-.9 0-1.3.9-.4 3.5 2.5 7.4 12 15 12 15S58.6 82 56.2 82c-1.1 0-2.1.6-2.5 2.3C52.7 89 62 97.7 64 99.5c-2.4-.5-5-2.4-7.2-4.9-2.4-2.6-4.4-5.7-5.6-8.4C50.5 84.5 50 83 50 82v-.1c0-.8.2-1.3.5-1.6.3-.3.6-.4 1.1-.4.9 0 2.1.6 2.6.9.2.1.3.2.3.2h.1c.1 0 .1 0 .2-.1s.1-.2 0-.3c0 0-.4-.4-1-1.2-.6-.7-1.4-1.8-2.4-3-1.9-2.4-4.1-5.5-5.6-8.1-1-1.8-1.6-3.4-1.6-4.4 0-.5.2-.9.5-1.1.5-.2.9-.3 1.4-.3z"/>
  <path class="st20" d="M46.1 62.2c3.7 0 9 6.6 9 6.6s-.5-.3-1.1-.8c-.7-.8-1.7-1.9-2.9-2.9-1.6-1.4-3.5-2.6-5-2.6-.5 0-.9.1-1.2.3-.3.2-.5.5-.5 1.1 0 1 .6 2.6 1.6 4.4 1.5 2.6 3.7 5.7 5.6 8.1.9 1.2 1.8 2.2 2.4 3 .6.7 1 1.2 1 1.2.1.1.1.2 0 .3-.1.1-.1.1-.2.1h-.1s-.1-.1-.3-.2c-.5-.3-1.7-.9-2.6-.9-.4 0-.8.1-1.1.4-.3.3-.5.8-.5 1.6v.1c0 1 .5 2.6 1.3 4.3 1.2 2.7 3.2 5.8 5.6 8.4 2.2 2.4 4.8 4.3 7.2 4.9.2.2.4.3.4.3C57.6 98.8 49.8 86 50 81.8c.1-1.7.9-2.2 1.9-2.2 1.4 0 3 1.1 3 1.1s-13.5-15.8-10-18.1c.2-.2.7-.4 1.2-.4z"/>
  <path class="st19" d="M45.4 101c1.5 0 3.4.7 4.5 1.2-.4-.1-.8-.1-1.2-.1-1.3 0-2.6.4-2.5 2.2.3 3.3 11.2 11.4 11.2 11.4s-4.3-1.6-7.3-1.6c-1.4 0-2.5.4-2.8 1.4-1.4 5.9 10.7 12.2 13.8 13.7-2.7-.4-5.7-1.8-8.3-3.8-2.9-2.1-5.4-4.7-7-7.1-1-1.6-1.7-3.1-1.7-4.2v-.2c0-1.2.3-1.8.7-2.2.4-.4.9-.5 1.4-.5.6 0 1.2.2 1.4.3h.2c.1 0 .2 0 .2-.1.1-.1.1-.2 0-.3l-.2-.2-.6-.6c-.5-.5-1.1-1.2-1.7-1.9-1.3-1.6-2.5-3.6-2.5-5.2 0-.3 0-.6.1-.9.2-.5.5-.8.8-1 .5-.2 1-.3 1.5-.3z"/>
  <path class="st20" d="M45.4 100.8c2.4 0 5.5 1.7 5.5 1.7s-.4-.1-1.1-.2c-1.1-.5-3-1.2-4.5-1.2-.5 0-1 .1-1.4.3-.4.2-.7.5-.8 1-.1.3-.1.6-.1.9 0 1.6 1.2 3.6 2.5 5.2.6.8 1.3 1.5 1.7 1.9l.6.6.2.2c.1.1.1.2 0 .3 0 .1-.1.1-.2.1h-.2c-.2-.1-.8-.3-1.4-.3-.5 0-1 .1-1.4.5-.4.4-.7 1-.7 2.2v.2c0 1.1.6 2.6 1.7 4.2 1.6 2.4 4.1 5 7 7.1 2.6 1.9 5.6 3.4 8.3 3.8.4.2.7.3.7.3-8-.6-17.8-10.7-17.9-15.4-.1-2.6 1.2-3.2 2.3-3.2.9 0 1.7.4 1.7.4s-6.1-5.5-4.9-9c.3-1.2 1.3-1.6 2.4-1.6z"/>
  <path class="st7" d="M61 68.6S55.7 52 44.7 43.8c0 0 2.9-.3 4.9 1.6 2 1.9-11.5-11-27.9-12.2 0 0-3.6.6-1.7 5 1.9 4.4 13 15.1 22.4 17.2 0 0-4.8.7-10.6-1.6s-8.3-2.4-6.5 5c1.8 7.4 17.5 19.2 19.8 19.7 0 0 1.9-1.2 5.6.3 0 0-16.7-16.7-6.5-19.3C54.5 57 61.3 75.4 61.3 75.4s-3.8-5-6.1-3.9c-2.4 1 5.1 12 10.9 13.3.1-.2-3-10.8-5.1-16.2z"/>
  <path class="st7" d="M46.6 83.8s-18-11.3-23.4-23.3c0 0-3.8-6.3-3.8-9.8 0 0-2.9-2.5-4.5-1.7s2.4 15 12.2 20.3c0 0-8.7-2.6-9.3 1.2-.5 3.9 12.3 7.5 12.3 7.5s-10.6-1.1-10.5.6c.1 1.7 5.4 1.6 5.4 1.6s-10 4.8-9.8 7.7c.2 2.9 9.7-3.5 9.7-3.5s-8.8 8.7-10 19.7c0 0 1.5-6.9 9.4-11.5 0 0-4.1 2.4-3.9 15.6.3 13.2 3.9 14.3 3.9 14.3s2.1-9.3 8.8-14.2c0 0-2.9 8.6-1 16.6 1.9 8.1 5 9.1 5 9.1s-2.6-7.7 1-13.9c0 0 .7 17.2 14.4 20.4 0 0-6.1 2.6-11.8-4 0 0 .2 4.1 3.4 5.6 3.2 1.5-11.6 0-15-14.4 0 0-.8 3.3.3 5.7 1.1 2.4-6-3.9-10.1-11.5 0 0-1.6 4 2.2 9.2 0 0-5.9-6.7-11.2-5.7-5.3.9 2.4 12.8 15.6 16.6 0 0-1.2-.3-2-2.7-.8-2.4.3 2.4 5.5 2.7 5.3.3-4.8 1.2-3.5 2.9 1.3 1.7 5.5-.8 5.5-.8s1.6 8.5 10.5 7.1c8.9-1.3 12.1-5.5 12.1-5.5s-2.1 1.5-5 1c0 0 7.2-1.5 9.7-5.3 0 0-.5 5.3-2.9 8 0 0 11-3.6 11.8-11.6 0 0-.6 2.3-3 3.3 0 0 2.2-5.7 1.8-9.3 0 0-14.3 1-24.5-15.1 0 0-3.1-6.5 1.3-7.4 0 0-4.9-8-1.2-10.4 0 0-4 .7-3.9 4.3 0 0-2.4-8.7 7.7-8.8 0 0-1.7 1.1-2.1 2.7 0 0 6.8.6 9.7 3 0 0-4.1-4.2-4.4-8.2 0 0 1.4 1.1 3.8 1.5.1.3-5.3-4.1-6.2-9.6z"/>
  <path class="st19" d="M20.6 100.8c-2.8 10.5 1.5 22.1 3.2 22.9.4.2.6.2.9.2.9 0 .9-1 .9-1 .6-4.3 4.6-7.3 4.6-7.3-1.7 14.3 7.5 19 7.5 19-1.1-3.2.3-9 .3-9 1.7 7.1 5.2 11.1 7.4 12.9-.6-.4-1.2-.9-1.9-1.5-2-1.8-4.1-4.5-4.9-8.4 0-.1-.1-.2-.3-.2-.1 0-.2.1-.2.2v.8c0 1.3.1 4 1.2 6.7.1.2.1.4.1.5 0 .1 0 .2-.1.3 0 0-.1.1-.3.1-.5 0-1.4-.4-2.4-1.1-1-.8-2.2-1.9-3.3-3.5-2.2-3.1-4.2-7.9-4.4-14.4 0-.1-.1-.2-.2-.2h-.1c-.1 0-.2 0-.2.1 0 0-2.2 3.4-2.2 7.1 0 .6.1 1.2.2 1.9v.4c-.1 0-.3-.1-.6-.3-.3-.2-.7-.6-1.1-1-.8-.9-1.8-2.1-2.7-3.7-1.8-3.1-3.4-7.4-3.4-12.2 0-2.5.4-5 1.5-7.6.1-.1 0-.3-.1-.3h-.1c-.1 0-.2 0-.2.1 0 0-1.2 1.7-2.5 3.7-1.2 2.1-2.5 4.5-2.5 6.3v.3c.1-.1.1-.2 0-.3-.8-2.1-1.2-4.1-1.2-6.2 0-1.1.1-2.1.3-3.2.1 3.3.6 5.5 1 5.5.1 0 .2-.2.3-.5.7-2.9 5.5-7.1 5.5-7.1z"/>
  <path class="st20" d="M13 110.5a9 9 0 0 0 1.2 2.1c0-.1-.6-.8-1.2-2.1zm6.9-8.3c-.1 0-.2 0-.2.1 0 0-1.2 1.7-2.5 3.7-1.2 2.1-2.5 4.5-2.5 6.3v.3l-.1.1h-.2c.2.2.3.2.4.2.2 0 .3-.2.3-.6 0-3.2 4.9-9.9 4.9-9.9-5.3 12.7 4.7 25.2 6.5 25.2.3 0 .4-.2.2-.8-1-4.2 2-8.7 2-8.7.5 13.1 8 19.2 10.3 19.2.6 0 .8-.4.5-1.2-1.4-3.8-1.1-7.5-1.1-7.5 1.6 8 8.7 11.1 8.7 11.1s-.7-.4-1.7-1.3c-.6-.4-1.2-.9-1.9-1.5-2-1.8-4.1-4.5-4.9-8.4 0-.1-.1-.2-.3-.2-.1 0-.2.1-.2.2v.8c0 1.3.1 4 1.2 6.7.1.2.1.4.1.5 0 .1 0 .2-.1.3 0 0-.1.1-.3.1-.5 0-1.4-.4-2.4-1.1-1-.8-2.2-1.9-3.3-3.5-2.2-3.1-4.2-7.9-4.4-14.4 0-.1-.1-.2-.2-.2h-.1c-.1 0-.2 0-.2.1 0 0-2.2 3.4-2.2 7.1 0 .6.1 1.2.2 1.9v.4c-.1 0-.3-.1-.6-.3-.3-.2-.7-.6-1.1-1-.8-.9-1.8-2.1-2.7-3.7-1.8-3.1-3.4-7.4-3.4-12.2 0-2.5.4-5 1.5-7.6.1-.1 0-.3-.1-.3 0 .1 0 .1-.1.1z"/>
  <path d="M14.9 92.2c-.7 2.9-1 5.9-1.1 8.4-.5 1.8-.8 3.7-.8 5.6 0 1.4.2 2.8.5 4.2-.1-.2-.2-.5-.4-.8-.4-.8-.8-1.9-1-3-.2-1.1-.3-2.3-.3-3.6 0-2.6.5-5.6 2-8.6.1-.1 0-.3-.1-.3h-.1c-.1 0-.2 0-.2.1 0 0-.2.2-.5.6-.3.4-.7.8-1.1 1.4-.9 1-2 2.2-2.7 2.6-.2.1-.4.2-.5.2h-.1l-.1-.1v-.1l6.5-6.6z" fill="#461c15"/>
  <path d="M13.6 94.2h.1c.1.1.2.2.1.3-1.5 3-2 5.9-2 8.6 0 1.3.1 2.5.3 3.6-.3-1.1-.4-2.3-.4-3.6 0-.8.1-1.5.2-2.3 0-.1-.1-.2-.2-.3.3-2 .8-4 1.9-6.1 0 0-3.6 4.8-5 4.8-.1 0-.2 0-.3-.1l-.2-.2.2.2.1-.3.1.1h.1c.1 0 .3-.1.5-.2.7-.4 1.8-1.6 2.7-2.6.4-.5.8-1 1.1-1.4.3-.4.5-.6.5-.6 0 .1.1.1.2.1z" fill="#2c1914"/>
  <path class="st23" d="M8.4 98.7v.1c.1 0 0 0 0-.1z"/>
  <path d="M13.8 100.6v2.4c-.2 1-.3 2.1-.3 3.2 0 2 .3 4.1 1.2 6.2v.3l-.1-.1c-.1-.1-.3-.3-.4-.5-.3-.5-.7-1.1-1-2-.4-.9-.7-2.1-.9-3.3.3 1.1.7 2.2 1 3 .1.3.2.5.4.8-.4-1.4-.5-2.9-.5-4.2-.2-2.1.1-4 .6-5.8z" fill="#361c15"/>
  <path class="st23" d="M11.7 100.5c-.5 4.1.3 7.8 1.3 10 .6 1.2 1.2 2 1.2 2.1l.1.1h.2s.1 0 .1-.1l-.1-.1c-.1-.1-.3-.3-.4-.5-.3-.5-.7-1.1-1-2-.4-.9-.7-2.1-.9-3.3-.3-1.1-.4-2.3-.4-3.6 0-.8.1-1.5.2-2.3l-.3-.3zm-3.5-1.6c0 .1.1.2.2.2l-.2-.2zm.2-.2l-.2.2.2.2.1-.3c0 .1 0 0-.1-.1.1.1 0 .1 0 0z"/>
  <path d="M85.7 126.6c.4-18.6 6.2-23.1 6.2-23.1-2.3.4-4.3 1.9-4.3 1.9.8-7.5 4.5-9.6 4.5-9.6-2.6-.6-6.2.8-6.2.8 1.9-4.7 8.8-4.9 8.8-4.9-5.3-8.8-1.9-22-1.9-19s2.3 5.5 2.3 5.5C93.2 69.4 97.9 60 97.9 60c-.1 14.8 31.9 39.1 43 43.9 11.1 4.8 16.2 11.6 16.2 11.6.3-3.7-4.2-9.2-4.2-9.2 6.9 4.9 11.7 17.5 11.7 17.5 1.3-3.5.4-9.7.4-9.7 5.2 6.1 9 25.4 9 25.4 3.2-4.8 8.3-22.7 8.3-22.7-.7 2.7.8 6.2.8 6.2 0-5.4 5.9-16.8 5.9-16.8 0 3.1-1.7 7.5-1.7 7.5 4.5-4.4 7.2-14.2 7.2-14.2 8.5 8.3 6.1 14.2 6.1 14.2-1.1-4.1-5.1-7.6-5.1-7.6 6.8 9.6 2.8 27.9 3.1 33.3.3 5.4 6.8 1.8 6.8 1.8-1.8 4.9-6.8 4.8-6.8 4.8 1.1 3 6.3 3.8 6.3 3.8-4.5 3.7-7.3.7-7.3.7 3.8 5.4.1 11.1.1 11.1.7-2.8-1.8-5.5-1.8-5.5 2 6.2-4.2 11.6-4.2 11.6 1.7-3.5.4-9.7.4-9.7-2.8 21-31.6 25.8-50.2 23.7-18.6-2.1-30.6-14-30.6-14 .1 2.8 1.8 4.5 1.8 4.5-16.6-9.7-16.2-26.8-16.2-26.8-5.5 3.7-2 12.6-2 12.6-6.8-7.9-3.8-19.2-3.8-19.2-4.8 5.2-4.4 8.7-4.4 8.7-2.8-6.6 1.6-13.2 1.6-13.2-13-1.9-10.2-14.1-10.2-14.1 2 6 7.6 6.4 7.6 6.4z" fill="#c5933c"/>
  <path class="st4" d="M85.7 126.6h-.3c.4-18.7 6.2-23.3 6.3-23.3l.2.2v.3c-1.1.2-2.1.6-2.9 1.1-.4.2-.7.4-.9.5-.2.1-.3.2-.3.2h-.3c-.1 0-.1-.1-.1-.2.8-7.6 4.6-9.8 4.6-9.8l.1.2v.2c-.4-.1-.9-.1-1.4-.1-1.1 0-2.3.2-3.2.4-.4.1-.8.2-1.1.3-.3.1-.4.1-.4.1-.1 0-.2 0-.3-.1-.1-.1-.1-.2-.1-.3 1-2.5 3.3-3.7 5.3-4.4 2-.6 3.8-.7 3.8-.7v.3l-.2.1c-2.3-3.9-3-8.7-3-12.5 0-2 .2-3.8.4-5.1.1-.6.2-1.2.3-1.5.1-.2.1-.3.2-.4l.1-.2s.1-.1.2-.1.2.1.3.1l.1.2v.3c0 1.4.5 2.8 1.1 3.7.3.5.6.9.8 1.1.1.1.2.2.2.3l.1.1-.2.4-.3.1c-.3-1.5-.5-3-.5-4.5 0-7.4 3.3-13.9 3.3-13.9.1-.1.2-.2.3-.1.1 0 .2.1.2.3v.1c0 3.6 2 7.9 5.1 12.3 9.4 13.2 29.5 27.8 37.8 31.3 11.2 4.8 16.3 11.6 16.3 11.6l-.2.2h-.3v-.3c0-1.7-1-3.9-2.1-5.7-.5-.9-1.1-1.6-1.4-2.2-.2-.3-.4-.5-.5-.6l-.2-.2c-.1-.1-.1-.2 0-.3.1-.1.2-.1.3 0 7 5 11.8 17.6 11.8 17.6l-.2.1-.2-.1c.5-1.5.7-3.4.7-5.2 0-1.2-.1-2.3-.1-3.1-.1-.8-.1-1.3-.1-1.3 0-.1 0-.2.1-.3.1 0 .2 0 .3.1 2.7 3.1 4.9 9.5 6.5 15.1 1.6 5.6 2.6 10.4 2.6 10.4h-.3l-.2-.1c1.6-2.3 3.7-8 5.3-13.1.8-2.5 1.6-4.9 2.1-6.7.5-1.8.8-2.9.8-2.9 0-.1.2-.2.3-.2.1 0 .2.2.2.3-.1.5-.2 1-.2 1.5 0 1.1.3 2.3.5 3.1.1.4.3.8.3 1 .1.3.2.4.2.4l-.2.1h-.1c0-2.8 1.5-7 3-10.5s3-6.4 3-6.4c.1-.1.2-.2.3-.1.1 0 .2.1.2.2 0 3.2-1.7 7.6-1.7 7.6l-.2-.1-.2-.2c2.2-2.1 4-5.7 5.2-8.7.6-1.5 1.1-2.9 1.4-3.9.3-1 .5-1.6.5-1.6l.2-.2.2.1c5.4 5.3 6.5 9.8 6.5 12.3 0 1.4-.3 2.2-.3 2.3 0 .1-.1.2-.3.2-.1 0-.2-.1-.2-.2-.5-2-1.8-3.9-2.9-5.2-.6-.7-1.1-1.3-1.5-1.6-.2-.2-.4-.3-.5-.4l-.2-.2.2-.2.2-.1c3.2 4.6 4 11.1 4 17.2 0 6.5-.9 12.6-.9 15.6v.6c.1 1.1.4 1.8.8 2.2.4.4 1.1.6 1.7.6.9 0 1.8-.3 2.6-.6.4-.1.7-.3.9-.4.2-.1.3-.2.3-.2.1-.1.2 0 .3 0 .1.1.1.2.1.3-.9 2.4-2.5 3.7-4 4.3-1.5.6-2.7.7-3 .7v-.3l.2-.1c.5 1.4 2 2.3 3.5 2.9.7.3 1.4.5 1.9.6.3.1.5.1.6.1h.2c.1 0 .2.1.2.2s0 .2-.1.3c-1.8 1.4-3.3 1.9-4.5 1.9-2 0-3.1-1.2-3.1-1.2l.2-.2.2-.1c1.3 1.9 1.8 3.8 1.8 5.5 0 3.3-1.6 5.9-1.6 5.9-.1.1-.2.1-.3.1-.1 0-.2-.2-.1-.3.1-.3.1-.6.1-1 0-1.1-.5-2.2-.9-3-.2-.4-.5-.7-.7-.9-.1-.1-.2-.2-.2-.3l-.1-.1.2-.2.2-.1c.3.9.4 1.7.4 2.6 0 5.2-4.7 9.2-4.7 9.3-.1.1-.2.1-.3 0-.1-.1-.1-.2-.1-.3.6-1.4.9-3.2.9-4.8 0-1.3-.1-2.4-.2-3.3-.1-.4-.1-.8-.2-1 0-.2-.1-.4-.1-.4h.6c-1.2 9.1-7.3 15.3-15.3 19.1-8 3.8-17.9 5.3-26.8 5.3-2.9 0-5.7-.2-8.3-.5-18.7-2.1-30.7-14-30.8-14l.2-.2h.3c.1 1.4.5 2.5.9 3.2.2.4.4.7.6.9.1.1.1.2.2.2l.1.1c.1.1.1.2 0 .3-.1.1-.2.1-.3.1-8-4.7-12.1-11-14.2-16.4-2.1-5.4-2.2-9.7-2.2-10.5v-.1h.3l.1.2c-2.3 1.5-3 4-3 6.4 0 1.5.3 3 .5 4.1.1.5.3 1 .4 1.3.1.3.2.5.2.5 0 .1 0 .3-.1.3-.1.1-.2 0-.3-.1-3.7-4.3-4.5-9.5-4.5-13.5 0-3.5.7-5.9.7-5.9l.2.1.2.2c-4 4.4-4.3 7.5-4.3 8.3v.2c0 .1-.1.2-.2.3-.1 0-.3 0-.3-.1-.7-1.6-1-3.3-1-4.8 0-4.8 2.6-8.6 2.6-8.6l.2.1v.3c-4.6-.7-7.3-2.6-8.8-4.9-1.5-2.3-1.9-4.8-1.9-6.7 0-1.6.3-2.8.3-2.8 0-.1.1-.2.2-.2s.2.1.3.2c.8 3 2.6 4.6 4.2 5.5.8.4 1.5.7 2.1.8.3.1.5.1.6.1H86.1l-.4-.2h-.3.3v.3s-1.5-.1-3.1-1c-1.7-.9-3.6-2.6-4.4-5.8l.2-.1.3.1v.2c-.1.4-.2 1.3-.2 2.5 0 1.8.3 4.3 1.8 6.4 1.4 2.1 4 4 8.4 4.7l.2.1v.2s0 .1-.1.2c-.5.8-2.4 4.1-2.4 8.2 0 1.5.3 3 .9 4.6l-.2.1h-.3v-.3c0-.9.3-4.2 4.5-8.7.1-.1.2-.1.3-.1.1.1.2.2.1.3 0 0 0 .1-.1.4-.2.8-.5 2.8-.5 5.4 0 3.9.8 9 4.4 13.1l-.2.2-.2.1s-1.1-2.8-1.1-6c0-2.5.7-5.2 3.2-6.9h.3c.1 0 .1.1.1.2v.1c0 .7.1 5.1 2.2 10.3 2.1 5.3 6.1 11.5 13.9 16.1l-.1.2-.2.2s-1.8-1.8-1.9-4.7c0-.1.1-.2.2-.2s.2 0 .3.1l.5.5c2.5 2.3 13.7 11.5 29.9 13.4 2.6.3 5.4.5 8.3.5 8.9 0 18.7-1.5 26.6-5.3 7.9-3.8 13.8-9.7 15-18.7 0-.1.1-.2.2-.2s.2.1.3.2c0 0 .5 2.3.5 4.8 0 1.7-.2 3.6-.9 5.1l-.2-.1-.2-.2.2-.2c.9-.8 4.4-4.4 4.3-8.7 0-.8-.1-1.6-.4-2.4 0-.1 0-.2.1-.3.1-.1.2 0 .3 0 0 0 2 2.1 2 4.7 0 .4 0 .7-.1 1.1l-.2-.1-.2-.1.1-.1c.3-.5 1.5-2.7 1.5-5.5 0-1.6-.4-3.5-1.7-5.2-.1-.1-.1-.3 0-.3.1-.1.3-.1.4 0 .1.1 1.1 1 2.8 1 1.1 0 2.5-.4 4.2-1.8l.2.2v.3s-1.3-.2-2.8-.8c-1.5-.6-3.1-1.6-3.7-3.2v-.2l.2-.1c.2 0 1.4 0 2.8-.6s2.9-1.7 3.7-4l.2.1.1.2s-2.1 1.2-4.1 1.2c-.7 0-1.5-.2-2.1-.7-.6-.5-.9-1.3-1-2.5v-.6c0-3.1.9-9.2.9-15.6 0-6.1-.8-12.5-3.9-16.9-.1-.1-.1-.3 0-.3.1-.1.2-.1.3 0 0 0 4 3.5 5.2 7.7l-.2.1-.2-.1c.1-.1.3-.9.3-2 0-2.4-.9-6.6-6.3-11.9l.2-.2.2.1s-.7 2.5-1.9 5.5-3 6.6-5.3 8.8c-.1.1-.2.1-.3 0-.1-.1-.1-.2-.1-.3 0 0 .1-.3.3-.7.5-1.4 1.4-4.4 1.4-6.7h.3l.2.1s-.4.7-.9 1.9c-.8 1.7-2.1 4.4-3.1 7.2s-1.9 5.6-1.9 7.6c0 .1-.1.2-.2.3-.1 0-.2 0-.3-.1 0 0-1-2.4-1.1-4.8 0-.5.1-1.1.2-1.6l.2.1.2.1s-1.3 4.5-2.9 9.6c-1.7 5.1-3.8 10.8-5.4 13.2-.1.1-.2.1-.3.1-.1 0-.2-.1-.2-.2 0 0-.2-1.2-.7-3.1-.7-2.9-1.8-7.3-3.2-11.6-1.4-4.3-3.2-8.4-5.1-10.6l.2-.2h.3s.3 2 .3 4.5c0 1.8-.2 3.8-.7 5.4 0 .1-.1.2-.2.2s-.2-.1-.2-.2c0 0-.1-.2-.2-.5-1-2.5-5.4-12.6-11.4-16.8l.1-.2.2-.2s1.1 1.3 2.1 3.1c1.1 1.8 2.2 4 2.2 5.9v.4c0 .1-.1.2-.2.2s-.2 0-.3-.1c0 0-.1-.1-.2-.3-1.1-1.3-6.2-7-15.9-11.2-5.6-2.4-16.4-9.7-25.8-18.2-4.7-4.3-9-8.8-12.2-13.3-3.2-4.4-5.2-8.8-5.2-12.6V60h.3l.2.1s0 .1-.1.3c-.6 1.3-3.1 7.1-3.1 13.4 0 1.4.1 2.9.4 4.4 0 .1 0 .2-.1.3-.1.1-.2 0-.3-.1 0 0-2.3-2.5-2.3-5.6v-.3h.1l-.1.1h.1l-.1.1.2-.1v.2l-.2-.1.2-.1v.2-.2l.1.1-.1.1v-.2l.1.1c-.1.2-.4 1.1-.5 2.3-.2 1.2-.3 2.8-.3 4.5 0 3.8.6 8.4 2.9 12.2v.3l-.2.1H95c-.7 0-2.4.2-4.1.9-1.7.7-3.4 1.8-4.2 3.8l-.2-.1-.1-.2s2.4-.9 4.8-.9c.5 0 1 0 1.5.1.1 0 .2.1.2.2s0 .2-.1.3c-.4.2-3.6 2.4-4.4 9.4h-.3l-.2-.2s2.1-1.5 4.4-1.9c.1 0 .2 0 .3.2 0 .1 0 .2-.1.3-.3.2-5.7 4.9-6.1 22.9l-.1.2-.2.1-.4-.6z"/>
  <path d="M184.5 146.9c1 .8 1.8 1.7 2.5 2.7.4-.8.9-1.4 1.6-1.9-.3.1-.6.1-1 .1h-.4c-1-.2-1.9-.5-2.7-.9zM159.9 131c.2 1 .3 2 .3 3v1c-.5 8-6 14.2-12.5 14.2h-.6c-3.2-.2-6.1-1.9-8.1-4.5s-3.2-6.1-3.2-10v-1.1c.1-1.8.5-3.5 1.1-5.1 2-5.4 6.4-9.1 11.4-9.1h.6c5.5.4 9.9 5.3 11 11.6zm-69.6-21c.1-.3.3-.6.4-.9-.2.6-.4.9-.4.9zm63.9 7.1s-3.3-3.6-9.4-3.6c-1.9 0-4.2.4-6.6 1.3 0 0 1.2-.3 3-.3 1.7 0 4 .3 6 1.4 0 0-10.6 3.4-12.5 12.9 0 0-.7-1-.1-4 0 0-3.4 4-2.2 10.8.9 5.1 1.7 6.2 2 6.4.1 0 .2.1.2.1s-.1 0-.1-.1c-.7-.2-3.5-1-6.7-1-1.6 0-3.3.2-4.8.8 0 0 3.8.2 8.6 1.6h.5c4.3 0 8.5 2.6 11.5 6.2 2.7 2.3 5 5.2 6.3 9 0 0 1-3.5-3.2-8.5h.6c2.4 0 10.9-.9 13.7-13.1 0 0 1.4 3-.5 7.3-.3.7-.3 1-.1 1 1 0 6.9-9 0-22.7 0 0 5.1 3.9 5.9 7.8.2.8.4 1.1.5 1.1.7 0 1.2-5.2 0-9.2 0 0 6.3 13.5 4.9 18.6 0 0-13.9 3-15 16-1 13 8.9 14 11 14.4 1.4.3-5.6 2.6-12.2 2.6-3.1 0-6.1-.5-8.1-1.9 0 0-.7 3.3 11.8 4 0 0-2.9.5-7.5.5-10.5 0-29.6-2.5-40.6-18.7 0 0-.5 3 2.5 6.5 0 0-14.2-8.7-14.5-27.6 0 0-3.8 3.9-4.6 8 0 0-1.6-9.3 4.7-16.1 0 0-5.9 2.9-7.1 6 0 0-.2-3.2 1.3-5 0 0-1.2.5-3.1.5-1.8 0-4.3-.5-6.9-2.4 0 0 1 .2 2.2.2 1.7 0 3.9-.4 4.8-2.2 0 0-2-11.8 5.7-21.4 0 0-3.8 1.3-5.6 4.6 1.7-3.6 8.6-16.9 18.1-21.1-.2 0-4.9.1-11.6 6.5 0 0 1.9-4.1 5.6-6 0 0-1-.2-2.1-.2-.8 0-1.8.1-2.4.6.1.2 0 .3-.1.3-1.6 0-4.1-7.2-4.1-9.7 0 0 2.7 5 5.6 5.6 0 0-3.7-9.5-1.9-18.4 0 0 6.1 13.3 16.6 21.9 10.6 8.6 17.6 14 29.5 19.6 11.9 5.6 10.5 9.1 10.5 9.1zM97.7 60.9c-.9 2.1-2.8 7.2-2.8 12.7 0 1.4.1 2.9.4 4.4 0 .1 0 .2-.1.3h-.1c-.1 0-.1 0-.2-.1 0 0-2-2.2-2.3-5-.1.4-.2.9-.3 1.5-.2 1.2-.3 2.8-.3 4.5 0 3.8.6 8.4 2.9 12.2v.3l-.2.1h-.3c-.7 0-2.4.2-4.1.9-1.6.6-3.1 1.6-4 3.3.9-.3 2.6-.7 4.3-.7.5 0 1 0 1.5.1.1 0 .2.1.2.2s0 .2-.1.3c-.4.2-3.5 2.3-4.3 8.8.7-.5 2.3-1.3 4-1.6.1 0 .2.1.2.2s0 .2-.1.3c-.3.2-5.7 4.9-6.1 22.9l-.1.2-.2.1s-1.5-.1-3.1-1c-1.5-.8-3.1-2.2-4.1-4.7 0 .4-.1 1-.1 1.6 0 1.8.3 4.3 1.8 6.4 1.4 2.1 4 4 8.4 4.7l.2.1v.2s0 .1-.1.2c-.5.8-2.4 4.1-2.4 8.2 0 1.1.1 2.3.5 3.5.3-1.5 1.2-4.2 4.4-7.7 0-.1.1-.1.2-.1h.1c.1.1.2.2.1.3 0 0 0 .1-.1.4-.2.8-.5 2.8-.5 5.4 0 3.5.7 8.1 3.5 12-.3-1.1-.7-2.8-.7-4.6 0-2.5.7-5.2 3.2-6.9h.3c.1 0 .1.1.1.2v.1c0 .7.1 5.1 2.2 10.3 2 5 5.7 10.9 12.8 15.4-.5-.8-1-2-1.1-3.6 0-.1.1-.2.2-.2h.1c.1 0 .1 0 .2.1l.5.5c2.5 2.3 13.7 11.5 29.9 13.4 2.6.3 5.4.5 8.3.5 8.9 0 18.7-1.5 26.6-5.3.7-.4 1.5-.7 2.2-1.1-.3-.5-.6-1.1-1-1.6-2.1-1.5-5.8-3.6-10.2-3.7-7-.1-13.8-9.5-7.6-19.7 4-6.6 10.7-7.7 14.9-7.7 2.3 0 3.9.3 3.9.3-1.6-3.9-.8-7.1.1-8.9.1-1.2.4-2.4.7-3.4.7-2.2 1.8-4.1 3.2-5.4 1.4-1.3 3.1-2.1 4.9-2.1h.4c2 .1 3.8 1.2 5.2 3 1.4 1.7 2.3 4 2.7 6.7.1.8.2 1.6.2 2.5v.8c-.2 3.3-1.2 6.2-2.8 8.3-.4.5-.8 1-1.3 1.4.7-.2 1.3-.3 1.7-.4.3-.1.5-.1.7-.2-.6 0-1-.2-.8-.6.7-1.3 4.7-6.1 2.9-16.5-1.3-7.5-6.4-9.1-8.1-9.1-.6 0-.8.2.1.4 2.9.8 4.2 4.2 4.2 4.2-2-2.2-5.2-2.5-7-2.5-.9 0-1.4.1-1.4.1.3-2.5 2.4-6.6 2.4-6.6l.3.8c4.8-2.8 6.6-7.8 6.6-7.8 3.3 2.3 4.4 10.2 4.4 10.2l-1.7-1.7c2.8 7.9 1.1 21.5 1.1 24.3 0 2.7 2.6 3.1 2.6 3.1-.8.7-3.4 1.4-5 1.6v.2c-.1.2-.2.2-.2.2-.1.1-.3.1-.6.2-.8.2-2.3.4-3.7 1.1-.3.2-.6.3-.9.5-1.1.6-2.1 1.5-2.7 2.8.2.3.4.6.5.9.3-.7 1.9-3.7 6.1-4.1h.5c4.1 0 1.5 6.5-2.3 7.8-1 .3-1.8.5-2.5.6.4 1.6.6 3.2.6 4.9 0 1.7-.2 3.5-.7 5.2 1.2-2.2 2.1-4.8 2.4-7.6 0-.1.1-.2.2-.2s.2.1.3.2c0 0 .5 2.3.5 4.8 0 1.3-.1 2.7-.5 3.9 1.3-1.4 3.7-4.5 3.7-8.1 0-.8-.1-1.6-.4-2.4 0-.1 0-.2.1-.3h.1c.1 0 .1 0 .2.1 0 0 1.9 2 2 4.4.4-1 1-2.6 1-4.4 0-1.6-.4-3.5-1.7-5.2-.1-.1-.1-.3 0-.3 0 0 .1-.1.2-.1s.1 0 .2.1 1.1 1 2.8 1c1 0 2.3-.3 3.8-1.4-.5-.1-1.4-.3-2.2-.7-1.5-.6-3.1-1.6-3.7-3.2v-.2l.2-.1c.2 0 1.4 0 2.8-.6 1.2-.5 2.6-1.5 3.4-3.4-.8.3-2.1.9-3.5.9-.7 0-1.5-.2-2.1-.7-.6-.5-.9-1.3-1-2.5v-.6c0-3.1.9-9.2.9-15.6 0-6.1-.8-12.5-3.9-16.9-.1-.1-.1-.3 0-.3 0 0 .1-.1.2-.1s.1 0 .2.1c0 0 3.5 3.1 4.9 6.9.1-.3.1-.7.1-1.2 0-2.3-.9-6.5-6-11.6-.2.8-.9 2.8-1.8 5.1-1.2 3-3 6.6-5.3 8.8 0 0-.1.1-.2.1h-.1c-.1-.1-.1-.2-.1-.3 0 0 .1-.3.3-.7.4-1.1 1.1-3.4 1.3-5.4-.1.2-.2.5-.4.7-.8 1.7-2.1 4.4-3.1 7.2s-1.9 5.6-1.9 7.6c0 .1-.1.2-.2.3h-.1c-.1 0-.2-.1-.2-.2 0 0-.8-1.9-1-4-.5 1.8-1.3 4.5-2.3 7.3-1.7 5.1-3.8 10.8-5.4 13.2 0 .1-.1.1-.2.1s-.2-.1-.2-.2c0 0-.2-1.2-.7-3.1-.7-2.9-1.8-7.3-3.2-11.6-1.3-3.9-2.9-7.6-4.6-9.9.1.8.2 2.1.2 3.6 0 1.8-.2 3.8-.7 5.4 0 .1-.1.2-.2.2s-.2-.1-.2-.2c0 0-.1-.2-.2-.5-.9-2.2-4.7-10.8-9.8-15.5.3.4.6.9.9 1.4 1.1 1.8 2.2 4 2.2 5.9v.4c0 .1-.1.2-.2.2h-.1c-.1 0-.2 0-.2-.1 0 0-.1-.1-.2-.3-1.1-1.3-6.2-7-15.9-11.2-5.6-2.4-16.4-9.7-25.8-18.2-4.7-4.3-9-8.8-12.2-13.3-3-4.3-5-8.3-5.3-11.8z" fill="#b47a33"/>
  <path d="M97.9 59.8c-.1 14.8 31.9 39.1 43 43.9 11.1 4.8 16.2 11.6 16.2 11.6.3-3.7-4.2-9.2-4.2-9.2 6.9 4.9 11.7 17.5 11.7 17.5 1.3-3.5.4-9.7.4-9.7 5.2 6.1 9 25.4 9 25.4 3.2-4.8 8.3-22.7 8.3-22.7-.7 2.7.8 6.2.8 6.2 0-5.4 5.9-16.8 5.9-16.8 0 3.1-1.7 7.5-1.7 7.5 4.5-4.4 7.2-14.2 7.2-14.2 8.5 8.3 6.1 14.2 6.1 14.2-1.1-4.1-5.1-7.6-5.1-7.6 6.8 9.6 2.8 27.9 3.1 33.3.1 2.3 1.4 3 2.8 3 1.9 0 4-1.1 4-1.1-1.7 4.7-6.2 4.8-6.7 4.8 1.1 3 6.3 3.8 6.3 3.8-1.7 1.4-3.2 1.8-4.4 1.8-1.9 0-3-1.1-3-1.1 3.8 5.4.1 11.1.1 11.1.7-2.8-1.8-5.5-1.8-5.5 2 6.2-4.2 11.6-4.2 11.6 1.7-3.5.4-9.7.4-9.7-.4 3.2-1.5 6.1-3 8.6.1-.3.2-.7.3-1 1.2-2.2 2.1-4.8 2.4-7.6 0-.1.1-.2.2-.2s.2.1.3.2c0 0 .5 2.3.5 4.8 0 1.3-.1 2.7-.5 3.9 1.3-1.4 3.7-4.5 3.7-8.1 0-.8-.1-1.6-.4-2.4 0-.1 0-.2.1-.3h.1c.1 0 .1 0 .2.1 0 0 1.9 2 2 4.4.4-1 1-2.6 1-4.4 0-1.6-.4-3.5-1.7-5.2-.1-.1-.1-.3 0-.3 0 0 .1-.1.2-.1s.1 0 .2.1 1.1 1 2.8 1c1 0 2.3-.3 3.8-1.4-.5-.1-1.4-.3-2.2-.7-1.5-.6-3.1-1.6-3.7-3.2v-.2l.2-.1c.2 0 1.4 0 2.8-.6 1.2-.5 2.6-1.5 3.4-3.4-.8.3-2.1.9-3.5.9-.7 0-1.5-.2-2.1-.7-.6-.5-.9-1.3-1-2.5v-.6c0-3.1.9-9.2.9-15.6 0-6.1-.8-12.5-3.9-16.9-.1-.1-.1-.3 0-.3 0 0 .1-.1.2-.1s.1 0 .2.1c0 0 3.5 3.1 4.9 6.9.1-.3.1-.7.1-1.2 0-2.3-.9-6.5-6-11.6-.2.8-.9 2.8-1.8 5.1-1.2 3-3 6.6-5.3 8.8 0 0-.1.1-.2.1h-.1c-.1-.1-.1-.2-.1-.3 0 0 .1-.3.3-.7.4-1.1 1.1-3.4 1.3-5.4-.1.2-.2.5-.4.7-.8 1.7-2.1 4.4-3.1 7.2s-1.9 5.6-1.9 7.6c0 .1-.1.2-.2.3h-.1c-.1 0-.2-.1-.2-.2 0 0-.8-1.9-1-4-.5 1.8-1.3 4.5-2.3 7.3-1.7 5.1-3.8 10.8-5.4 13.2 0 .1-.1.1-.2.1s-.2-.1-.2-.2c0 0-.2-1.2-.7-3.1-.7-2.9-1.8-7.3-3.2-11.6-1.3-3.9-2.9-7.6-4.6-9.9.1.8.2 2.1.2 3.6 0 1.8-.2 3.8-.7 5.4 0 .1-.1.2-.2.2s-.2-.1-.2-.2c0 0-.1-.2-.2-.5-.9-2.2-4.7-10.8-9.8-15.5.3.4.6.9.9 1.4 1.1 1.8 2.2 4 2.2 5.9v.4c0 .1-.1.2-.2.2h-.1c-.1 0-.2 0-.2-.1 0 0-.1-.1-.2-.3-1.1-1.3-6.2-7-15.9-11.2-5.6-2.4-16.4-9.7-25.8-18.2-4.7-4.3-9-8.8-12.2-13.3-2.9-4.1-4.8-8-5.2-11.6-.9 2.1-2.8 7.2-2.8 12.7 0 1.4.1 2.9.4 4.4 0 .1 0 .2-.1.3H95c-.1 0-.1 0-.2-.1 0 0-2-2.2-2.3-5-.1.4-.2.9-.3 1.5-.2 1.2-.3 2.8-.3 4.5 0 3.8.6 8.4 2.9 12.2v.3l-.2.1h-.3c-.7 0-2.4.2-4.1.9-1.6.6-3.1 1.6-4 3.3.9-.3 2.6-.7 4.3-.7.5 0 1 0 1.5.1.1 0 .2.1.2.2s0 .2-.1.3c-.4.2-3.5 2.3-4.3 8.8.7-.5 2.3-1.3 4-1.6.1 0 .2.1.2.2s0 .2-.1.3c-.3.2-5.7 4.9-6.1 22.9l-.1.2-.2.1s-1.5-.1-3.1-1c-1.5-.8-3.1-2.2-4.1-4.7 0 .4-.1 1-.1 1.6 0 1.8.3 4.3 1.8 6.4 1.4 2.1 4 4 8.4 4.7l.2.1v.2s0 .1-.1.2c-.5.8-2.4 4.1-2.4 8.2 0 1.1.1 2.3.5 3.5.3-1.5 1.2-4.2 4.4-7.7 0-.1.1-.1.2-.1h.1c.1.1.2.2.1.3 0 0 0 .1-.1.4-.2.8-.5 2.8-.5 5.4 0 3.5.7 8.1 3.5 12-.3-1.1-.7-2.8-.7-4.6 0-2.5.7-5.2 3.2-6.9h.3c.1 0 .1.1.1.2v.1c0 .7.1 5.1 2.2 10.3 2 5 5.7 10.9 12.8 15.4-.5-.8-1-2-1.1-3.6 0-.1.1-.2.2-.2h.1c.1 0 .1 0 .2.1l.5.5c2.5 2.3 13.7 11.5 29.9 13.4 2.6.3 5.4.5 8.3.5 8.9 0 18.7-1.5 26.6-5.3.7-.4 1.5-.7 2.2-1.1 0 .1.1.2.1.2-8.3 4.6-19.1 6.4-28.9 6.4-2.9 0-5.7-.2-8.3-.5-18.6-2.1-30.6-14-30.6-14 .1 2.8 1.8 4.5 1.8 4.5-16.6-9.7-16.2-26.8-16.2-26.8-5.5 3.7-2 12.6-2 12.6-6.8-7.9-3.8-19.2-3.8-19.2-4.8 5.2-4.4 8.7-4.4 8.7-2.8-6.6 1.6-13.2 1.6-13.2-13-1.9-10.2-14.1-10.2-14.1 1.7 6.2 7.3 6.6 7.3 6.6.4-18.6 6.2-23.1 6.2-23.1-2.3.4-4.3 1.9-4.3 1.9.8-7.5 4.5-9.6 4.5-9.6-.5-.1-1-.1-1.5-.1-2.3 0-4.7.9-4.7.9 1.9-4.7 8.8-4.9 8.8-4.9-4.7-8-2.5-19.4-2-19.4.1 0 .1.1.1.4 0 3 2.3 5.5 2.3 5.5-1.7-9.2 3-18.6 3-18.6z" fill="#684924"/>
  <path d="M189.2 106s-5.9 11.4-5.9 16.8c0 0-1.6-3.5-.8-6.2 0 0-5.1 17.9-8.3 22.7 0 0-3.8-19.3-9-25.4 0 0 .8 6.2-.4 9.7 0 0-4.8-12.6-11.7-17.5 0 0 4.5 5.5 4.2 9.2 0 0-5.1-6.8-16.2-11.6s-43.2-29.1-43-43.9c5.3 10.9 25.2 19 25.2 19 19-5.8 47.4 1.3 47.4 1.3 13.1-6.4 14.3-27.6 14.3-27.6 9.3 11.3 6.1 24.4 6.1 24.4 2.4-2.1 2-10.7 2-10.7 8.3 23 1.8 33 1.8 33s-2.7 9.9-7.2 14.2c-.2.1 1.5-4.3 1.5-7.4z" fill="#925e2f"/>
  <path class="st4" d="M189.2 106l.2.1s-.4.7-.9 1.9c-.8 1.7-2.1 4.4-3.1 7.2s-1.9 5.6-1.9 7.6c0 .1-.1.2-.2.3-.1 0-.2 0-.3-.1 0 0-1-2.4-1.1-4.8 0-.5.1-1.1.2-1.6l.2.1.2.1s-1.3 4.5-2.9 9.6c-1.7 5.1-3.8 10.8-5.4 13.2-.1.1-.2.1-.3.1-.1 0-.2-.1-.2-.2 0 0-.2-1.2-.7-3.1-.7-2.9-1.8-7.3-3.2-11.6-1.4-4.3-3.2-8.4-5.1-10.6l.2-.2h.3s.3 2 .3 4.5c0 1.8-.2 3.8-.7 5.4 0 .1-.1.2-.2.2s-.2-.1-.2-.2c0 0-.1-.2-.2-.5-1-2.5-5.4-12.6-11.4-16.8l.1-.2.2-.2s1.1 1.3 2.1 3.1c1.1 1.8 2.2 4 2.2 5.9v.4c0 .1-.1.2-.2.2s-.2 0-.3-.1c0 0-.1-.1-.2-.3-1.1-1.3-6.2-7-15.9-11.2-5.6-2.4-16.4-9.7-25.8-18.2-4.7-4.3-9-8.8-12.2-13.3-3.2-4.4-5.2-8.8-5.2-12.6V60c0-.1.1-.2.2-.2s.2 0 .3.1c2.6 5.4 8.9 10.1 14.5 13.5 2.8 1.7 5.5 3 7.4 4 1 .5 1.8.8 2.3 1.1.6.2.9.4.9.4l-.1.2-.1-.2c5.5-1.7 11.9-2.3 18-2.3 15.1 0 29.5 3.6 29.5 3.6l-.1.2-.1-.2c6.4-3.1 10-10 11.9-16 1-3 1.5-5.9 1.8-7.9.2-1 .3-1.9.3-2.5.1-.6.1-.9.1-.9 0-.1.1-.2.2-.2s.2 0 .3.1c5.5 6.7 6.7 14.1 6.7 19 0 3.4-.6 5.6-.6 5.7l-.3-.1-.2-.2c.8-.7 1.3-2.3 1.6-4.1.3-1.8.3-3.7.3-4.9v-1.5c0-.1.1-.2.2-.3.1 0 .3 0 .3.2 3.3 9 4.3 16 4.3 21.3 0 8.2-2.4 11.9-2.4 12l-.2-.1.2.1s-.7 2.5-1.9 5.5-3 6.6-5.3 8.8c-.1.1-.2.1-.3 0-.1-.1-.1-.2-.1-.3 0 0 .1-.3.3-.7.5-1.4 1.4-4.4 1.4-6.7h.3l.2.1-.2-.6h.3c0 3.2-1.7 7.6-1.7 7.6l-.2-.1-.2-.2c2.2-2.1 4-5.7 5.2-8.7.6-1.5 1.1-2.9 1.4-3.9.3-1 .5-1.6.5-1.6V99c.2-.4 2.3-4.1 2.3-11.6 0-5.2-1-12.1-4.2-21.1l.2-.1h.3v1.5c0 1.3-.1 3.2-.3 5-.3 1.8-.8 3.5-1.7 4.4-.1.1-.2.1-.3 0-.1-.1-.1-.2-.1-.3 0 0 0-.1.1-.4.2-.8.5-2.6.5-5.2 0-4.8-1.1-12-6.6-18.6l.2-.2h.3s-.3 5.3-2.3 11.5c-2 6.1-5.5 13.1-12.2 16.4h-.2s-.9-.2-2.5-.6c-4.7-1-15.6-3-26.9-3-6.1 0-12.4.6-17.9 2.3h-.2s-5-2-10.7-5.4c-5.7-3.4-12-8.2-14.7-13.7l.2-.1h.3v.1c0 3.6 2 7.9 5.1 12.3 9.4 13.2 29.5 27.8 37.8 31.3 11.2 4.8 16.3 11.6 16.3 11.6l-.2.2h-.3v-.3c0-1.7-1-3.9-2.1-5.7-.5-.9-1.1-1.6-1.4-2.2-.2-.3-.4-.5-.5-.6l-.2-.2c-.1-.1-.1-.2 0-.3.1-.1.2-.1.3 0 7 5 11.8 17.6 11.8 17.6l-.2.1-.2-.1c.5-1.5.7-3.4.7-5.2 0-1.2-.1-2.3-.1-3.1-.1-.8-.1-1.3-.1-1.3 0-.1 0-.2.1-.3.1 0 .2 0 .3.1 2.7 3.1 4.9 9.5 6.5 15.1 1.6 5.6 2.6 10.4 2.6 10.4h-.3l-.2-.1c1.6-2.3 3.7-8 5.3-13.1.8-2.5 1.6-4.9 2.1-6.7.5-1.8.8-2.9.8-2.9 0-.1.2-.2.3-.2.1 0 .2.2.2.3-.1.5-.2 1-.2 1.5 0 1.1.3 2.3.5 3.1.1.4.3.8.3 1l.2.4-.2.1h-.1c0-2.8 1.5-7 3-10.5s3-6.4 3-6.4c.1-.1.2-.2.3-.1.1 0 .2.1.2.2h-.3zM106.8 88.8s-.1.1-.4.3c-1.9 1.2-9.7 6.5-15 15.3-.1.1-.2.2-.4.1-.1-.1-.2-.2-.1-.4 6.1-10.2 15.6-15.7 15.6-15.7.1-.1.3 0 .4.1.1.1 0 .3-.1.3z"/>
  <path class="st4" d="M186.6 88.9c-.4-.6-3.9-5.2-16.1-8.5-.1 0-.2-.2-.2-.3 0-.1.2-.2.3-.2 13.1 3.6 16.4 8.7 16.4 8.8.1.1 0 .3-.1.4-.1 0-.2-.1-.3-.2z"/>
  <path class="st29" d="M147.9 123.4c5.9.3 9.7 3.6 11.8 7.6-1-6.3-5.4-11.1-10.9-11.4-5.1-.3-9.7 3.4-11.8 8.9 2.4-2.6 6.1-5.3 10.9-5.1z"/>
  <path class="st4" d="M147.9 123.4v-.3c6 .3 9.9 3.7 12 7.8l-.2.1h-.3c-1-6.2-5.3-10.9-10.6-11.2h-.6c-4.8 0-9 3.6-10.9 8.8l-.2-.1-.2-.2c2.3-2.6 5.8-5.3 10.5-5.3h.6l-.1.4v.3h-.6c-4.4 0-7.8 2.5-10.1 5.1-.1.1-.2.1-.3 0-.1-.1-.2-.2-.1-.3 2-5.4 6.4-9.1 11.4-9.1h.6c5.6.3 10.1 5.3 11.1 11.6 0 .1-.1.2-.2.3-.1 0-.3 0-.3-.1-2-3.9-5.7-7.2-11.6-7.5l.1-.3z"/>
  <path class="st30" d="M159.6 131.1c-2-4-5.8-7.3-11.8-7.6-4.8-.2-8.5 2.5-10.9 5.2-.6 1.6-.9 3.2-1.1 5-.5 8.1 4.5 15 11.1 15.3 6.6.4 12.3-5.9 12.8-13.9.2-1.4.1-2.8-.1-4z"/>
  <path class="st31" d="M159.6 131.1l-.2.1c-2-3.9-5.7-7.2-11.6-7.5h-.6c-4.4 0-7.8 2.5-10.1 5.1l-.2-.2.2.1c-.6 1.5-.9 3.2-1 5v1.1c0 3.8 1.2 7.2 3.1 9.7 2 2.5 4.7 4.1 7.7 4.3h.6c6.2 0 11.5-6 12-13.7v-1c0-1-.1-2-.2-2.9l.3-.1-.2.1.2-.1h.3c.2 1 .3 2 .3 3v1c-.5 8-6 14.2-12.5 14.2h-.6c-3.2-.2-6.1-1.9-8.1-4.5s-3.2-6.1-3.2-10v-1.1c.1-1.8.5-3.5 1.1-5.1l.1-.1c2.3-2.6 5.8-5.3 10.5-5.3h.6c6 .3 9.9 3.7 12 7.8v.1h-.5z"/>
  <path class="st29" d="M147.9 123.4c5.9.3 9.7 3.6 11.8 7.6-1-6.3-5.4-11.1-10.9-11.4-5.1-.3-9.7 3.4-11.8 8.9 2.4-2.6 6.1-5.3 10.9-5.1z"/>
  <path class="st4" d="M147.9 123.4v-.3c6 .3 9.9 3.7 12 7.8l-.2.1h-.3c-1-6.2-5.3-10.9-10.6-11.2h-.6c-4.8 0-9 3.6-10.9 8.8l-.2-.1-.2-.2c2.3-2.6 5.8-5.3 10.5-5.3h.6l-.1.4v.3h-.6c-4.4 0-7.8 2.5-10.1 5.1-.1.1-.2.1-.3 0-.1-.1-.2-.2-.1-.3 2-5.4 6.4-9.1 11.4-9.1h.6c5.6.3 10.1 5.3 11.1 11.6 0 .1-.1.2-.2.3-.1 0-.3 0-.3-.1-2-3.9-5.7-7.2-11.6-7.5l.1-.3z"/>
  <path class="st32" d="M157.2 138.5c-.4 5.2-4.3 9.1-8.6 8.7-4.3-.4-7.5-4.9-7.1-10.1.4-5.2 4.3-9.1 8.6-8.7 4.3.3 7.5 4.9 7.1 10.1z"/>
  <path class="st33" d="M141.5 138.9c.1 1.4.5 2.7 1.1 3.8 1 1.1 2.2 1.9 3.5 2.4-1.7-1-2.9-2.7-3.5-4.8-.2.2-.5.4-.7.5-.2-.6-.3-1.2-.4-1.9zm15.7-1.3v.9c0 .6-.1 1.1-.3 1.7 0-.4-.1-.8-.2-1.2-.3 1.8-1 3.4-2 4.6.7-.6 1.3-1.2 1.8-1.9.4-1 .6-2 .7-3.1v-1zm-7.7-9.3h.6c-.2.1-.4 0-.6 0zm0 0z"/>
  <path class="st34" d="M155 140.4c-.7 3.2-3.5 5.2-6.1 4.6-2.7-.6-4.2-3.7-3.5-6.9.7-3.2 3.5-5.3 6.1-4.6 2.7.6 4.2 3.7 3.5 6.9z"/>
  <path class="st30" d="M149.5 128.3c-4.1 0-7.6 3.8-8 8.7v0c.4-4.9 3.9-8.7 8-8.7zm0 0z"/>
  <path class="st35" d="M149.6 129.2h.6c4 .3 7 4.4 6.6 9 0 .2 0 .4-.1.6-.2-.8-.6-1.5-1-2-.3-.3-.6-.6-1-.8.6-.6.9-1.6.8-2.7-.2-1.4-1.3-2.4-2.5-2.4h-.4c-1 .2-1.8 1.2-1.9 2.3-1.9 0-3.7 1.3-4.6 3.3-.1.1-.2.1-.2.2-1.2.9-2 2.5-3.1 3.5-.3-1-.4-2.1-.3-3.3.1-4.3 3.4-7.7 7.1-7.7z"/>
  <path class="st36" d="M149.5 128.3h.6c4.1.4 7.1 4.4 7.2 9.2v.9c0 .6-.1 1.1-.3 1.7 0-.4-.1-.8-.2-1.2 0-.2.1-.4.1-.6.4-4.6-2.6-8.7-6.6-9h-.6c-3.8 0-7 3.4-7.4 7.8-.1 1.2 0 2.3.3 3.3-.2.2-.5.4-.7.5-.2-.6-.3-1.3-.3-1.9v-.9-.9c.3-5.1 3.8-8.9 7.9-8.9z"/>
  <path class="st37" d="M150.6 133.4c0 .3 0 .6.1 1 .1.3.2.7.3 1h-.1c-1.7 0-3.6.4-4.9 1.3.9-2 2.7-3.3 4.6-3.3z"/>
  <path class="st38" d="M156.7 124.1c-6.7-4.1-11.7-3.6-15.2-2-1.9 1.6-3.5 3.8-4.5 6.4 2.4-2.7 6-5.4 10.9-5.2 5.9.3 9.7 3.6 11.8 7.6-.5-2.5-1.6-4.9-3-6.8z"/>
  <path class="st39" d="M142.2 124.9c-.9 1.1-1.6 2.3-2.1 3.7-.5 1.3-.8 2.7-.9 4.2-.2 4 1.1 7.6 3.3 10 1.2 2.5 3.4 4.2 6.1 4.4h.6c3.2 0 6-2.3 7.3-5.6 1.5-2 2.5-4.7 2.7-7.6.1-1.1 0-2.2-.2-3.3v-.2c.1.2.3.5.4.7.2.9.2 1.9.2 2.9v1c-.5 7.7-5.8 13.7-12 13.7h-.6c-3.1-.2-5.8-1.8-7.7-4.3-2-2.5-3.1-5.9-3.1-9.7v-1.1c.1-1.7.5-3.4 1-4.9l.1-.1c1.3-1.5 2.9-2.9 4.9-3.8z"/>
  <path class="st40" d="M137.3 128.7s-.1 0 0 0c-.1.2-.2.2-.3.2h-.1c-.5 1.5-.9 3.1-1 4.8-.5 8.1 4.5 15 11.1 15.3h.6c6.3 0 11.8-6.1 12.2-14 .1-1.3 0-2.5-.2-3.7-.1 0-.2-.1-.2-.1-.1-.2-.3-.5-.4-.7.1.2.3.5.4.7.2.9.2 1.9.2 2.9v1c-.5 7.7-5.8 13.7-12 13.7h-.6c-3.1-.2-5.8-1.8-7.7-4.3-2-2.5-3.1-5.9-3.1-9.7v-1.1c.1-1.8.5-3.5 1.1-5zm4.9-3.8c-2 1-3.6 2.4-4.9 3.8 1.3-1.5 2.9-2.9 4.9-3.8z"/>
  <path class="st41" d="M158.8 129.7c.1.2.1.5.2.7.1.2.3.5.4.7 0 .1.1.1.2.1v-.3s0-.1-.1-.1c-.2-.3-.4-.7-.7-1.1zm-16.2-5.3c-1.8.8-3.4 2-4.7 3.2l-.9.9c0 .1-.1.2-.1.2h.1c.1 0 .1 0 .2-.1l.1-.1c1.3-1.4 2.9-2.8 4.9-3.8.1 0 .2-.1.4-.3z"/>
  <path class="st42" d="M154.7 143.5c-1.4 1.6-3.2 2.6-5.2 2.6h-.6c-1-.1-2-.4-2.8-.9.8.3 1.6.5 2.4.5h.5c2.1-.1 4-.8 5.7-2.2z"/>
  <path class="st43" d="M156.5 141.6c-1.3 3.3-4.1 5.6-7.3 5.6h-.6c-2.6-.2-4.8-2-6.1-4.4 1 1.1 2.2 1.9 3.5 2.4.8.5 1.8.8 2.8.9h.6c2 0 3.9-1 5.2-2.6.7-.5 1.4-1.2 1.9-1.9z"/>
  <path class="st44" d="M159.6 130.9s0 .1.1.1c-.1 0-.1 0-.1-.1zm-21.7-3.2l-.9.9.9-.9z"/>
  <path class="st45" d="M154.6 136.2z"/>
  <path class="st46" d="M150.9 135.3c.8 0 1.6.1 2.3.3.4.1.9.3 1.4.5-.3.3-.7.5-1.1.6h-.4c-.9.1-1.7-.5-2.2-1.4z"/>
  <path class="st47" d="M152.9 131c1.2 0 2.2 1 2.5 2.4.2 1.1-.1 2.1-.8 2.7-.6-1.3-1.7-2.3-3.1-2.6-.3-.1-.6-.1-.9-.1.1-1.2.9-2.1 1.9-2.3.2-.1.3-.1.4-.1z"/>
  <path class="st48" d="M150.6 133.4c.3 0 .6 0 .9.1 1.4.3 2.5 1.3 3.1 2.6-.5-.2-.9-.4-1.4-.5-.7-.2-1.5-.3-2.3-.3-.1-.3-.3-.6-.3-1v-.9z"/>
  <path class="st45" d="M155.2 138.3c.6.3 1 1.1.8 1.9-.1.8-.7 1.4-1.4 1.5.2-.4.3-.8.4-1.3.2-.7.2-1.4.2-2.1z"/>
  <path class="st46" d="M154.5 138.1h.3c.1 0 .3.1.4.1.1.7 0 1.4-.2 2.1-.1.5-.3.9-.4 1.3h-.5c-.9-.2-1.4-1.1-1.2-2.1.1-.7.8-1.4 1.6-1.4z"/>
  <path class="st29" d="M187.8 126.3c4.2.2 6.9 3 8.3 6.3-.7-5.2-3.8-9.1-7.7-9.4-3.6-.2-6.9 2.8-8.3 7.4 1.7-2.2 4.3-4.5 7.7-4.3z"/>
  <path class="st4" d="M187.8 126.3v-.3c4.3.3 7.1 3.1 8.5 6.5l-.2.1h-.3c-.4-2.5-1.3-4.8-2.6-6.4-1.3-1.6-3-2.6-4.8-2.8h-.4c-1.7 0-3.2.7-4.5 2-1.3 1.3-2.4 3.1-3.1 5.2l-.2-.1-.2-.2c1.6-2.1 4.1-4.4 7.4-4.4h.4v.7h-.4c-3.1 0-5.4 2.1-7 4.2-.1.1-.2.1-.3.1-.1-.1-.2-.2-.1-.3.7-2.2 1.8-4.1 3.2-5.4 1.4-1.3 3.1-2.1 4.9-2.1h.4c2 .1 3.8 1.2 5.2 3 1.4 1.7 2.3 4 2.7 6.7 0 .1-.1.2-.2.3-.1 0-.3 0-.3-.1-1.4-3.3-4-5.9-8.1-6.2v-.5z"/>
  <path class="st30" d="M196.1 132.6c-1.4-3.3-4.1-6.1-8.3-6.3-3.4-.2-6 2.1-7.7 4.3-.4 1.3-.7 2.7-.7 4.2-.3 6.7 3.2 12.4 7.8 12.7 4.7.3 8.7-4.8 9-11.5.1-1.2 0-2.3-.1-3.4z"/>
  <path class="st31" d="M196.1 132.6l-.2.1c-1.4-3.3-4-5.9-8.1-6.2h-.4c-3.1 0-5.4 2.1-7 4.2l-.2-.2.2.1c-.4 1.3-.7 2.6-.7 4.1v.9c0 3.1.8 5.9 2.2 8 1.4 2.1 3.3 3.4 5.4 3.5h.4c2.1 0 4.1-1.2 5.7-3.2 1.5-2 2.5-4.9 2.7-8.1v-.8c0-.8-.1-1.6-.2-2.4h.2l-.2.1.2-.1h.3c.1.8.2 1.6.2 2.5v.8c-.2 3.3-1.2 6.2-2.8 8.3-1.6 2.1-3.7 3.4-6.1 3.4h-.4c-2.3-.2-4.3-1.6-5.8-3.8-1.4-2.2-2.3-5.1-2.3-8.3v-.9c.1-1.5.3-2.9.8-4.2v-.1c1.6-2.1 4.1-4.4 7.4-4.4h.4c4.3.3 7.1 3.1 8.5 6.5v.1l-.2.1z"/>
  <path class="st29" d="M187.8 126.3c4.2.2 6.9 3 8.3 6.3-.7-5.2-3.8-9.1-7.7-9.4-3.6-.2-6.9 2.8-8.3 7.4 1.7-2.2 4.3-4.5 7.7-4.3z"/>
  <path class="st4" d="M187.8 126.3v-.3c4.3.3 7.1 3.1 8.5 6.5l-.2.1h-.3c-.4-2.5-1.3-4.8-2.6-6.4-1.3-1.6-3-2.6-4.8-2.8h-.4c-1.7 0-3.2.7-4.5 2-1.3 1.3-2.4 3.1-3.1 5.2l-.2-.1-.2-.2c1.6-2.1 4.1-4.4 7.4-4.4h.4v.7h-.4c-3.1 0-5.4 2.1-7 4.2-.1.1-.2.1-.3.1-.1-.1-.2-.2-.1-.3.7-2.2 1.8-4.1 3.2-5.4 1.4-1.3 3.1-2.1 4.9-2.1h.4c2 .1 3.8 1.2 5.2 3 1.4 1.7 2.3 4 2.7 6.7 0 .1-.1.2-.2.3-.1 0-.3 0-.3-.1-1.4-3.3-4-5.9-8.1-6.2v-.5z"/>
  <path class="st32" d="M193 139.9c-.3 4.2-3 7.4-6 7.1-3-.3-5.2-4-5-8.2.3-4.2 3-7.4 6-7.1 3.1.3 5.3 3.9 5 8.2z"/>
  <path class="st33" d="M193.1 139.1v.7c0 .5-.1.9-.2 1.4 0-.3-.1-.7-.2-1-.2 1.4-.7 2.7-1.3 3.6l.9-.6c.4-1 .7-2.1.8-3.4v-.7zm-5-7.5zm-.4 0h.4-.4zm0 0z"/>
  <path class="st34" d="M191.5 141.5c-.5 2.6-2.4 4.3-4.3 3.8-1.8-.5-2.9-3-2.4-5.6.5-2.6 2.4-4.3 4.3-3.8 1.8.5 2.9 3 2.4 5.6z"/>
  <path class="st30" d="M188.1 131.6zm-.4 0c-2.8 0-5.1 2.9-5.5 6.8.3-3.9 2.7-6.8 5.5-6.8zm0 0z"/>
  <path class="st35" d="M187.8 132.3h.4c2.8.3 4.8 3.6 4.6 7.3v.5c-.2-.6-.4-1.2-.7-1.6-.2-.2-.4-.5-.7-.6l-.3-.6c.2-.4.3-1 .2-1.5-.1-1-.8-1.7-1.5-1.7h-.2c-.6.1-1 .8-1.1 1.5-1.3 0-2.5 1.1-3.2 2.7-.1 0-.1.1-.2.1-.5.4-.8 1-1.2 1.6l-1.2-.9v-.5c.2-3.5 2.4-6.3 5.1-6.3z"/>
  <path class="st36" d="M187.7 131.6h.4c2.8.3 5 3.6 5 7.5v.7c0 .5-.1.9-.2 1.4 0-.3-.1-.7-.2-1v-.5c.3-3.8-1.8-7.1-4.6-7.3h-.4c-2.6 0-4.9 2.7-5.1 6.3v.5c-.1-.1-.2-.2-.4-.3 0-.2-.1-.3-.1-.5.4-3.9 2.8-6.8 5.6-6.8z"/>
  <path class="st37" d="M190.9 137.4c-.1.1-.1.2-.2.3.2.1.4.2.5.3l-.3-.6zm-2.5-1.6c-1.3 0-2.5 1.1-3.2 2.7.9-.8 2.2-1.1 3.4-1.1-.1-.2-.2-.5-.3-.9 0-.3 0-.5.1-.7z"/>
  <path class="st38" d="M194 126.9c-4.7-3.4-8.3-3-10.7-1.6-1.4 1.3-2.5 3.1-3.2 5.3 1.7-2.2 4.3-4.5 7.7-4.3 4.2.2 6.9 3 8.3 6.3-.3-2.2-1.1-4.2-2.1-5.7z"/>
  <path class="st39" d="M183.7 127.6c-.6.9-1.1 1.9-1.4 3-.3 1.1-.6 2.2-.6 3.5-.1 1.5.1 3 .4 4.4V138.8c-1.5-1.6-2.7-3.8-1.9-6.6 0 0-.1.2-.4.5.1-.7.3-1.3.5-1.9 1-1.3 2.1-2.4 3.4-3.2z"/>
  <path class="st40" d="M183.7 127.6c-1.3.8-2.5 1.9-3.3 3.1-.2.6-.3 1.3-.5 1.9-.1.2-.2.4-.4.6.1-.8.3-1.6.5-2.4h.1c.1 0 .2 0 .2-.1.9-1.1 2.1-2.3 3.4-3.1z"/>
  <path class="st41" d="M184.1 127.1c-.1.2-.2.3-.3.5-1.4.8-2.5 2-3.4 3.1 0 .1-.1.1-.2.1h-.1c0-.1 0-.2.1-.2.1-.2.3-.4.4-.5.9-1.2 2.1-2.3 3.5-3z"/>
  <path d="M182.1 138.4c0 .2.1.3.1.5l-.2-.2v-.1c.1-.1.1-.2.1-.2z" fill="#27375c"/>
  <path class="st39" d="M195.7 132.3c.1.1.1.2.2.4.1.8.2 1.6.2 2.4v.8c-.2 3.2-1.2 6-2.7 8.1-.7 1-1.6 1.8-2.5 2.3-.3.1-.6.3-.9.5-.7.3-1.5.4-2.2.4h-.4c-1.1-.1-2.1-.4-3-1.1l.2-.4c.8.7 1.6 1.2 2.6 1.2h.4c2 0 3.8-1.5 4.8-3.8 2-1.7 3.4-4.7 3.6-8.2-.1-.8-.2-1.7-.3-2.6z"/>
  <path class="st40" d="M184.2 146.1l-.1.2c.9.6 2 1 3.1 1.1h.4c.5 0 .9-.1 1.4-.2.3-.2.5-.4.8-.5-.7.3-1.5.4-2.2.4h-.4c-1 0-2-.4-3-1zm11.5-13.8c.1.1.1.2.2.4.1.8.2 1.6.2 2.4v.8c-.2 3.2-1.2 6-2.7 8.1-.7 1-1.6 1.8-2.5 2.3.3-.1.7-.3 1-.4 2.5-2 4.2-5.7 4.5-10 .1-1 0-2-.1-3-.1 0-.2-.1-.2-.2-.3-.1-.4-.2-.4-.4z"/>
  <path class="st41" d="M195.5 131.5c.2.3.3.6.4.9 0 .1.1.2.1.3v.3c-.1 0-.2-.1-.2-.2-.1-.1-.1-.3-.2-.4v-.1c0-.3 0-.6-.1-.8z"/>
  <path class="st42" d="M185.5 143.8c.4.7 1 1.2 1.8 1.4.2.1.4.1.7.1.7 0 1.4-.3 2-.8.5-.1 1-.3 1.4-.6-.9 1.3-2.3 2.2-3.7 2.2h-.4c-.9-.1-1.7-.5-2.4-1.1l.6-1.2z"/>
  <path class="st43" d="M192.2 143.2c-1 2.3-2.8 3.8-4.8 3.8h-.4c-1-.1-1.9-.5-2.6-1.2l.4-.8c.7.6 1.5 1 2.4 1.1h.4c1.4 0 2.8-.8 3.7-2.2.3-.2.6-.4.9-.7z"/>
  <path d="M185.6 143.7c.8.6 1.7.9 2.7 1h.3c.4 0 .9-.1 1.3-.2-.6.5-1.3.8-2 .8-.2 0-.4 0-.7-.1-.7-.2-1.3-.7-1.8-1.4l.2-.1z" fill="#15213b"/>
  <path class="st44" d="M196 132.4c0 .1.1.2.1.3 0-.2-.1-.3-.1-.3zm-15.4-2.4c-.1.2-.3.4-.4.5.1-.1.2-.3.4-.5z"/>
  <path class="st46" d="M188.7 137.3c.6 0 1.1.1 1.6.2.1 0 .3.1.4.2-.2.2-.4.3-.6.4h-.2c-.5 0-1-.3-1.2-.8z"/>
  <path class="st47" d="M189.7 134.2c.7 0 1.3.7 1.5 1.7.1.6 0 1.1-.2 1.5-.4-.8-1.1-1.3-1.8-1.5-.2-.1-.4-.1-.7-.1h-.1c.1-.8.5-1.4 1.1-1.5.1-.1.1-.1.2-.1z"/>
  <path class="st48" d="M188.4 135.7c.2 0 .4 0 .7.1.8.2 1.4.8 1.8 1.5-.1.1-.1.2-.2.3-.1-.1-.3-.1-.4-.2-.5-.1-1.1-.2-1.6-.2-.1-.2-.2-.5-.3-.9-.1-.1-.1-.3 0-.6 0 .1 0 0 0 0z"/>
  <path class="st45" d="M191.5 139.1c.2.3.3.7.2 1.1 0 .2-.1.3-.2.5.2-.6.1-1.1 0-1.6z"/>
  <path class="st46" d="M190.9 138.7h.1c.2 0 .4.2.5.3.1.5.1 1 .1 1.5-.2.3-.5.6-.8.6h-.1c-.5-.1-.8-.7-.7-1.4.1-.5.5-1 .9-1z"/>
  <path class="st4" d="M149.2 156.2l-.1-.1c-.3-.7-1.7-3.9-5.2-7.1-3.5-3.1-9.1-6.2-17.6-6.5-.1 0-.3-.1-.2-.3 0-.1.1-.3.3-.2 9.3.4 15.1 3.9 18.6 7.3 3.5 3.4 4.7 6.7 4.7 6.8 0 .1 0 .3-.2.3-.1 0-.2-.1-.3-.2zM195.5 145.3c-.1.2-.2.2-.2.2-.1.1-.3.1-.6.2-1.6.3-5.9 1-7.4 4.5-.1.1-.2.2-.3.1-.1-.1-.2-.2-.1-.3 1-2.3 3.1-3.5 4.9-4.1.9-.3 1.8-.5 2.4-.6.3-.1.6-.1.7-.2l.2-.1v.2l.1.1-.2-.1v-.1l.1.1-.2-.1c0-.1.2-.2.3-.2.3.1.4.2.3.4z"/>
  <path class="st17" d="M121.7 148s1.8-4.2 10.1-4.5c8.2-.2 16.4 9.3 16.5 17 0 7.7-34.8-1.4-26.6-12.5z"/>
  <path class="st51" d="M141.9 151.8c.3 0 .8.2 1.3.6 2.1 1.6 3.2 6.9 1.6 7.4h-.3c-1.7 0-4.1-3.8-3.9-6.7.1-.1.4-1.3 1.3-1.3zM139 147.7c.1 0 .3 0 .5.1.9.5 1.8 2.4 1.2 2.7h-.2c-.7 0-1.8-1.2-1.9-2.3 0 .1 0-.5.4-.5z"/>
  <path class="st17" d="M187.9 151s1.5-3.8 6.2-4.3 2.1 6.4-1.8 7.8c-4.1 1.5-6.3.2-4.4-3.5z"/>
  <path class="st51" d="M194.3 147.3c.7 0 1.2.2 1.2.5.1.6-1.4 1.4-2.6 1.4-.2 0-.4 0-.6-.1 0 0-1-.4-.1-1.2.5-.4 1.4-.6 2.1-.6zM190.8 148.2c.2 0 .3 0 .3.1.1.3-.6.7-1.1.7 0 0-.4-.1-.1-.4.1-.2.6-.4.9-.4z"/>
  <path d="M139.9 86.8s-9.3-3.7-9.5-5.3c0 0 14.6 2.3 19.4 7.1 0 0-2.8-4.7-5.9-5.7 0 0 9.1 1.1 15 9 0 0-1.5-4.2-3.2-5.6-1.7-1.4 4.3 1.6 8.3 8.5 0 0-1-6.9.2-8.9 0 0 5.3 5.2 6.8 10.1 0 0 .5-5.2 3.1-7.4 0 0-.8 4.7-.4 6.5 0 0 2.8-5.4 5.5-5.9 0 0-2.5 5.3-2.5 9.3 0 0 3.6-6.9 7.9-7.4 0 0-1.2 2.5-1.1 5.1 0 0 3.5-2.5 3.1-5.9 4.8 4.3 5.6 8.1 5.6 8.1s.8-9.9-13.3-16.1c0 0 11.4-6 7.9-21.2 0 0 6.2 11.7 1 25 0 0 5.3-1.3 5.8-8.7 0 0 4.1 11.2.3 19.9-3.5 8-6.7 9.1-7 9.9 0 0 .7-5.4 2.7-7 1.9-1.6-8.7 4.3-10.4 14.3 0 0-.4-2.4-.2-5.8.1-3.3-4.7 8.5-3.8 16.1 0 0-6-13.5-10-15.1 0 0 1.5 3.6 1.4 5.3 0 0-9-11.2-15.4-13.7l2 2.5s-10.1-3.4-19.5-7.3c-12.6-5.3-25.3-20.2-30.8-29.3.1-.1 14.6 19.3 37 19.6z" fill="#a36935"/>
  <path d="M179.2 133.9c0 .3 0 .5-.1.8v.9c0 3.2.9 6.1 2.3 8.3.5.8 1.1 1.4 1.7 2-.6-.4-1.3-.7-1.9-1-2.4-1-4.9-1.4-7.3-1.4-3.9 0-7.5 1.3-10.2 3.6-2.7 2.3-4.3 5.8-4.5 10v.4c0 5.4 3.1 8.4 6.1 10 3 1.6 5.9 1.8 6 1.9 3.1.4 5.2 2.1 6.5 3.8.1.1.2.3.3.4-2.1-1.5-5.8-3.6-10.2-3.7-7-.1-13.8-9.5-7.6-19.7 4-6.6 10.7-7.7 14.9-7.7 2.3 0 3.9.3 3.9.3-1.5-3.8-.7-7 .1-8.9z" fill="#a66630"/>
  <path d="M179.5 133.2c-.1.5-.1 1-.1 1.5-.3 5.1 1.7 9.6 4.7 11.6l-.1.2-.9-.6c-.6-.6-1.2-1.2-1.7-2-1.4-2.2-2.3-5.1-2.3-8.3v-.9c0-.3 0-.5.1-.8.1-.2.2-.5.3-.7z" fill="#664d26"/>
  <path d="M183.8 140.1l.9.6c0 1 .2 2 .6 2.8-.8-.6-1.6-1.5-2.1-2.5l.6-.9z" fill="#27454f"/>
  <path d="M184.7 140.7c1.1.7 1.9 1 1.9 1l-1.1 1.9c-.1-.1-.2-.1-.2-.2-.4-.6-.6-1.6-.6-2.7z" fill="#141e2d"/>
  <path d="M182.6 139.2c.4.3.8.7 1.2.9l-.6.9c-.2-.4-.4-.7-.5-1.1-.1-.2-.1-.5-.1-.7z" fill="#345863"/>
  <path d="M182.3 138.9c.1.1.2.2.4.3v.7c-.2-.3-.3-.7-.4-1z" fill="#1e3145"/>
  <path d="M180.3 132.1c-.8 2.8.3 5 1.9 6.6V139.5c0 2.6.9 4.9 2.4 6.3l-.2.4c-.9-.6-1.7-1.5-2.4-2.5-1.4-2.1-2.2-4.9-2.2-8v-.9c0-.7.1-1.4.2-2.1.1-.4.3-.6.3-.6z" fill="#d9bd8c"/>
  <path d="M179.9 132.6c-.1.7-.2 1.4-.2 2.1v.9c0 3.1.8 5.9 2.2 8 .7 1 1.5 1.9 2.4 2.5l-.1.2c-3-2-5-6.5-4.7-11.6 0-.5.1-1 .1-1.5l.3-.6z" fill="#614924"/>
  <path d="M183.2 141c.6 1 1.3 1.9 2.1 2.5.1.1.1.2.2.3l-.6 1.1c-.9-.8-1.7-2.1-2-3.6.1 0 .2-.2.3-.3z" fill="#254146"/>
  <path d="M182.1 138.8c-.1 1.1 0 2.1.2 3.1.2-.1.4-.3.5-.4.3 1.5 1.1 2.7 2 3.6l-.4.8c-1.4-1.4-2.4-3.7-2.4-6.3.1-.4.1-.6.1-.8z" fill="#151b25"/>
  <path d="M185.3 143.5c.1.1.2.1.2.2l-.1.1c0-.1 0-.2-.1-.3z" fill="#161d29"/>
  <path d="M182.6 139.9c.2.4.3.8.5 1.1-.1.1-.2.3-.3.4 0-.5-.1-1-.2-1.5z" fill="#315257"/>
  <path d="M182.1 138.7l.2.2c.1.4.2.7.4 1 0 .5.1 1 .2 1.5-.2.2-.3.3-.5.4-.3-.9-.4-2-.3-3.1z" fill="#1c2d3e"/>
  <path d="M171.5 169.1s-12.2-1-11.9-11.9c.3-10.9 11-16.1 21.5-12 10.5 4.1 13.4 22.3-.6 32.7 0 0-1.8-7.9-9-8.8z" fill="#f1d432"/>
  <path class="st10" d="M171.5 169.1v.3s-3-.3-6-1.9c-3-1.6-6.1-4.6-6.1-10v-.4c.1-4.3 1.8-7.7 4.5-10s6.3-3.6 10.2-3.6c2.4 0 4.8.5 7.3 1.4 5.6 2.2 9.1 8.3 9.1 15.1 0 6.2-2.9 13-9.6 18.1h-.2l-.2-.2s0-.1-.1-.3c-.2-.7-.8-2.6-2.2-4.4-1.4-1.8-3.4-3.5-6.5-3.9l-.2-.2v.3-.6c3.7.5 6.1 2.7 7.4 4.8 1.4 2.1 1.8 4.1 1.8 4.1l-.3.1-.2-.2c6.6-4.9 9.4-11.6 9.4-17.7 0-6.6-3.4-12.5-8.8-14.6-2.4-.9-4.8-1.4-7.1-1.4-3.8 0-7.3 1.2-9.8 3.5-2.5 2.3-4.2 5.5-4.3 9.7v.4c0 5.2 2.9 8 5.8 9.5 1.5.8 2.9 1.2 4 1.5.5.1 1 .2 1.3.3.3 0 .5.1.5.1l.3.2z"/>
  <path d="M173.9 144c2.3 0 4.7.4 7.1 1.4 2.2.9 4.1 2.4 5.6 4.4-1.6-1.2-6.4-4.5-11.5-4.5h-.8c-6.5.4-11.7 5-12.2 7.6-.3 1.6 1.3 2.5 3 2.5 1.1 0 2.3-.4 3-1.2 1.7-2.1 1.4-3.6 1.4-3.6s-.1-.8.7-.8h.3c1.2.2 1.8 1.6 1.3 4.4-.5 2.8-.3 7.2 4.2 10.9s5.8 9.5 5.4 10.4c0 0 3.6-1.2 7.1-8.4-1.3 3.7-3.9 7.3-7.7 10.4.1-4.1-4.8-7.4-8.7-11.3-3.6-3.6-3.1-9.4-3.3-10.6.4-.4.7-.8.9-1.3.9-1.5 1.1-3 1.1-3 0-.1-.1-.3-.2-.3s-.2.1-.3.2v.2c0 .2-.1.4-.2.6-.1.5-.4 1.2-.8 1.9-.8 1.4-2.2 2.8-4.5 2.8-.4 0-.8 0-1.3-.1-.1 0-.2.1-.3.2 0 .1.1.3.2.3.5.1 1 .1 1.4.1.6 0 1.2-.1 1.7-.3.8 2.1 0 7.2-2.1 7.2-.5 0-1-.3-1.7-.9-2.6-2.8-2.5-7.6-2.3-9.5.7-2.5 2-4.6 3.8-6.1 2.4-2.3 5.9-3.6 9.7-3.6z" fill="#e7ae30"/>
  <path d="M189.3 165.3c-.1.3-.3.6-.4.9-.1.3-.2.5-.4.8-1.3 3.7-3.9 7.3-7.7 10.4v.3c-.1.1-.2.2-.3.2 0 0-1-4.7-4.9-7.3 3.8 2.6 4.9 7.3 4.9 7.3 4.8-3.6 7.6-8.1 8.8-12.6zm-15.4-21.5c-7.7 0-14.2 5-14.4 13.4 0-1.6.3-3 .7-4.3l.1-.1s0 .3-.1.8c.7-2.5 2-4.6 3.8-6.1 2.5-2.3 6-3.5 9.8-3.5 2.3 0 4.7.4 7.1 1.4 2.2.9 4.1 2.4 5.6 4.4.4.3.5.4.5.4v-.1c-1.5-2.2-3.5-3.9-6-4.9-2.3-1-4.7-1.4-7.1-1.4z" fill="#624924"/>
  <path class="st10" d="M170.7 151.1s-.2 1.5-1.1 3c-.8 1.5-2.4 3.1-5 3-.4 0-.9 0-1.4-.1-.1 0-.2-.2-.2-.3 0-.1.2-.2.3-.2.5.1.9.1 1.3.1 2.4 0 3.7-1.4 4.5-2.8.4-.7.6-1.4.8-1.9.1-.3.1-.5.2-.6v-.2c0-.1.1-.2.3-.2.2-.1.3.1.3.2z"/>
  <path class="st10" d="M175.3 170.7s-1.9-.9-3.9-3.2c-2-2.2-4-5.8-4.2-11.2 0-.1.1-.3.2-.3s.3.1.3.2c.3 5.2 2.2 8.7 4.1 10.8.9 1.1 1.9 1.8 2.6 2.3.3.2.6.4.8.5.1.1.2.1.2.1h.1c.1.1.2.2.1.3 0 .5-.1.5-.3.5z"/>
  <path d="M187.2 153.4c-1.9-3.2-6.5-6.6-10.1-3.9-2.6 1.9-3.8 5.5-2.2 8.4 1.4 2.6 3.7 4.8 5.4 7.3.8 1.3 1.6 3 1.6 4.6 0 .6.4 1.4 1.1 1.1 1-.4 1.9-1.8 2.5-2.6 2.4-3.3 3.6-7.6 3-11.7-.3-1.1-.7-2.2-1.3-3.2z" fill="#f4e073"/>
  <path d="M168.6 151.7s1.6-1.9 0-2.9-5.6 2.9-5 4.8c.6 1.8 3.9.3 5-1.9z" fill="#f4e054"/>
  <path d="M168.7 155.4c-.3.3-.6.6-1 .9v.1c.3 5.2 2.2 8.7 4.1 10.8.9 1.1 1.9 1.8 2.6 2.3.3.2.6.4.8.5.1.1.2.1.2.1h.1c.1 0 .1.1.1.2 1.4.9 2.4 2.1 3.2 3.3 1 1.6 1.5 3.1 1.7 3.8.1 0 .1-.1.2-.1.1-4.1-4.8-7.4-8.7-11.3-3.6-3.5-3-9.4-3.3-10.6zm-8.4-1.7c-.3 1.1-.5 2.3-.5 3.5v.4c0 5.2 2.9 8 5.8 9.5 1.5.8 2.9 1.2 4 1.5.5.1 1 .2 1.3.3.3 0 .5.1.5.1.6.1 1.2.2 1.8.4-.5-.5-1.2-1-1.8-1.7-1.9-2.2-3.9-5.7-4.2-11-.3.1-.5.3-.8.4.8 2.1 0 7.2-2.1 7.2-.5 0-1-.3-1.7-.9-2.6-3-2.4-7.8-2.3-9.7z" fill="#cc7830"/>
  <path d="M175.7 170.4v.1s0 .1-.1.1c3.8 2.6 4.9 7.3 4.9 7.3.1-.1.2-.2.3-.2v-.3c-.1 0-.1.1-.2.1-.2-.7-.7-2.2-1.7-3.8-.7-1.1-1.8-2.3-3.2-3.3zm-15.3-17.6l-.1.1c-.4 1.3-.7 2.7-.7 4.3v.4c0 10.5 11.9 11.6 11.9 11.6.9.1 1.7.3 2.4.6-.2-.1-.4-.3-.6-.5-.5-.2-1.1-.3-1.8-.4 0 0-.2 0-.5-.1-.3 0-.8-.1-1.3-.3-1.1-.3-2.6-.7-4-1.5-2.9-1.6-5.8-4.3-5.8-9.5v-.4c0-1.3.2-2.4.5-3.5v-.8z" fill="#56351a"/>
  <path class="st73" d="M167.2 156.4c-.9.4-1.8.5-2 .5h1.1v.1c.3-.1.6-.2.8-.4.1-.1.1-.2.1-.2zm1.4-1.3c-.1 0-.1.1-.2.2-.2.3-.5.6-.8.8.1 0 .1.1.1.1.4-.3.7-.6 1-.9 0-.1-.1-.2-.1-.2z"/>
  <path class="st73" d="M167.6 156.1c.1 0 .1.1.1.1v.1c.3 5.2 2.2 8.7 4.1 10.8.9 1.1 1.9 1.8 2.6 2.3.3.2.6.4.8.5.1.1.2.1.2.1h.1c.1 0 .1.1.1.2v.1s0 .1-.1.1c-.5-.4-1.1-.7-1.7-.9-.2-.1-.4-.3-.6-.5-.5-.5-1.2-1-1.8-1.7-1.9-2.2-3.9-5.7-4.2-11v-.2c.1.2.3.1.4 0z"/>
  <path class="st17" d="M101.4 113.4s-3.2 9.4.2 16.2c0 0 .3-12.2 4.8-15.3 0 0-1 1.8-1.7 4.4v.1c-3.9 12.3 4.9 20.5 4.9 20.5-1.5-9.4 3.4-16.2 3.4-16.2-.8 6.7 2.4 11.2 2.4 11.2-1.6-8.6 2.4-16 2.4-16-3.3 8.1 1.9 17.8 1.9 17.8-.5-7 5-14.2 5-14.2-2.2 4.8-.3 10.1-.3 10.1.1-12.9 10.2-19 10.2-19-5.3.4-7 2.4-7 2.4 1-3.6 8.6-8 8.6-8-5.3.6-9.9 4.3-9.9 4.3 2.6-4.7 9.5-6.9 9.5-6.9-10.8-1.5-17.2 3.2-17.2 3.2 3.5-3.8 12-4.7 12-4.7-2.4-.6-8.8.4-14.7 3.4v-.1s1.3-4.7 5.8-7.5c0 0-12.6 4.3-17.2 12.4 1.4-2.7 6.3-11.4 11-14.2 0 0-4.8 1.2-8.8 6.9 0 0 2-7.8 5.6-11.6 0 0-10.4 4-16.1 19 0 0 1.1-2.2 3.2-3.3 0 0-3.3 4.5-3.4 13.9.2.1 3-7.3 5.4-8.8zm2.8-.9s.1-.3.4-.7c-.1.2-.2.4-.4.7z"/>
</svg>