<?xml version="1.0" encoding="utf-8"?>
<!-- Generator: Adobe Illustrator 22.0.1, SVG Export Plug-In . SVG Version: 6.00 Build 0)  -->
<svg version="1.1" xmlns="http://www.w3.org/2000/svg" xmlns:xlink="http://www.w3.org/1999/xlink" x="0px" y="0px"
	 viewBox="0 0 228.8 325.4" style="enable-background:new 0 0 228.8 325.4;" xml:space="preserve">
<style type="text/css">
	.st0{fill:#CBCBCB;}
	.st1{fill:#FF7DA1;}
	.st2{fill:#FF5E87;}
	.st3{fill:#FFFFFF;}
	.st4{fill:#EF3E8F;}
	.st5{fill:#F695A2;}
	.st6{fill:#FFD9E6;}
</style>
<g id="Layer_22">
	<path class="st0" d="M228.3,325.4l-1-0.1c5-50-28.8-56-68-63c-8.8-1.6-17.9-3.2-26.7-5.3c-47.2-11.6-59.5-32.4-59.6-32.6l0.9-0.5
		c0.1,0.2,12.2,20.6,58.9,32.1c8.8,2.2,17.9,3.8,26.6,5.3c19.5,3.5,37.8,6.7,50.8,15.5C224.9,286.7,230.7,302.2,228.3,325.4z"/>
	<path class="st0" d="M215.2,322.1l-1-0.4c15.3-36.9-9.4-55.9-31.2-72.7c-8.4-6.4-16.3-12.5-21.1-19.1c-17.2-23.4-6.4-46.5-6.2-46.7
		l0.9,0.5c-0.1,0.2-10.7,22.7,6.2,45.6c4.8,6.5,12.6,12.5,20.9,18.9C205.7,265.2,230.8,284.5,215.2,322.1z"/>
</g>
<g id="Layer_20">
	<g>
		<path class="st1" d="M209.8,114.8c3.3-3.2,6.9-3.2,9.9-2.4c-1.8-17.9-10.5-33.8-23.4-44.9c-1.2,1.3-2.6,2.4-4,3.5c0,0-0.1,0-0.2,0
			c-8.2-1.6-15.8-9.3-19.3-16.6c-6.5-2.1-13.5-3.2-20.7-3.2c-37.5,0-67.9,30.4-67.9,67.9s30.4,67.9,67.9,67.9c9.1,0,17.7-1.8,25.7-5
			c-5.2-8.9-6.3-20.3-0.9-23.1c8.8-4.6,15,5.2,15,5.2l0,0c0,0,6.6-6.6,13-2.3c5.8-7.2,10.2-15.6,12.7-24.8
			C209.8,130,205.3,119.1,209.8,114.8z M131.1,166.1c0,0-0.1,0-0.2,0c-13.9,1-30.7-15-26.1-22.7c5.1-8.5,15.6-3.4,15.6-3.4l0,0
			c0,0,2.6-10.7,12.1-8.4C141.2,133.8,141,153.7,131.1,166.1z M128.8,99.1c0,0-0.1,0-0.2,0c-13.6-2.6-25.8-22.4-19.4-28.6
			c7.1-6.9,15.9,0.8,15.9,0.8l0,0c0,0,5.3-9.7,13.9-5C146.8,70.5,141.5,89.7,128.8,99.1z M169,129.8c0,0-0.1,0-0.2-0.1
			c-13-4.8-21.8-26.4-14.4-31.4c8.2-5.6,15.6,3.4,15.6,3.4l0,0c0,0,6.8-8.7,14.5-2.6C191.5,104.6,183.1,122.7,169,129.8z"/>
		<path class="st2" d="M191.9,164.1L191.9,164.1c0,0-6.2-9.8-15-5.2c-5.4,2.8-4.3,14.1,0.9,23.1c10.7-4.4,20-11.3,27.1-20.2
			C198.4,157.6,191.9,164.1,191.9,164.1z"/>
		<path class="st2" d="M184.5,99.1c-7.7-6.1-14.5,2.6-14.5,2.6l0,0c0,0-7.4-9-15.6-3.4c-7.4,5,1.4,26.6,14.4,31.4
			c0,0,0.1,0.1,0.2,0.1C183.1,122.7,191.5,104.6,184.5,99.1z"/>
		<path class="st2" d="M132.6,131.7c-9.5-2.4-12.1,8.4-12.1,8.4l0,0c0,0-10.4-5.1-15.6,3.4c-4.6,7.6,12.2,23.7,26.1,22.7
			c0,0,0.1,0,0.2,0C141,153.7,141.2,133.8,132.6,131.7z"/>
		<path class="st2" d="M139,66.3c-8.6-4.7-13.9,5-13.9,5l0,0c0,0-8.8-7.6-15.9-0.8c-6.4,6.2,5.7,26,19.4,28.6c0,0,0.1,0.1,0.2,0
			C141.5,89.7,146.8,70.5,139,66.3z"/>
		<path class="st2" d="M219.7,112.4c-3-0.8-6.6-0.7-9.9,2.4c-4.5,4.3,0,15.1,7.8,22.3c1.6-5.7,2.4-11.8,2.4-18
			C220,116.8,219.9,114.6,219.7,112.4z"/>
		<path class="st2" d="M192.1,71c0,0,0.1,0.1,0.2,0c1.4-1.1,2.8-2.2,4-3.5c-6.8-5.8-14.7-10.3-23.4-13.1
			C176.2,61.7,183.9,69.4,192.1,71z"/>
	</g>
</g>
<g id="Layer_19">
	<path class="st3" d="M157.9,74.7c0,3.8-3,6.8-6.8,6.8c-3.8,0-6.8-3-6.8-6.8c0-3.8,3-6.8,6.8-6.8C154.9,67.9,157.9,71,157.9,74.7z"
		/>
</g>
<g id="Layer_21">
	<path class="st0" d="M225.6,317.9l-1-0.2c6.7-38.1-34.7-60.5-68-78.5c-7.3-3.9-14.1-7.6-19.9-11.2c-32.3-19.9-28-101.1-27.8-104.5
		l1,0.1c0,0.8-4.4,84,27.3,103.6c5.8,3.6,12.6,7.3,19.9,11.2C190.6,256.5,232.4,279.1,225.6,317.9z"/>
</g>
<g id="Layer_14">
	<g>
		<path class="st4" d="M81.4,27.9L81.4,27.9c0,0-35.5-22.3-57.2,6.1c-19.5,25.7,35,89.6,85.2,91.2c0.1,0,0.5,0.1,0.6,0
			c40.2-40.5,48.2-112,18.2-122.9C94.8-9.7,81.4,27.9,81.4,27.9z"/>
		<polygon class="st3" points="58,56 48.5,53.1 40.7,59.4 40.4,49.4 32.1,43.9 41.5,40.6 44.2,31 50.2,38.9 60.2,38.5 54.5,46.7 		
			"/>
	</g>
</g>
<g id="Layer_17">
	<path class="st5" d="M115.1,146.2c9.2,37.9-8.5,74.8-39.6,82.4c-31.1,7.6-63.8-17-73-54.9c-9.2-37.9,8.5-74.8,39.6-82.4
		C73.2,83.7,105.9,108.3,115.1,146.2z"/>
</g>
<g id="Layer_18">
	<path class="st6" d="M54.3,141.6L54.3,141.6c0,0-14.6-10.4-24.5,1.3c-8.9,10.5,12.8,39,34.1,40.9c0,0,0.2,0.1,0.3,0
		c18.1-16.3,23.2-46.6,10.7-51.9C60.9,125.9,54.3,141.6,54.3,141.6z"/>
	<path class="st3" d="M27.4,125.8c0,3.8-3.1,6.9-6.9,6.9c-3.8,0-6.9-3.1-6.9-6.9c0-3.8,3.1-6.9,6.9-6.9
		C24.3,118.8,27.4,121.9,27.4,125.8z"/>
</g>
</svg>
