<?xml version="1.0" encoding="utf-8"?>
<!-- Generator: Adobe Illustrator 22.0.1, SVG Export Plug-In . SVG Version: 6.00 Build 0)  -->
<svg version="1.1" id="Layer_1" xmlns="http://www.w3.org/2000/svg" xmlns:xlink="http://www.w3.org/1999/xlink" x="0px" y="0px"
	 viewBox="0 0 176.1 145.6" style="enable-background:new 0 0 176.1 145.6;" xml:space="preserve">
<style type="text/css">
	.st0{fill:#3B936D;}
	.st1{fill:#76D6AD;}
	.st2{opacity:0.38;fill:#257A78;}
	.st3{opacity:0.43;fill:#257A78;}
	.st4{fill:#85FFC2;}
	.st5{fill:#68421C;}
	.st6{fill:#35321B;}
	.st7{fill:#4C4928;}
	.st8{opacity:0.47;fill:#B2A859;}
	.st9{fill:#846124;}
	.st10{fill:#D6AD00;}
	.st11{fill:#9E5F0D;}
	.st12{opacity:0.3;fill:#381A06;}
	.st13{fill:#EDC500;}
	.st14{opacity:0.5;fill:#FFDD4D;}
	.st15{fill:#FBFF50;}
	.st16{opacity:0.23;fill:#381A06;}
	.st17{fill:#998484;}
	.st18{fill:#FFFFFF;}
	.st19{opacity:0.31;fill:#231313;}
	.st20{fill:#231313;}
	.st21{opacity:0.81;fill:#FFFFFF;}
	.st22{opacity:0.58;fill:#FFEA50;}
	.st23{opacity:0.39;fill:#381A06;}
</style>
<g>
	<g>
		<path class="st0" d="M151.9,102.4c-6.7-9.9-20.4-13.5-30.1-13.5c-2.3,0-4.5,0.2-6.2,0.6c-3.7,0.9-5.9,2.3-6.6,4.2
			c-0.5,1.5,0,2.7,0.4,3.3c0.2,1.6,1.2,7.6,8.1,18.3c5.8,9,11.8,17.2,20.8,17.2h0c2.1,0,4.4-0.4,6.7-1.4c5.7-2.2,9.5-5.8,11-10.6
			C157.7,115.1,156.3,108.8,151.9,102.4z"/>
		<path class="st1" d="M110.7,96.6c0,0,0,5.7,7.9,18c7.9,12.3,14.5,19.6,25.9,15.3c11.5-4.4,14.2-15,6.3-26.7
			c-7.9-11.7-26.7-14.2-34.9-12.3C107.7,92.8,110.7,96.6,110.7,96.6z"/>
		<path class="st2" d="M150.3,122.2c0.6,0.9,1.2,1.8,1.8,2.7c0.4-0.4,0.7-0.9,1.1-1.4c-0.4-0.6-0.9-1.2-1.3-1.9
			c1-0.4,1.9-0.8,2.9-1.3c0.2-0.5,0.3-1.1,0.4-1.7c-1.2,0.6-2.6,1.2-4.1,1.8c-0.3-0.4-0.5-0.8-0.8-1.1c-2-3-3.6-6-4.9-8.9
			c2.5-1.2,5-2.5,7.4-4c-0.2-0.4-0.5-0.9-0.7-1.3c-1.9,1.2-4.4,2.5-7.3,3.9c-1.8-4.1-3-7.8-3.8-11.1c1-0.6,1.9-1.1,2.7-1.7
			c-0.7-0.5-1.4-0.9-2.2-1.3c-0.4,0.3-0.7,0.5-1.1,0.7c-0.1-0.5-0.2-1-0.3-1.4c-0.4-0.2-0.9-0.4-1.3-0.6c0.1,0.7,0.2,1.6,0.4,2.8
			c-2.3,1.5-4.6,2.9-6.9,4.1c-0.9-3-1.6-5.7-2.2-7.9c0.7-0.4,1.4-0.8,2.1-1.1c-1.4-0.3-2.7-0.6-4.1-0.8c0.1,0.2,0.1,0.5,0.2,0.8
			c-2.6,1.6-5.3,2.9-7.8,4c-0.3-1.9-0.6-3.7-0.8-5.2c-0.5,0-1,0.1-1.4,0.1c0.3,1.6,0.6,3.5,1,5.6c-2.3,0.9-4.5,1.7-6.6,2.3
			c-0.4-1.9-0.7-3.9-0.9-5.9c-0.5,0.4-0.9,0.7-1.2,1.1c0.2,1.6,0.4,3.3,0.8,5.2c-0.1,0-0.3,0.1-0.4,0.1c0.1,0.5,0.2,1,0.4,1.6
			c0.1,0,0.2-0.1,0.3-0.1c0.2,0.9,0.5,1.9,0.7,2.9c0.7,1.7,1.6,3.8,3,6.2c2.2-0.7,4.4-1.4,6.5-2.2c0.9,3,1.9,6,3.1,8.9
			c-1.5,0.4-3.1,0.7-4.8,1.1c0.3,0.5,0.6,0.9,0.9,1.4c1.4-0.3,2.9-0.7,4.4-1.1c0.2,0.4,0.4,0.9,0.6,1.3c1.3,2.7,2.5,5.3,3.7,7.7
			c-0.6,0.1-1.2,0.2-1.9,0.3c0.6,0.6,1.2,1.1,1.9,1.5c0.3-0.1,0.6-0.1,0.9-0.2c0.2,0.4,0.4,0.8,0.6,1.1c0.6,0.4,1.2,0.7,1.9,0.9
			c-0.4-0.7-0.9-1.5-1.3-2.3c3-0.7,6.2-1.5,9.5-2.5c0.9,1.6,1.8,3.1,2.8,4.7c0.1,0,0.3-0.1,0.4-0.1c0.3-0.1,0.6-0.2,0.9-0.4
			c-0.9-1.5-1.8-3-2.7-4.6C145.2,124.1,147.7,123.2,150.3,122.2z M139.7,98.7c0.7,2.8,1.8,6.5,3.8,11c-2.1,0.9-4.3,1.9-6.8,2.8
			c-1.5-3.5-2.7-7-3.7-10.1C135.4,101.1,137.6,99.8,139.7,98.7z M115,108.1c-0.7-2.5-1.4-5.3-2-8.1c2.3-0.7,4.6-1.5,6.7-2.3
			c0.5,2.5,1.2,5.3,1.9,8.1C119.2,106.6,117,107.4,115,108.1z M122.2,103.9c-0.5-2.5-1-4.7-1.4-6.8c3-1.2,5.8-2.5,8.1-3.7
			c0.6,2.2,1.4,4.9,2.3,7.9c-3,1.6-6,2.9-8.7,4C122.4,104.8,122.3,104.4,122.2,103.9z M125.9,115.8c-1.2-2.9-2.2-5.9-3.1-9
			c3.1-1.2,6.1-2.5,8.9-3.9c1,3.2,2.3,6.6,3.6,10C132.5,113.9,129.3,114.9,125.9,115.8z M130.9,126.2c-1.5-2.8-3-5.8-4.4-9
			c3-0.8,6.2-1.7,9.4-2.9c1.1,2.8,2.4,5.5,3.7,8c0.3,0.6,0.6,1.1,0.9,1.7C137.6,124.7,134.4,125.5,130.9,126.2z M137.2,113.8
			c2.3-0.8,4.6-1.8,6.9-2.8c1.4,3,3.2,6.4,5.4,10c-2.3,0.9-4.8,1.7-7.6,2.5C140.1,120.3,138.6,117,137.2,113.8z"/>
		<path class="st3" d="M144.5,129.9c1.6-0.6,3.1-1.4,4.4-2.3c-10.5-0.8-21.2-8.8-22.5-18.1C125,99,137,96.8,143.7,96.3
			c-9.1-5.8-21.5-6.9-27.8-5.5c-8.2,1.9-5.2,5.7-5.2,5.7s0,5.7,7.9,18C126.5,126.9,133.1,134.2,144.5,129.9z"/>
		<path class="st4" d="M126.9,121.6c0,0,6.2,7.2,12.2,6.7c6-0.5,8.2-0.5,8.2-0.5s-7.9,3.5-11.4,2.5
			C132.4,129.3,129.4,125.8,126.9,121.6z"/>
		<path class="st4" d="M139.2,97.4c0,0,10.2,6.7,11.4,14.2c1.2,7.5-1.2,13-1.2,13s3.2-1.2,4.7-7.9c1.6-6.7-6.5-17.2-10.7-19.5
			C139.2,94.9,130.6,91.6,139.2,97.4z"/>
	</g>
	<g>
		<path class="st0" d="M26.9,106.1C31.5,96,42.9,91.8,51.2,91.3c2-0.1,3.9,0,5.4,0.3c3.2,0.7,5.3,2,6.1,3.9c0.6,1.4,0.3,2.7,0.1,3.3
			c0,1.6-0.2,7.6-4.9,18.6c-4,9.3-8.2,17.6-15.8,18c0,0,0,0,0,0c-1.8,0.1-3.8-0.2-5.9-1c-5.1-1.9-8.7-5.3-10.5-10
			C23.4,119.1,23.9,112.8,26.9,106.1z"/>
		<path class="st1" d="M61.5,98.4c0,0,0.6,5.7-4.7,18.3c-5.4,12.6-10.1,20.2-20.4,16.4c-10.3-3.8-13.8-14.2-8.4-26.3
			c5.4-12,21.2-15.4,28.4-13.9C63.6,94.5,61.5,98.4,61.5,98.4z"/>
		<path class="st2" d="M37.3,128.1c-0.6,1.6-1.2,3.2-1.8,4.7c0.3,0.1,0.5,0.2,0.8,0.3c0.1,0,0.2,0.1,0.4,0.1
			c0.7-1.6,1.3-3.2,1.9-4.8c2.9,0.8,5.8,1.5,8.4,2c-0.3,0.8-0.6,1.6-0.9,2.3c0.5-0.3,1-0.6,1.5-1c0.1-0.4,0.2-0.8,0.4-1.1
			c0.3,0,0.5,0.1,0.7,0.1c0.5-0.5,1-1,1.4-1.6c-0.6-0.1-1.1-0.2-1.6-0.2c0.8-2.5,1.5-5.1,2.3-7.8c0.1-0.4,0.2-0.9,0.4-1.3
			c1.4,0.3,2.7,0.6,3.9,0.9c0.2-0.5,0.4-0.9,0.6-1.4c-1.4-0.3-2.9-0.5-4.2-0.9c0.7-2.9,1.2-6,1.6-9c1.9,0.7,3.8,1.3,5.8,1.9
			c0.9-2.5,1.4-4.5,1.8-6.3c0.1-1,0.2-2,0.3-2.9c0.1,0,0.2,0,0.3,0.1c0.1-0.6,0.2-1.1,0.2-1.6c-0.1,0-0.2-0.1-0.3-0.1
			c0.1-1.8,0.1-3.6,0.1-5.2c-0.3-0.3-0.6-0.7-1.1-1c0,2,0,4-0.1,5.9c-1.9-0.5-3.9-1.2-5.9-2c0.1-2.1,0.2-4,0.2-5.6
			c-0.4,0-0.8,0-1.2,0c0,1.5,0,3.2-0.1,5.2c-2.3-1-4.7-2.1-7.1-3.6c0-0.3,0.1-0.5,0.1-0.8c-1.1,0.3-2.3,0.6-3.4,1
			c0.6,0.3,1.2,0.7,1.9,1c-0.2,2.3-0.5,5-1,8c-2.1-1.1-4.2-2.3-6.3-3.7c0.1-1.2,0.1-2.1,0-2.8c-0.4,0.2-0.7,0.4-1,0.6
			c0,0.5-0.1,0.9-0.1,1.4c-0.3-0.2-0.7-0.5-1-0.7c-0.6,0.4-1.2,0.9-1.7,1.4c0.8,0.5,1.6,1,2.5,1.5c-0.3,3.3-0.9,7.1-2,11.2
			c-2.7-1.3-4.9-2.5-6.7-3.6c-0.2,0.4-0.3,0.9-0.5,1.3c2.2,1.3,4.5,2.6,6.8,3.6c-0.8,2.9-1.8,5.9-3.2,9c-0.2,0.4-0.3,0.8-0.5,1.2
			c-1.3-0.5-2.6-1.1-3.7-1.6c0.2,0.6,0.3,1.1,0.6,1.6c0.9,0.4,1.7,0.8,2.6,1.1c-0.3,0.7-0.6,1.3-0.9,1.9c0.3,0.5,0.7,0.9,1.1,1.3
			c0.4-0.9,0.8-1.8,1.2-2.7C32.9,126.7,35.1,127.4,37.3,128.1z M43.2,105.2c-0.5,3.2-1.2,6.7-2,10.3c-2.2-0.8-4.3-1.6-6.1-2.5
			c1.2-4.5,1.7-8.3,2-11.1C38.8,103,40.9,104.1,43.2,105.2z M53.2,108c0.3-2.8,0.6-5.6,0.7-8.1c1.9,0.7,3.9,1.4,5.9,2
			c-0.2,2.9-0.5,5.7-0.8,8.2C57.3,109.5,55.4,108.8,53.2,108z M52.4,107.7c-2.5-1-5.1-2.2-7.9-3.6c0.5-3,0.8-5.7,1.1-7.9
			c2.1,1.1,4.6,2.2,7.3,3.3c-0.1,2-0.2,4.3-0.4,6.8C52.5,106.7,52.4,107.2,52.4,107.7z M42.3,115.8c0.8-3.4,1.4-6.9,2-10.1
			c2.5,1.2,5.2,2.4,8,3.4c-0.4,3.1-0.9,6.2-1.6,9.1C47.6,117.5,44.8,116.7,42.3,115.8z M39.1,127c0.2-0.6,0.4-1.2,0.6-1.7
			c0.8-2.5,1.6-5.3,2.3-8.1c2.9,1,5.7,1.8,8.3,2.4c-0.8,3.3-1.8,6.4-2.8,9.2C44.5,128.3,41.7,127.7,39.1,127z M37.8,126.7
			c-2.5-0.7-4.7-1.4-6.7-2.2c1.5-3.7,2.7-7.1,3.5-10.2c2.1,0.9,4.1,1.7,6.2,2.5C40,120.1,39,123.4,37.8,126.7z"/>
		<path class="st3" d="M36.3,133.1c-1.5-0.5-2.8-1.2-4-2c8.9-1.3,17.1-9.8,17.1-19c0-10.6-10.4-12.2-16.2-12.3
			c7.1-6.2,17.6-7.9,23.1-6.8c7.2,1.5,5.1,5.4,5.1,5.4s0.6,5.7-4.7,18.3C51.4,129.3,46.6,136.9,36.3,133.1z"/>
		<path class="st4" d="M50.5,124.1c0,0-4.5,7.5-9.6,7.2c-5.1-0.2-7-0.1-7-0.1s7.2,3.1,10,1.9C46.7,132,48.8,128.4,50.5,124.1z"/>
		<path class="st4" d="M37.2,100.6c0,0-7.9,7.1-8.1,14.6c-0.2,7.5,2.5,12.8,2.5,12.8s-2.8-1.1-4.9-7.6c-2.1-6.5,3.6-17.4,6.9-19.8
			C37,98.2,43.9,94.5,37.2,100.6z"/>
	</g>
	<g>
		<path class="st0" d="M175.7,42.9c-1.7-10-7.9-15.5-17.5-15.5c-1.8,0-3.8,0.2-5.8,0.6c-15.3,2.9-29.1,14.3-40.2,32.9
			c-8.3,13.9-12.1,27.2-12.2,27.3c-0.1,0.2-0.1,0.5,0,0.8l1.5,5.4c0.2,0.5,0.6,0.9,1.2,1c0.2,0,5.5,0.6,13.3,0.6
			c9.6,0,23.8-0.9,36.5-5.3C167.7,85.4,178.4,59.3,175.7,42.9z"/>
		<path class="st1" d="M101.3,88.6c0,0,14.9-52.3,51.3-59.3c36.3-7,21.9,52.3-0.5,60c-22.4,7.7-49.2,4.6-49.2,4.6L101.3,88.6z"/>
		<path class="st2" d="M135.4,93c0.3-2.8,0.7-6.2,1.2-10c3,1.1,6,2.3,9,3.7c0,0.5,0,2.3,0,4.6c0.6-0.1,1.2-0.3,1.8-0.5
			c-0.1-1.8-0.2-3.1-0.2-3.4c1.3,0.6,2.6,1.3,3.9,2c-0.1,0.1-0.2,0.2-0.2,0.4c0.4-0.1,0.8-0.3,1.2-0.4c1-0.3,2-0.8,3-1.3
			c0,0,0,0,0,0c2.3-3.9,4.9-8.4,7.3-12.7c1.5,0.7,2.7,1.3,3.5,1.8c0.3-0.5,0.6-1,0.9-1.5c-1.2-0.6-2.4-1.3-3.6-1.8
			c2.1-3.8,4-7.2,5.1-9.6c0.5-1,1.1-2.2,1.8-3.5c1,0.5,1.8,0.9,2.5,1.3c0.2-0.6,0.3-1.1,0.5-1.7c-0.7-0.4-1.5-0.7-2.2-1
			c1.1-2,2.3-4.2,3.6-6.4c0.1-1.4,0.2-2.9,0.2-4.3c-1.6,3.2-3.3,6.6-5.1,10.1c-4.4-1.8-8.9-3.3-13.4-4.5c2.5-5.1,5.3-9.9,8.1-14.2
			c3.8,0.9,7.2,1.9,10,2.8c-0.1-0.7-0.3-1.5-0.5-2.2c-2.7-1-5.5-1.9-8.2-2.6c1.3-1.9,2.5-3.6,3.8-5.3c-0.5-0.5-1-0.9-1.6-1.3
			c-1.5,1.9-3,3.9-4.4,6c-3.8-0.9-7.6-1.5-11.2-2c1.3-2.4,2.5-4.6,3.7-6.6c-0.8,0.1-1.6,0.2-2.4,0.3c-1,1.9-2.1,4-3.2,6.1
			c-4.2-0.4-8.1-0.6-11.7-0.6c-1.4,0.8-2.8,1.7-4.1,2.7c-0.6,1.4-1.3,3.1-2.1,5.2c-0.8,2.3-1.7,4.9-2.7,7.7c-3-0.2-5.8-0.3-8.3-0.3
			c-0.6,0.8-1.2,1.6-1.8,2.4c3.3,0,6.5,0,9.5,0.1c-1,3.1-2.1,6.5-3.1,9.9c-0.2,0.6-0.3,1.1-0.5,1.7c-4.8-0.5-9.3-0.7-13-0.9
			c-0.4,0.7-0.7,1.3-1.1,2c1.5,0,2.9,0,4.3,0.1c-0.5,0.8-1,1.6-1.5,2.4c-0.3,2.4-0.7,5.1-1,7.8c-2.1-0.3-4.3-0.5-6.5-0.7
			c-0.2,0.5-0.4,0.9-0.6,1.4c1.7,0.2,4.1,0.4,6.9,0.9c-0.4,3.4-0.8,6.9-1,10.2c-3.2-0.4-6.5-0.6-9.8-0.7c-0.4,1.3-0.6,2.1-0.6,2.1
			l0,0c3,0,6.5,0.1,10.4,0.6c-0.1,1.9-0.1,3.7-0.1,5.4c0.5,0,1,0,1.6,0c0-1.7,0-3.5,0.1-5.2c2.7,0.4,5.5,0.9,8.4,1.6
			c-0.1,1.2-0.1,2.4-0.1,3.6c0.5,0,1.1,0,1.7-0.1c0-1,0-2,0-3.1c2.6,0.7,5.2,1.5,7.9,2.5c1.6-0.2,3.2-0.4,4.9-0.6
			C135.8,93.1,135.6,93,135.4,93z M145.8,84c-2.7-1.1-5.7-2.1-8.8-3.2c0.7-4,1.5-8.4,2.7-12.9c3.2,0.7,6.1,1.4,8.7,2.1
			C146.8,75.8,146.1,80.5,145.8,84z M140.1,66.3c1.1-4.1,2.4-8.4,3.9-12.6c3.5,0.5,6.7,1,9.6,1.7c-2.1,4.8-3.6,9.1-4.7,13.1
			C145.9,67.6,143,66.9,140.1,66.3z M153.4,86.2c-0.2,0.3-0.4,0.5-0.6,0.8c-1.6-0.7-3.4-1.5-5.4-2.3c0.4-4.1,1.2-8.9,2.6-14.1
			c4.5,1.4,8.1,2.8,10.9,4C158.2,79.1,155.7,83.2,153.4,86.2z M168.8,60.1c-2.3,4.4-4.7,8.8-7.1,13c-3.7-1.6-7.5-3-11.3-4.2
			c1.1-3.7,2.5-7.6,4.3-11.6c0.2-0.5,0.5-1,0.7-1.5C161.3,57.1,165.7,58.7,168.8,60.1z M151.1,37.4c3.8,0.5,7.5,1.3,10.9,2.1
			c-1.9,3-3.7,6.1-5.4,9.4c-0.8,1.7-1.6,3.3-2.3,4.9c-3.2-0.8-6.5-1.4-9.6-1.9C146.8,46.5,148.9,41.6,151.1,37.4z M137.1,36.4
			c4,0,8.1,0.3,12.1,0.8c-2.3,4.6-4.5,9.5-6.4,14.4c-4.2-0.6-8.2-1-11.9-1.3C132.2,47.2,134.9,41.2,137.1,36.4z M130.2,52.4
			c4.3,0.2,8.3,0.5,12,1c-0.3,0.7-0.5,1.5-0.8,2.2c-1.1,3.3-2.1,6.7-3,10.3c-4.1-0.8-8.1-1.4-11.8-1.8
			C127.6,60,128.9,56.1,130.2,52.4z M126.1,65.9c4.3,0.4,8.2,1,11.9,1.7c-1,4.3-1.9,8.7-2.5,12.8c-3.6-1.1-7.4-2.2-11.4-3.1
			C124.5,73.5,125.2,69.6,126.1,65.9z M121.8,89c-2.7-0.6-5.5-1.2-8.4-1.6c0.2-3.6,0.5-7,0.9-10.2c2.5,0.4,5.3,1,8.4,1.7
			C122.2,82.4,122,85.8,121.8,89z M122.9,77.1c-2.7-0.6-5.5-1.1-8.4-1.5c0.6-4.1,1.2-7.7,1.8-10.3c3,0.1,5.9,0.3,8.7,0.6
			C124.1,69.5,123.4,73.3,122.9,77.1z M133.7,92.4c-3-1-6.5-2.1-10.4-3c0.1-2.5,0.2-5.3,0.4-8.4c0-0.6,0.1-1.2,0.1-1.7
			c3.5,0.9,7.3,1.9,11.2,3.3C134.5,86.2,134,89.6,133.7,92.4z"/>
		<path class="st3" d="M165.7,30.3c3.8,8.1,2,20.9-5.1,32.7c-8.4,14-31.6,25.3-43.9,21c-5.5-1.9-7.2-8.4-7.4-15.1
			c-5.5,10.9-8,19.7-8,19.7l1.5,5.4c0,0,26.8,3.1,49.2-4.6C171.1,82.8,184.4,39.1,165.7,30.3z"/>
		<path class="st4" d="M159.6,29.2c0,0-12.8,0.8-22.7,7.9c-9.9,7.1-10.7,10.1-10.7,10.1l5.5-1C131.8,46.1,141,34.3,159.6,29.2z"/>
		<path class="st4" d="M124.7,49.7l5.9-0.8c0,0-3.2,2.4-8.1,9.3c-4.9,6.9-6.1,9.9-6.1,9.9S117.9,57.2,124.7,49.7z"/>
		<path class="st4" d="M131.2,92.1c0,0,24.1-5.1,31.4-16c0,0-2.6,8.5-10.5,11.2C145.6,89.7,137.5,93.3,131.2,92.1z"/>
	</g>
	<g>
		<path class="st0" d="M0,48.2c0.3-10,5-15.8,13.2-16.2c1.5-0.1,3.2,0,5,0.3c13.3,2.2,26.5,12.8,38,30.8
			c8.6,13.5,13.4,26.5,13.4,26.6c0.1,0.2,0.1,0.5,0.1,0.7L69,95.8c-0.1,0.5-0.4,0.9-0.9,1c-0.2,0-4.6,0.9-11.3,1.2
			c-8.2,0.5-20.4,0.2-31.8-3.6C11.6,90.1-0.5,64.6,0,48.2z"/>
		<path class="st1" d="M68.6,90c0,0-18.6-51.3-50.4-56.5c-31.8-5.2-12.8,53,7.2,59.6c20,6.6,42.5,2.3,42.5,2.3L68.6,90z"/>
		<path class="st2" d="M39.5,96.3c1.4,0.2,2.9,0.3,4.2,0.4c2.2-1.1,4.3-2.1,6.4-2.8c0.1,1.1,0.3,2.1,0.4,3.1c0.5,0,1,0,1.4,0
			c-0.2-1.1-0.3-2.3-0.5-3.5c2.4-0.8,4.8-1.5,7-2c0.2,1.7,0.5,3.4,0.6,5.2c0.5,0,0.9-0.1,1.3-0.1c-0.1-1.7-0.4-3.4-0.7-5.3
			c3.2-0.6,6.2-0.9,8.8-1.1l0,0c0,0-0.3-0.7-0.8-2c-2.9,0.2-5.7,0.6-8.3,1.1c-0.6-3.3-1.3-6.7-2-10.1c2.4-0.6,4.3-0.9,5.8-1.2
			c-0.2-0.4-0.5-0.9-0.7-1.4c-1.8,0.3-3.7,0.6-5.4,1c-0.6-2.7-1.2-5.3-1.7-7.7c-0.5-0.8-1-1.5-1.6-2.3c1.2-0.1,2.4-0.2,3.7-0.3
			c-0.4-0.6-0.8-1.3-1.2-1.9c-3.2,0.3-6.9,0.7-11,1.5c-0.2-0.6-0.4-1.1-0.6-1.7c-1.3-3.4-2.5-6.7-3.7-9.7c2.5-0.2,5.2-0.4,8.1-0.5
			c-0.6-0.8-1.2-1.5-1.8-2.3c-2.1,0.1-4.5,0.3-7.1,0.7c-1.1-2.7-2.2-5.2-3.1-7.5c-0.9-2-1.7-3.6-2.3-5c-1.2-0.9-2.5-1.7-3.8-2.5
			c-3.1,0.2-6.4,0.5-9.9,1.2c-1.2-2.1-2.3-4.1-3.4-5.9c-0.7-0.1-1.4-0.2-2.1-0.2c1.2,1.9,2.5,4.1,3.9,6.4c-3.1,0.6-6.2,1.4-9.4,2.5
			c-1.5-2-3-4-4.5-5.8c-0.4,0.4-0.9,0.9-1.2,1.4c1.2,1.6,2.5,3.3,3.8,5.1c-2.3,0.8-4.5,1.8-6.7,3c-0.1,0.7-0.1,1.4-0.2,2.2
			c2.3-1,5.1-2.2,8.2-3.3c2.9,4.1,5.8,8.7,8.5,13.7c-3.7,1.4-7.4,3-10.9,5.1c-1.9-3.4-3.8-6.7-5.5-9.8c0.2,1.4,0.4,2.8,0.7,4.2
			c1.3,2.1,2.6,4.3,3.8,6.2c-0.6,0.4-1.2,0.7-1.8,1.1c0.2,0.6,0.4,1.1,0.6,1.7c0.5-0.4,1.2-0.9,2-1.4c0.7,1.2,1.3,2.3,1.9,3.3
			c1.3,2.3,3.2,5.6,5.5,9.3c-1,0.6-1.9,1.3-2.8,2c0.3,0.5,0.6,1,1,1.5c0.7-0.5,1.6-1.2,2.8-1.9c2.5,4.1,5.3,8.5,7.7,12.3
			c0,0,0,0,0,0c0.9,0.5,1.8,0.9,2.7,1.2c0.4,0.1,0.7,0.2,1.1,0.4c-0.1-0.1-0.2-0.2-0.2-0.3c1-0.8,2.1-1.5,3.1-2.2
			c0,0.3,0.1,1.6,0.2,3.4c0.5,0.1,1,0.3,1.6,0.4c-0.3-2.3-0.5-4.1-0.5-4.6c2.4-1.5,4.9-2.9,7.3-4.1c0.9,3.7,1.6,7.1,2.2,9.9
			C39.8,96.1,39.7,96.2,39.5,96.3z M26.4,73.9c2.2-0.9,4.6-1.7,7.2-2.5c1.5,4.5,2.7,8.8,3.7,12.7c-2.6,1.2-5,2.4-7.2,3.6
			C29.5,84.2,28.3,79.5,26.4,73.9z M25.8,72.2c-1.4-3.9-3.2-8.1-5.5-12.8c2.4-0.8,5-1.5,8-2.1c1.8,4.1,3.4,8.3,4.8,12.4
			C30.6,70.4,28.2,71.3,25.8,72.2z M16.2,79c2.2-1.3,5.2-2.9,8.8-4.5c1.8,5.1,3,9.8,3.8,13.9c-1.6,0.9-3.1,1.7-4.4,2.6
			c-0.2-0.3-0.4-0.5-0.6-0.8C21.6,87.3,19,83.4,16.2,79z M18.7,60c0.3,0.5,0.5,1,0.8,1.5c2,3.9,3.6,7.7,5,11.3
			c-3.2,1.3-6.2,2.9-9.2,4.7c-2.5-4-5-8.3-7.5-12.5C10.3,63.4,13.9,61.6,18.7,60z M27.4,55.6c-2.6,0.6-5.3,1.4-8,2.3
			c-0.8-1.5-1.6-3.1-2.5-4.7c-1.8-3.2-3.7-6.2-5.6-9.1c2.8-0.9,5.9-1.8,9.1-2.6C22.7,45.7,25.1,50.3,27.4,55.6z M38.9,53.4
			c-3.1,0.4-6.5,1-10,1.8c-2.2-4.8-4.6-9.5-7-14c3.4-0.7,6.8-1.2,10.3-1.4C34.6,44.6,37.6,50.4,38.9,53.4z M44.3,67
			c-3.2,0.6-6.5,1.4-9.9,2.3c-1.1-3.5-2.4-6.9-3.7-10.1c-0.3-0.7-0.6-1.4-0.9-2.2c3.1-0.6,6.4-1.1,10.1-1.5
			C41.4,59.1,42.9,62.9,44.3,67z M47.9,80c-3.3,1.1-6.5,2.3-9.4,3.6c-1-4-2.2-8.3-3.6-12.6c3-0.9,6.3-1.6,9.9-2.3
			C46.1,72.3,47.1,76.1,47.9,80z M49.3,81.4c2.5-0.9,4.9-1.5,7-2.1c0.7,3.1,1.4,6.5,1.9,10.1c-2.5,0.6-4.8,1.2-7,2
			C50.6,88.3,50,84.9,49.3,81.4z M45.8,68.5c2.3-0.4,4.8-0.7,7.4-1c0.8,2.6,1.7,6.1,2.7,10.2c-2.4,0.6-4.7,1.2-7,1.9
			C48,75.9,47,72.2,45.8,68.5z M39.1,85.5c3.2-1.5,6.3-2.8,9.2-3.8c0.1,0.6,0.2,1.1,0.3,1.7c0.5,3.1,0.9,5.9,1.3,8.4
			c-3.2,1.1-6.1,2.4-8.5,3.5C40.8,92.6,40,89.2,39.1,85.5z"/>
		<path class="st3" d="M7.1,35.2c-2.3,8.2,0.7,20.8,8,32.2c8.8,13.5,29.8,23.7,39.8,18.8c4.4-2.2,5.2-8.6,4.6-15.3
			c5.9,10.5,9,19.2,9,19.2l-0.7,5.5c0,0-22.5,4.3-42.5-2.3C8.4,87.6-7.9,44.8,7.1,35.2z"/>
		<path class="st4" d="M12.2,33.8c0,0,11,0.2,20.3,6.8c9.2,6.6,10.2,9.5,10.2,9.5l-4.8-0.7C37.8,49.3,28.6,38,12.2,33.8z"/>
		<path class="st4" d="M44.3,52.5L39.2,52c0,0,3,2.2,7.9,8.8c5,6.6,6.3,9.5,6.3,9.5S50.9,59.6,44.3,52.5z"/>
		<path class="st4" d="M43.5,95c0,0-21.1-4-28.6-14.4c0,0,3.1,8.3,10.2,10.7C30.9,93.2,38.2,96.5,43.5,95z"/>
	</g>
	<path class="st5" d="M61.3,31.3c0,0-3.1-7-2.6-12.8c0.5-5.8,2.9-14.1,2.9-14.1s-1.3-1.8,0.8-3.9c2.1-2,5.3,3.9,3.5,4.8
		C64.2,6.3,63.7,6,63.7,6s-3.4,6-3.1,13.2c0.3,7.2,2.6,10.6,2.6,10.6S62.2,31.6,61.3,31.3z"/>
	<path class="st5" d="M75.8,31.2c0,0,3.1-7,2.6-12.8c-0.5-5.8-2.9-14.1-2.9-14.1s1.3-1.8-0.8-3.9c-2.1-2-5.3,3.9-3.5,4.8
		c1.8,0.9,2.3,0.7,2.3,0.7s3.4,6,3.1,13.2c-0.3,7.2-2.6,10.6-2.6,10.6S74.9,31.4,75.8,31.2z"/>
	<g>
		<g>
			<path class="st6" d="M50.1,98.1c-0.5-0.3-5.9-3.7-11.2-3.7c-0.4,0-0.8,0-1.2,0.1c-5.2,0.5-6.7,6.5-7.6,9.6
				c-0.2,0.6-0.3,1.1-0.4,1.4c-0.3,0.8-2.4,7.6-0.8,9.9c0.4,0.6,1,0.9,1.7,0.9c0.2,0,0.3,0,0.5-0.1c2-0.4,4.1-4.2,7.6-13.3
				c0.1-0.3,0.2-0.6,0.3-0.8c0.4,0,0.9,0.1,1.4,0.2c0.6,0.1,1.3,0.2,2,0.3c0.3,0,0.9,0.2,1.6,0.3c1.4,0.3,3.1,0.6,4.5,0.6h0
				c0.2,0,0.4,0,0.5,0c1.3-0.1,2.3-1,2.6-2.3C51.9,100,51.3,98.8,50.1,98.1z"/>
			<path class="st7" d="M49.5,99.1c0,0-6.3-4.1-11.6-3.5c-5.3,0.6-6.3,8.5-7,10.3c-0.7,1.8-2.6,9.8,0,9.2c2.6-0.6,6.8-13.1,7.2-13.8
				c0.4-0.7,2.4,0,4.4,0.2c1.1,0.1,4.5,1.1,6.4,0.9C50.5,102.3,51.3,100.2,49.5,99.1z"/>
		</g>
		<g>
			<path class="st6" d="M54.3,103.6c-0.5-1.6-1.1-3.1-2.6-3.1c-0.7,0-1.2,0.4-1.7,0.7c-0.2,0.1-0.4,0.3-0.7,0.4
				c-0.5,0.2-4.2,2.1-8.3,7.7c-3.4,4.6-6,12.6-4.8,15c0.3,0.6,0.9,1,1.5,1c0,0,0,0,0,0c0.3,0,0.6-0.1,0.9-0.3
				c1.6-0.8,3.4-3.6,6.1-7.6c1.3-2,2.7-4.1,3.5-4.9c0.5-0.5,1.2-1,1.9-1.6C52.5,109.1,55.4,106.9,54.3,103.6z"/>
			<path class="st7" d="M49.9,102.6c0,0-3.7,1.7-7.9,7.4c-4.2,5.7-6.3,15.3-3.9,14c2.4-1.3,7.2-10.1,9.4-12.3
				c2.2-2.2,6.8-4.2,5.7-7.7C52.1,100.4,51.5,101.7,49.9,102.6z"/>
		</g>
		<g>
			<path class="st6" d="M58.6,107.8c-1-1.6-2.8-2.4-4.7-2.1c-0.4,0.1-0.7,0.3-0.9,0.7c-0.2,0.4-3.8,8.8-3.6,12.9
				c0,0.1,0.9,11.3,4.5,11.3h0c0.2,0,0.4,0,0.6-0.1c0.6-0.2,2.5-0.8,1.4-11.1c0.5-1.2,2.5-6.5,3.2-7.7
				C59.6,110.6,59.4,109.1,58.6,107.8z"/>
			<path class="st7" d="M54.1,106.9c0,0-3.7,8.5-3.5,12.3c0.2,3.9,1.8,10.7,3.5,10.1c1.7-0.6,0.6-10.1,0.6-10.1s2.6-6.6,3.3-8.1
				C58.7,109.7,57.3,106.3,54.1,106.9z"/>
		</g>
		<path class="st8" d="M37.4,95.8c0,0-3.8,1.5-4.1,4.3c-0.3,2.8,2.7-1.9,5.3-2.5C41.3,97,41,95.4,37.4,95.8z"/>
		<path class="st8" d="M44.7,107.9c0,0-2.2,1-3.3,3.6c-1.2,2.6,2.4,0,3.4-1.3C45.7,108.8,46,107.4,44.7,107.9z"/>
		<path class="st8" d="M52.1,114.7c0,0-1,1.2-1,3.3c0,2.1,0.5,3.3,1.2,2.1C53,118.9,54,113.7,52.1,114.7z"/>
	</g>
	<g>
		<path class="st9" d="M124.7,105.4c-3.5-13-9-21.4-29.1-30.9c-4.3-2-9.2-3.1-14.3-3.1c-12,0-23.6,5.8-28.5,11.2
			c-1.7,1.9-2.6,3.8-2.6,5.5c-1,2.4-5.1,14.2,0.9,31.2c6.1,17.3,27.3,26.3,45.1,26.3c0,0,0,0,0,0c2.6,0,5.1-0.2,7.4-0.6
			c7.1-1.1,13-4.9,16.9-10.9C126.4,125.3,126.8,113.3,124.7,105.4z"/>
		<path class="st10" d="M52,88.4c0,0-5.6,12.1,0.8,30.3c6.4,18.2,31.6,27.6,50.7,24.7c19-2.9,23.1-24.7,19.6-37.5
			c-3.5-12.9-8.8-20.6-28.2-29.8C75.6,67,51.2,81.4,52,88.4z"/>
		<path class="st11" d="M122,102.3c-1.8-5.4-4.2-9.9-8.3-14c-1.4,2.2-4,5.3-7.9,5.7c-6,0.5-3,5-7.5,7c-4.5,2-6.3-3-11-2
			c-4.8,1-4.8,6.5-6.3,7.3c-1.5,0.8-6-2.3-10.8-3c-4.8-0.8-6,3.8-8.3,4.5c-2.3,0.8-4-1-8.3-1.8c-1.6-0.3-2.8,0.1-3.8,0.7
			c0.4,3.6,1.2,7.7,2.8,12.1c0.4,1.1,0.9,2.2,1.4,3.3c1.5,0.1,3.2,0.4,5.1,1c6.3,2,6.5-0.5,8.3-4.5c1.8-4,5.5-1.8,10,0.5
			c4.5,2.3,6.5,1.8,9.3-4c2.8-5.8,6.5-6.8,11.5-5c5,1.8,7.8-3.8,9.8-6.5c2-2.8,5.3-1.8,10.8-0.5C120.3,103.3,121.3,103,122,102.3z"
			/>
		<path class="st11" d="M116.3,113.4c-6-1-3.8-0.8-9.3,4.8c-5.5,5.5-3,6.3-11,5c-8-1.3-3.3,0.8-9.8,5.3c-6.5,4.5-9.8,0.3-15.3,0
			c-5.3-0.2-6,5.3-6,5.7c3.1,2.2,6.6,4.1,10.3,5.6c1.3-1.7,3.2-2.9,5.5-2.1c4,1.5,10-0.8,12.3-4.8c2.3-4,6-2.8,11.8-2.8
			c5.8,0,7.8-2,11-6c2-2.4,4.7-0.2,6.6,2c1.4-4.3,1.9-8.9,1.7-13.1C121.9,114.9,121.2,114.3,116.3,113.4z"/>
		<path class="st12" d="M121.5,128.8c-10.9,10.1-30,6.2-40.2-12.1C67,91.2,92.5,78.2,93.3,78.2l0.7-2.5C74.9,67.4,51.2,81.5,52,88.4
			c0,0-5.6,12.1,0.8,30.3c6.4,18.2,31.6,27.6,50.7,24.7C112.8,141.9,118.5,136,121.5,128.8z"/>
		<path class="st12" d="M121.8,128.1c-5.3,4.7-8.9,5.5-21.7,6.9c-17,1.9-37.3-5.7-46.3-13.8c7.7,16.6,31.5,25,49.7,22.2
			C113.1,141.9,118.8,135.6,121.8,128.1z"/>
		<path class="st13" d="M71.5,133.7c-12.2-6.4-18.7-20.2-21.7-29.1c0.3,4.1,1.1,8.8,3,14.1c6.4,18.2,31.6,27.6,50.7,24.7
			c4.2-0.7,7.7-2.2,10.6-4.5C100.9,143.7,84.8,140.7,71.5,133.7z"/>
		<path class="st14" d="M95.5,79.3c0,0-6.2,2.2,3.7,13.5c9.9,11.3,19,35.8,22.6,28.1C125.4,113.3,117.8,82.6,95.5,79.3z"/>
		<path class="st15" d="M105.6,83.6c0,0-1.6,1.1,2.2,4c3.8,2.9,9,12.4,10.2,14.2C119.2,103.7,116.4,88.4,105.6,83.6z"/>
		<path class="st15" d="M120.2,104.2c0,0-2.2-0.8-0.7,3.6c1.6,4.4,2.6,10.8,2.6,10.8S124,109.8,120.2,104.2z"/>
	</g>
	<path class="st9" d="M104,50.8c-0.3-0.2-0.6-0.5-0.9-0.6c-1-0.7-3.2-2.4-6-4.5c-6.9-5.3-17.5-13.4-22.5-16.4
		c-2.1-1.2-4.3-1.8-6.6-1.6c-2.3-0.2-4.6,0.4-6.6,1.6c-5,3-15.6,11.1-22.5,16.4c-2.8,2.1-4.9,3.8-6,4.5c-0.3,0.2-0.6,0.4-0.9,0.6
		c-7.7,5.4-14.7,11.2-13.4,16.5c1.3,5.4,4.3,17.9,19.9,22.6c8.4,2.5,16.7,3.8,24.6,3.8c1.6,0,3.2-0.1,4.8-0.2
		c1.6,0.1,3.2,0.2,4.8,0.2c0,0,0,0,0,0c7.9,0,16.2-1.3,24.6-3.8c15.7-4.7,18.7-17.2,19.9-22.6C118.7,61.9,111.7,56.2,104,50.8z"/>
	<path class="st13" d="M102.1,51.5c-3.6-2.6-21.4-16.7-28.3-20.9c-2-1.2-4-1.5-5.8-1.4c-1.8-0.2-3.8,0.2-5.8,1.4
		c-7,4.1-24.7,18.3-28.3,20.9c-3.6,2.6-14.9,10-13.7,15.5c1.3,5.4,4.1,17,18.8,21.4c9.4,2.8,19.3,4.2,29,3.6
		c9.7,0.7,19.6-0.8,29-3.6c14.7-4.4,17.5-16,18.8-21.4C117.1,61.5,105.7,54,102.1,51.5z"/>
	<path class="st16" d="M101.9,47.9l-73.5,3c0,0-3.6,15.1,12.1,21.2C54.1,77.3,65,70.6,70,62.8c1.5,2.1,4.4,4.8,10.3,6.4
		c10.7,2.9,20.4-2.5,25-8.3C109.8,55.2,101.9,47.9,101.9,47.9z"/>
	<g>
		<path class="st17" d="M27.9,49.9c0,11.9,9.7,21.6,21.6,21.6c11.9,0,21.6-9.7,21.6-21.6c0-11.9-9.7-21.6-21.6-21.6
			C37.6,28.3,27.9,38,27.9,49.9z"/>
		<path class="st18" d="M29.3,49.9c0,11.2,9.1,20.3,20.3,20.3c11.2,0,20.3-9.1,20.3-20.3c0-11.2-9.1-20.3-20.3-20.3
			C38.3,29.7,29.3,38.7,29.3,49.9z"/>
		<path class="st19" d="M47.6,66.5c11.2,0,20.3-9.1,20.3-20.3c0-2.6-0.5-5.1-1.4-7.4c2.1,3.2,3.3,7,3.3,11.1
			c0,11.2-9.1,20.3-20.3,20.3c-8.6,0-15.9-5.3-18.9-12.9C34.3,62.8,40.5,66.5,47.6,66.5z"/>
		<path class="st20" d="M51.7,49.6c0,4.7,3.8,8.5,8.5,8.5c4.7,0,8.5-3.8,8.5-8.5c0-4.7-3.8-8.5-8.5-8.5
			C55.5,41.1,51.7,44.9,51.7,49.6z"/>
		<path class="st18" d="M51.6,45.5c0,2,1.6,3.6,3.6,3.6c2,0,3.6-1.6,3.6-3.6c0-2-1.6-3.6-3.6-3.6C53.2,41.9,51.6,43.5,51.6,45.5z"/>
		<path class="st21" d="M62.5,53.2c0,1.3,1.1,2.4,2.4,2.4c1.3,0,2.4-1.1,2.4-2.4c0-1.3-1.1-2.4-2.4-2.4
			C63.6,50.8,62.5,51.8,62.5,53.2z"/>
	</g>
	<g>
		
			<ellipse transform="matrix(3.285649e-02 -0.9995 0.9995 3.285649e-02 37.1263 136.2091)" class="st17" cx="88.9" cy="48.9" rx="18.8" ry="18.8"/>
		<path class="st18" d="M71.3,48.9c0,9.7,7.9,17.6,17.6,17.6c9.7,0,17.6-7.9,17.6-17.6c0-9.7-7.9-17.6-17.6-17.6
			C79.2,31.3,71.3,39.2,71.3,48.9z"/>
		<path class="st19" d="M87.3,63.4c9.7,0,17.6-7.9,17.6-17.6c0-2.3-0.4-4.4-1.2-6.4c1.8,2.8,2.9,6.1,2.9,9.6
			c0,9.7-7.9,17.6-17.6,17.6c-7.5,0-13.9-4.7-16.4-11.2C75.7,60.2,81.1,63.4,87.3,63.4z"/>
		<path class="st20" d="M71.9,49.8c0,4.1,3.3,7.4,7.4,7.4c4.1,0,7.4-3.3,7.4-7.4c0-4.1-3.3-7.4-7.4-7.4
			C75.2,42.5,71.9,45.8,71.9,49.8z"/>
		<path class="st18" d="M71.8,46.3c0,1.7,1.4,3.2,3.2,3.2c1.7,0,3.2-1.4,3.2-3.2c0-1.7-1.4-3.2-3.2-3.2
			C73.2,43.1,71.8,44.6,71.8,46.3z"/>
		<path class="st21" d="M81.2,53c0,1.2,0.9,2.1,2.1,2.1c1.2,0,2.1-0.9,2.1-2.1c0-1.2-0.9-2.1-2.1-2.1C82.2,50.9,81.2,51.8,81.2,53z"
			/>
	</g>
	<path class="st9" d="M27.1,64.6c0,0,7.7,12.5,31.1,14.3c23.4,1.8,39.1-4.4,48.4-11.9c0,0-2.6-4.4-0.4-3.2c2.2,1.2,5.6,4,4,4
		c-1.6,0-2.4-0.8-2.4-0.8s-8.4,11.9-33.4,13.6C50.7,82,38.7,78.2,26.2,65.6c0,0-4.8,0.2,0.4-3.2C31.7,59,29.7,62.8,27.1,64.6z"/>
	<path class="st12" d="M50,82.3c0,0,7.7,5.7,20.1,4.8c12.5-0.8,18-6,18-6s-4.2,6.8-10.3,8.7C71.6,91.6,54.8,91.3,50,82.3z"/>
	<path class="st9" d="M48.8,81.2c0,0,19.9,12.6,40.1-1.2c0,0,0.2,1.5-3.8,3.9c-4,2.4-12.8,5.2-21.2,4C55.6,86.7,50.1,83.8,48.8,81.2
		z"/>
	<path class="st16" d="M115.8,66.9c0.3-1.1,0-2.3-0.6-3.6c-2.1,5.3-6.1,10.7-13.2,14.8C82.3,89.4,59.3,90,38.4,81.5
		C24.7,76,21.7,67.7,21.2,62.7c-0.9,1.5-1.4,2.9-1,4.3c1.3,5.4,4.1,17,18.8,21.4c9.4,2.8,19.3,4.2,29,3.6c9.7,0.7,19.6-0.8,29-3.6
		C111.7,83.9,114.5,72.3,115.8,66.9z"/>
	<path class="st22" d="M76.8,83.7c0,1.3-3.1,2.4-7,2.4c-3.9,0-7-1.1-7-2.4c0-1.3,3.1-2.4,7-2.4C73.7,81.3,76.8,82.4,76.8,83.7z"/>
	<path class="st22" d="M67.8,68.3c0,0-16.5,9.1-5.8,9.4s19.7-0.2,23-2.5C83.1,71.6,72.5,66.1,67.8,68.3z"/>
	<path class="st23" d="M88.9,95.4c0,0-3.1,6.9-3.7,9.8c-0.5,3-1.6,6.6,0,6.5c1.6-0.1,6.8-5.5,8.5-7.2c1.7-1.8,5.2-2.7,4.2-1.6
		c-1,1.1-1.5,8.2-3.8,10.5c-2.3,2.2-4.4,8.7-3.4,10.3c1,1.6,5.1-4.2,6.9-7.3c1.8-3.1,3.7-6.1,3.9-6.3c0.3-0.2,2.5,1.2,2.5,1.2
		s0.9,6.5,1.5,8.9c0.6,2.3,1.9,5.5,3.4,3.8c1.5-1.8-1.5-10.4-1.3-13.1c0.3-2.7-0.3-5.2-0.9-6.3c-0.6-1.1-5-3-6.1-4.9
		c-1.1-1.9-5.3-4.7-5.9-4.7C94.2,94.8,88.9,95.4,88.9,95.4z"/>
	<g>
		<g>
			<path class="st6" d="M99.1,94.1c-0.5-0.3-5.9-3.7-11.2-3.7c-0.4,0-0.8,0-1.2,0.1c-5.2,0.5-6.7,6.5-7.6,9.6
				c-0.2,0.6-0.3,1.1-0.4,1.4c-0.3,0.8-2.4,7.6-0.8,9.9c0.4,0.6,1,0.9,1.7,0.9c0.2,0,0.3,0,0.5-0.1c2-0.4,4.1-4.2,7.6-13.3
				c0.1-0.3,0.2-0.6,0.3-0.8c0.4,0,0.9,0.1,1.4,0.2c0.6,0.1,1.3,0.2,2,0.3c0.3,0,0.9,0.2,1.6,0.3c1.4,0.3,3.1,0.7,4.5,0.7h0
				c0.2,0,0.4,0,0.5,0c1.3-0.1,2.3-1,2.6-2.3C100.9,96,100.3,94.8,99.1,94.1z"/>
			<path class="st7" d="M98.5,95.1c0,0-6.3-4.1-11.6-3.5c-5.3,0.6-6.3,8.5-7,10.3c-0.7,1.8-2.6,9.8,0,9.2c2.6-0.6,6.8-13.1,7.2-13.8
				c0.4-0.7,2.4,0,4.4,0.2c1.1,0.1,4.5,1.1,6.4,0.9C99.5,98.3,100.4,96.1,98.5,95.1z"/>
		</g>
		<g>
			<path class="st6" d="M103.3,99.6c-0.5-1.6-1.1-3.1-2.6-3.1c-0.7,0-1.2,0.4-1.7,0.7c-0.2,0.1-0.4,0.3-0.7,0.4
				c-0.5,0.2-4.2,2.1-8.3,7.7c-3.4,4.6-6,12.6-4.8,15c0.3,0.6,0.9,1,1.5,1h0c0.3,0,0.6-0.1,0.9-0.3c1.6-0.8,3.4-3.6,6.1-7.6
				c1.3-2,2.7-4.1,3.5-4.9c0.5-0.5,1.2-1,1.9-1.6C101.5,105.1,104.4,102.9,103.3,99.6z"/>
			<path class="st7" d="M98.9,98.6c0,0-3.7,1.7-7.9,7.4c-4.2,5.7-6.3,15.3-3.9,14c2.4-1.3,7.2-10.1,9.4-12.3
				c2.2-2.2,6.8-4.2,5.7-7.7C101.1,96.4,100.6,97.7,98.9,98.6z"/>
		</g>
		<g>
			<path class="st6" d="M107.6,103.8c-1-1.6-2.8-2.4-4.7-2.1c-0.4,0.1-0.7,0.3-0.9,0.7c-0.2,0.4-3.8,8.8-3.6,12.9
				c0,0.1,0.9,11.3,4.5,11.3h0c0.2,0,0.4,0,0.6-0.1c0.6-0.2,2.5-0.8,1.4-11.1c0.5-1.2,2.5-6.5,3.2-7.7
				C108.6,106.6,108.4,105.1,107.6,103.8z"/>
			<path class="st7" d="M103.2,102.9c0,0-3.7,8.5-3.5,12.3c0.2,3.9,1.8,10.7,3.5,10.1c1.7-0.6,0.6-10.1,0.6-10.1s2.6-6.6,3.3-8.1
				C107.8,105.7,106.3,102.3,103.2,102.9z"/>
		</g>
		<path class="st8" d="M86.5,91.8c0,0-3.8,1.5-4.1,4.3c-0.3,2.8,2.7-1.9,5.3-2.5C90.4,93,90,91.4,86.5,91.8z"/>
		<path class="st8" d="M93.7,103.9c0,0-2.2,1-3.3,3.6c-1.2,2.6,2.4,0,3.4-1.3C94.7,104.8,95,103.4,93.7,103.9z"/>
		<path class="st8" d="M101.1,110.7c0,0-1,1.2-1,3.3c0,2.1,0.5,3.3,1.2,2.1C102,114.9,103,109.7,101.1,110.7z"/>
	</g>
	<ellipse class="st15" cx="71.1" cy="72.9" rx="5.6" ry="2.2"/>
</g>
</svg>
