<svg xmlns="http://www.w3.org/2000/svg" viewBox="0 0 408.4 408.4">
  <circle cx="204.2" cy="204.2" r="194.2" fill="none" stroke="#294362" stroke-width="20" stroke-miterlimit="10"/>
  <path d="M258.9 135.9H149.5c-7.5 0-13.7 6.1-13.7 13.7v109.3c0 7.5 6.1 13.7 13.7 13.7h109.3c7.5 0 13.7-6.1 13.7-13.7V149.5c0-7.5-6.1-13.6-13.6-13.6zm-54.7 41c15.1 0 27.3 12.3 27.3 27.3 0 15.1-12.3 27.3-27.3 27.3s-27.3-12.3-27.3-27.3c0-15.1 12.2-27.3 27.3-27.3zm-51.3 82c-2 0-3.4-1.4-3.4-3.4v-58.1h14.3c-.7 2.1-.7 4.8-.7 6.8 0 22.6 18.5 41 41 41s41-18.5 41-41c0-2 0-4.8-.7-6.8h14.3v58.1c0 2-1.4 3.4-3.4 3.4H152.9zm106-92.3c0 2-1.4 3.4-3.4 3.4h-13.7c-2 0-3.4-1.4-3.4-3.4v-13.7c0-2 1.4-3.4 3.4-3.4h13.7c2 0 3.4 1.4 3.4 3.4v13.7zm0 0" fill="#294362"/>
</svg>