<svg id="parrot" data-name="Layer 1" xmlns="http://www.w3.org/2000/svg" viewBox="0 0 151.54 144.44"><defs><style>.cls-1{fill:#ffe600}.cls-2{fill:#3f3f3f}.cls-3{fill:#565554}.cls-4{fill:#ffcf00}.cls-5{fill:#f85c2c}.cls-6{fill:#fff}</style></defs><path class="cls-1" d="M89 122.79s.18 4.08-2.65 3.38c-2.57-.64-.91-5.06.75-6.84s4.91-2.71 8.4.58-.31 5.46-2.47 1.88c.85 3.65-2.13 7.62-4.03 1z"/><path class="cls-2" d="M94.5 92.56c11.06-27.75.6-90.32-6.65-92.18s-3.72 31.94-2.63 38.47C78.49 12 75.13 14.48 72.15 16.37s4.68 38 4.68 38-4.4-23.78-10.28-23.49 5.23 33.51 5.23 33.51-7.39-18.83-13.67-18.28 9.31 29.41 9.31 29.41-14-20.36-17.27-18.31 34.77 59.37 44.35 35.35z"/><path class="cls-3" d="M88.44 50.22c-1.09-6.52-4.62-40.34 2.63-38.47 1.24.32 2.59 2.44 3.9 5.85C93.81 7.61 91 .36 87.58 0c-8.66-.84-3.58 31.47-2.4 38.58.99 3.08 2.07 6.9 3.26 11.64zM71.13 62.85c-1.93-4.5-8-19.34-13.42-17.44-4.17 1.46-1.41 8.17 2.14 14.28 0-1.3.48-2.11 1.48-2.2C67.61 56.94 75 75.79 75 75.79s-2-6.01-3.87-12.94zm-9.29 5.07C57.76 61.86 52 56 50.15 57.21s1.26 6.18 5.65 12c-4.31-9-3.67-10.36 6.04-1.29zm7.93-25.63c2.43-.12 4.61 3.87 6.32 8.59-1.48-6.6-4.94-20.33-9.54-20-5.26.43 1.16 20.46 3.91 29.37-2.2-8.66-3.76-17.8-.69-17.96zM79.48 63c-1.73-8.51-6.22-28.8-4.11-35.24 1-3.16 5.12-3.48 9.7 10.51-6-27.43-11.14-24.64-13.29-21.84-2.93 3.79 2.53 25.49 4.35 34.57a103.24 103.24 0 0 1 3.35 12z"/><path class="cls-2" d="M56 69.61a.35.35 0 0 1-.11-.1c-1.48-2.19-6.2-9.42-4.82-10.78a1 1 0 0 1 .71-.24c2.49.14 9.63 8.79 10.44 9.78a.31.31 0 0 1 0 .44.3.3 0 0 1-.43 0c-2.15-2.62-8.12-9.44-10-9.54a.27.27 0 0 0-.23.06c-.69.68 2 5.71 4.89 10a.31.31 0 0 1-.4.45zm19.45 8.78a.27.27 0 0 1-.15-.18C72 67.37 64.05 50.8 60.4 51a1.64 1.64 0 0 0-1.47.8c-1.23 2.25 1.91 8.74 3.23 11a.31.31 0 0 1-.54.31c-.2-.36-4.89-8.65-3.23-11.66a2.22 2.22 0 0 1 2-1.12C64.82 50.13 73 68.52 75.89 78a.31.31 0 0 1-.2.39.28.28 0 0 1-.24 0zM80.36 68a.29.29 0 0 1-.14-.15 89.28 89.28 0 0 1-3.51-11.89c-2-7.95-4.32-17-6.9-18.5a1.23 1.23 0 0 0-1-.16 1.76 1.76 0 0 0-1.16 1c-2.4 4.73 4.49 22.21 4.56 22.39a.31.31 0 0 1-.18.4.31.31 0 0 1-.4-.17C71.37 60.17 64.6 43 67.12 38a2.38 2.38 0 0 1 1.57-1.32 1.79 1.79 0 0 1 1.44.23c2.8 1.65 5 10.41 7.18 18.88 1.22 4.8 2.37 9.34 3.48 11.79a.32.32 0 0 1-.16.41.29.29 0 0 1-.27.01zm-1.43-10.73a.33.33 0 0 1-.16-.19c-.41-1.36-10.11-33.41-3.47-36.7a2.17 2.17 0 0 1 2 0c5.9 3 11 31.93 11.22 33.15a.32.32 0 0 1-.26.36.31.31 0 0 1-.36-.25c-.05-.3-5.26-29.8-10.88-32.7a1.5 1.5 0 0 0-1.45 0c-6.18 3.06 3.69 35.63 3.79 36a.33.33 0 0 1-.21.39.35.35 0 0 1-.22-.06z"/><path class="cls-2" d="M88.92 54.33a.31.31 0 0 1-.16-.22c-.37-1.83-9-45-1.11-47.93a2.38 2.38 0 0 1 2.4.43c5.34 4 8.52 30.46 7.69 40.75a.3.3 0 0 1-.33.28.31.31 0 0 1-.29-.33C97.94 37.13 94.88 11 89.68 7.1a1.8 1.8 0 0 0-1.82-.34C82 8.94 86.28 38.61 89.37 54a.31.31 0 0 1-.24.37.37.37 0 0 1-.21-.04zm-24.41 66.96s-47.37 28.1-51.57 22.39c-3-4 8-8.56 8-8.56s-12.87 6.41-14.47 3.33 8.68-7.54 8.68-7.54S1.74 134.1.1 131s17.37-17.12 55.21-21.75c7.1 4.1 9.2 12.04 9.2 12.04z"/><path class="cls-4" d="M.11 130c13.79-7.2 28.62-13.45 44.37-16.88a84 84 0 0 1 13.41-2c.28.24.56.5.83.75A80.06 80.06 0 0 0 45 113.74c-16 3.34-31 9.75-45 17.07a1.33 1.33 0 0 1 .11-.81zm61.15-15.26c.17.24.34.48.5.73a87.63 87.63 0 0 0-12 2.21 158.81 158.81 0 0 0-35 13.3c-.47.1-1.37.3-2.51.51a167.24 167.24 0 0 1 37-14.45 89.79 89.79 0 0 1 12.01-2.3zm2.74 5.04c.11.28.2.53.28.74a98.64 98.64 0 0 0-10.35 2.08 156.06 156.06 0 0 0-33.24 12.58 39.34 39.34 0 0 1-6.45 2.82c-.33.12-.65.23-1 .33C25.7 131.52 39.07 125.6 53.36 122A98.4 98.4 0 0 1 64 119.78z"/><path class="cls-5" d="M119.94 38.79c-11.15-1.72-21 7.28-23 20a22.59 22.59 0 0 0 1.1 11c-11.18 5-28.47 13-42 30C39.1 121.39 61 132.39 82.22 124c26.17-10.27 32.88-39.14 33.62-41.94 5.22-1.6 18.89-5.06 20.74-17.1 1.96-12.72-5.49-24.46-16.64-26.17z"/><path class="cls-2" d="M149.51 66.92c-1.88 3.87-12.74 6.35-17.26.93 3.75-6.85 11.52-9.3 17.26-.93z"/><path class="cls-3" d="M134 53.43s17.6-3.23 17.54 15.63c-3.26-3.09-13.11-3.81-19.29-1.21-2.85-7.34-.84-12.67 1.75-14.42z"/><path class="cls-1" d="M132.3 46.48c-8.81-2-21.65 2.89-22.73 11.4s9.46 11.76 22.55 16c6.64-7.29 5.59-21.58.18-27.4z"/><path class="cls-6" d="M132.59 55.23c.2 2.91-1.72 5.41-4.28 5.58s-4.8-2.05-5-5 1.72-5.41 4.28-5.58 4.81 2.08 5 5z"/><path d="M125.57 55.75a2.93 2.93 0 1 0 3.09-2.75 2.93 2.93 0 0 0-3.09 2.75z" fill="#2f3033"/><path class="cls-6" d="M124.62 55.67a1.71 1.71 0 1 0 1.81-1.61 1.72 1.72 0 0 0-1.81 1.61z"/><path class="cls-5" d="M122.23 62c-.18 1.82-1.43 3.18-2.79 3s-2.32-1.72-2.14-3.53 1.43-3.19 2.79-3 2.32 1.68 2.14 3.53zm.87-22.53c-2.9-2.71-6.65-5.73-8.46-9.31-.17-.33-.74.08-.75.33-.15 2.45-.23 4.9-.3 7.35-.52-.2-1-.41-1.55-.63a13.08 13.08 0 0 1-4.37-2.6.48.48 0 0 0-.73.24 26.53 26.53 0 0 0-.13 7.34c0 .21.16.28.36.25l15.5-2.29c.21.01.63-.41.43-.68z"/><path class="cls-2" d="M93.6 88.85C81.84 61.39 30.25 24.47 23.8 28.27s19.93 25.24 25.3 29.1C25.37 43.1 24.76 47.24 24 50.68S54.14 74.3 54.14 74.3s-19.91-13.73-23.86-9.37S57.64 85 57.64 85 39.09 76.83 35 81.65s27.39 14.26 27.39 14.26-24.3-4.53-25.15-.78 66.54 17.49 56.36-6.28z"/><path class="cls-3" d="M59.41 63.15c-5.37-3.86-31.75-25.3-25.3-29.1 1.11-.65 3.55-.1 6.89 1.39-7.87-6.26-14.95-9.44-17.64-7.24-6.74 5.51 19.7 24.77 25.52 29 2.88 1.49 6.35 3.43 10.53 5.95zm-3.34 21.16c-4.55-1.82-19.32-8-21.82-2.88-1.92 4 4.77 6.79 11.6 8.61-.89-1-1.15-1.84-.5-2.61 4-4.82 22.6 3.31 22.6 3.31s-5.67-2.84-11.88-6.43zm-3 10.15c-7.17-1.41-15.42-1.52-15.83.67s5.24 3.49 12.49 4.54c-9.43-3.36-9.93-4.78 3.34-5.21zM40.59 70.72c1.63-1.81 6-.52 10.54 1.61-5.71-3.63-17.85-10.91-20.85-7.4-3.42 4 15.26 13.67 23.5 18-7.69-4.57-15.25-9.93-13.19-12.21zm21.48 7.79c-7.23-4.81-24.73-16-27.78-22.06-1.5-3 1.16-6.08 14.28.6C25 41.85 23.28 47.47 23.74 51c.61 4.76 19.81 16.28 27.49 21.4a99.69 99.69 0 0 1 10.84 6.11z"/><path class="cls-2" d="M50.15 99.76a.38.38 0 0 1-.15 0c-2.59-.51-11-2.3-11-4.23a.86.86 0 0 1 .32-.67c1.87-1.66 13-.58 14.3-.45a.32.32 0 0 1 .28.34.33.33 0 0 1-.35.28c-3.36-.34-12.41-1-13.81.3-.11.09-.13.16-.13.2 0 1 5.45 2.63 10.51 3.62a.31.31 0 0 1 .25.36.3.3 0 0 1-.22.25zm19.95-7.49a.34.34 0 0 1-.24 0c-10-5.32-27.32-11.48-29.77-8.77a1.59 1.59 0 0 0-.48 1.6c.71 2.46 7.52 4.83 10.09 5.54a.31.31 0 0 1 .21.38.3.3 0 0 1-.38.22c-.39-.11-9.56-2.67-10.52-6a2.22 2.22 0 0 1 .62-2.19c3-3.3 21.74 4 30.52 8.64a.3.3 0 0 1 .13.42.27.27 0 0 1-.18.16zm-3.87-10.84a.28.28 0 0 1-.2 0c-2.57-1-6.61-3.38-10.89-5.94-7-4.2-15-9-17.94-8.23a1.23 1.23 0 0 0-.81.57 1.79 1.79 0 0 0-.11 1.53c1.64 5 18.86 12.56 19 12.63a.31.31 0 0 1 .16.41.3.3 0 0 1-.4.16c-.72-.31-17.65-7.7-19.38-13a2.39 2.39 0 0 1 .17-2 1.82 1.82 0 0 1 1.17-.91c3.2-.81 11 3.82 18.46 8.35 4.25 2.54 8.27 4.93 10.79 5.89a.31.31 0 0 1 0 .59zm-8.58-6.58a.29.29 0 0 1-.24 0C56.15 74.16 26.66 58.31 29 51.29a2.14 2.14 0 0 1 1.45-1.4c6.32-2 30.32 14.84 31.34 15.56a.3.3 0 0 1 .08.43.32.32 0 0 1-.44.07c-.25-.17-24.76-17.38-30.79-15.47a1.51 1.51 0 0 0-1.05 1C27.42 58 57.4 74.12 57.7 74.28a.31.31 0 0 1 .13.42.29.29 0 0 1-.18.15z"/><path class="cls-2" d="M62.66 65.71a.29.29 0 0 1-.27 0c-1.56-1-38.14-25.56-34.64-33.15a2.39 2.39 0 0 1 2-1.4C36.4 30.21 57.31 46.68 64 54.55a.32.32 0 0 1 0 .44.3.3 0 0 1-.43 0c-6.61-7.79-27.2-24.1-33.67-23.21a1.78 1.78 0 0 0-1.52 1c-2.63 5.69 21.36 23.67 34.41 32.38a.3.3 0 0 1 .09.43.31.31 0 0 1-.22.12z"/><path class="cls-4" d="M68.42 75.79a15.27 15.27 0 0 0 1 2.8c-1.31-.75-2.87-1.17-3.57.33a5.28 5.28 0 0 0-.06 3.15A17.92 17.92 0 0 0 67.08 86c-1-.31-2-.45-2.67.29s-.17 2.37.19 3.35a33.28 33.28 0 0 0 3.67 6.81c.22.33 1 0 .76-.33a40.31 40.31 0 0 1-3.11-5.48 7.72 7.72 0 0 1-1-3.59c.12-1.28 1.9-.46 2.7-.1.28.12.78-.13.63-.44-1-2-2-4.4-1.82-6.61 0-.51.17-1.31.85-1.35 1-.07 2.15.9 2.87 1.47.26.21.88 0 .7-.39-1-1.92-2.27-4.53-1.7-6.62.79-2.92 6.57.93 7.87 1.76.33.21 1-.22.65-.45-2-1.28-7.33-4.81-9.1-1.82a4.67 4.67 0 0 0-.15 3.29z"/><path class="cls-4" d="M74.83 80.07a11.13 11.13 0 0 0 .74 2.22c-1-.53-2.19-.76-2.79.37a4 4 0 0 0-.12 2.47 13.77 13.77 0 0 0 1 3.22 2 2 0 0 0-2.09.29c-.62.68-.19 1.89.09 2.68a26.39 26.39 0 0 0 3 5.66c.23.33 1 0 .76-.33A34.47 34.47 0 0 1 73 92.32a7.47 7.47 0 0 1-.89-2.89c0-1.12 1.4-.46 2.08-.16.27.12.78-.12.63-.44a12.45 12.45 0 0 1-1.49-5.15c0-.42.07-1.21.65-1.24.78 0 1.69.74 2.25 1.19.27.2.89-.06.7-.39-.84-1.55-1.78-3.57-1.4-5.26.53-2.43 5.26.71 6.29 1.37.33.21 1-.22.65-.45-1.7-1.1-5.89-3.9-7.47-1.52a3.57 3.57 0 0 0-.17 2.69zm7.53 6.84c-.85-.4-1.76-.49-2.25.43A3.45 3.45 0 0 0 80 89.5a11.68 11.68 0 0 0 .84 2.5 1.74 1.74 0 0 0-1.66.26c-.6.54-.22 1.64 0 2.3a22 22 0 0 0 2.55 4.78c.23.34 1 0 .76-.32a30.44 30.44 0 0 1-2-3.58 6.78 6.78 0 0 1-.77-2.38c-.06-1 1-.44 1.63-.16.28.12.78-.12.64-.44a10.61 10.61 0 0 1-1.25-4.26c0-.29 0-1 .43-1 .65-.06 1.43.62 1.88 1 .27.21.89 0 .71-.39-.7-1.29-1.47-3-1.18-4.37.41-2 4.34.66 5.16 1.18.33.21 1-.23.65-.45-1.5-1-5-3.27-6.39-1.25-.74 1.02-.25 2.66.36 3.99z"/><path class="cls-1" d="M78.31 128.48s.19 4.08-2.64 3.37c-2.57-.63-.91-5 .74-6.83s4.91-2.71 8.41.58-.31 5.46-2.47 1.88c.88 3.65-2.11 7.62-4.04 1z"/><path d="M108.73 84.17a1.07 1.07 0 1 0 1.58-.34 1.16 1.16 0 0 0-1.58.34zm-6.68 5.21a1 1 0 1 0 1.49-.32 1.09 1.09 0 0 0-1.49.32zm5.07 1.04A1.25 1.25 0 1 0 109 90a1.33 1.33 0 0 0-1.88.42zM104 84a.89.89 0 1 0 1.3-.29.94.94 0 0 0-1.3.29zm-5.38 14.72a.89.89 0 1 0 1.43 1 .94.94 0 0 0-.12-1.32 1 1 0 0 0-1.31.32zm-.81 5.43a.94.94 0 0 0 .12 1.33 1 1 0 0 0 1.3-.28.89.89 0 1 0-1.42-1zm7.26-5.37a.89.89 0 1 0 1.31-.28.94.94 0 0 0-1.31.28zm-3.17 3.97a.89.89 0 1 0 1.42 1 .93.93 0 0 0-.12-1.32.94.94 0 0 0-1.3.32zm1.16-8.49a1.06 1.06 0 1 0 1.54-.33 1.12 1.12 0 0 0-1.54.33z" fill="#fd9900"/></svg>