<svg id="Ñëîé_1" xmlns="http://www.w3.org/2000/svg" viewBox="0 0 489.6 489.6">
  <style>
    .st3{opacity:.25}.st3,.st7{fill:#ad2455}
  </style>
  <radialGradient id="SVGID_1_" cx="262.117" cy="182.561" r="287.934" gradientUnits="userSpaceOnUse">
    <stop offset="0" stop-color="#e7a092"/>
    <stop offset="1" stop-color="#a653af"/>
  </radialGradient>
  <circle cx="244.8" cy="244.8" r="244.8" fill="url(#SVGID_1_)"/>
  <path d="M244.8 0C175.4 0 112.7 28.9 68.1 75.4c44-42.2 103.7-68.2 169.5-68.2 135.2 0 244.8 109.6 244.8 244.8 0 65.8-25.9 125.5-68.1 169.5 46.4-44.6 75.3-107.2 75.3-176.7C489.6 109.6 380 0 244.8 0z" opacity=".56" fill="#fff"/>
  <path d="M267.1 241.1c-26.4 8-56.8 8.8-68.8 7.2-12-1.6-5.6 1.6-39.2-2.4s-39.2-1.6-66.4-7.2c-27.2-5.6-33.6-10.4-32.8-22.4.8-12 8.8-13.6-1.6-30.4S27 159.5 27 133.9v-.8c-3.3 6.5-6.4 13.2-9.2 20 5.4 5.7 9.7 11.8 10.8 17.6 3.2 17.6-4.8 37.6 9.6 59.2 14.4 21.6 27.2 24.8 58.4 36.8 31.2 12 60 5.6 86.4 11.2 26.4 5.6 34.4 1.6 61.6 28.8 27.2 27.2 29.6 31.2 30.4 52.8.8 21.6 4 24.8-14.4 41.6s-30.4 25.6-46.4 25.6-34.4 4.8-67.2 2.4c-32.8-2.4-36-18.4-38.4-28-2.4-9.6-14.4-23.2-7.2-44s13.6-30.4 32.8-36c19.2-5.6 55.2 21.6 56 37.6.8 16-8.8 3.2-7.2 22.4 1.6 19.2 13.6 18.4-2.4 20-16 1.6-37.6-3.2-36.8-10.4.8-7.2 3.2-33.6 12-34.4 8.8-.8 10.4 10.4 10.4 10.4s8-7.2 4.8-12-7.2-12-12.8-5.6c-5.6 6.4-14.4-2.4-23.2 10.4-8.8 12.8-22.4 41.6-6.4 51.2 16 9.6 48.8 4 71.2-1.6 22.4-5.6 9.6-10.4 16.8-48 7.2-37.6-12-66.4-30.4-70.4s-79.2-11.2-98.4 4c-19.2 15.2-22.4 34.4-24 55.2-1.6 20.8-.8 36 7.2 63.2.6 2 1 3.8 1.4 5.5 30.7 30.4 69.4 52.8 112.6 63.6 9.2-8.8 19.1-18 29.2-24.3 23.2-14.4 33.6-17.6 57.6-31.2 24-13.6 35.2-16 40.8-40 5.6-24 26.4-20.8 26.4-58.4 0-37.6 4-36.8-6.4-57.6-10.3-20.8-39.1-37.6-65.5-29.6z" opacity=".45" fill="#ad2455"/>
  <path class="st3" d="M.1 250.6c.8-.1 1.5-.1 2.1-.1 8 0 16.1 6.8 19.2 20.4 3.1 13.6 11.1 9.3 15.5 14.2 4.3 5 1.9 21.1.6 25.4-1.2 4.3-6.2 15.5-21.7 18-.4.1-.7.1-1.1.2 3 8.3 6.5 16.5 10.4 24.4 7.9 2 5.2-5.2 14.8-15.8 12.4-13.6 8-18.6 13-37.2s0-21.7-13.6-39-3.7-16.7-14.9-25.4c-6.5-5-16.3-10.7-23.4-14.5-.6 7.7-1 15.6-1 23.6 0 1.9 0 3.9.1 5.8z"/>
  <path class="st3" d="M14.6 291.3c-3.2-5.6-7.7-9.7-12.2-12.4 1.9 13.3 4.8 26.2 8.6 38.8 2.4-.7 4.7-1.6 6.7-2.8 8.7-5 2.5-13.7-3.1-23.6zM451.1 321.9c-6.4-12-19.2-24.8-4.8-39.2 14.4-14.4 20.8-43.2 23.2-14.4 2.4 28.8 12 12.8 5.6 20.8s-18.4 10.4-18.4 10.4 12 9.6 16.8 2.4c4.8-7.2 9.6-12.8 7.2-20.8-2.4-8 0-22.4-5.6-32-5.6-9.6-4-19.2-24.8 0s-29.6 24.8-29.6 37.6 9.6 24 16 36.8c6.4 12.8 4.8 24.8 21.6 24.8 3.3 0 5.6.9 7.4 2.1 3.3-7 6.3-14.1 9-21.4-10.4 5.8-18.1 3.1-23.6-7.1z"/>
  <path d="M450.7 377.3c-4.6-1.5-8.6-3-10-4.2-4-3.2-.8-13.6-10.4-24s-15.2-15.2-15.2-24-11.2-28.8-11.2-41.6 2.4-12 9.6-20.8c7.2-8.8 13.6-27.2 27.2-35.2 13.6-8 21.6-22.4 36.8-9.6 4.6 3.9 8.4 6.3 11.4 8.3-2.2-29.2-9.5-56.9-21-82.4-12.1 7.1-43.3 26.3-47.2 37.2-4.8 13.6-.8 21.6-11.2 29.6-10.4 8-28.8 31.2-32 40.8-3.2 9.6-5.6 16-4.8 28 .8 12-15.2 25.6 2.4 48 17.6 22.4 16.8 35.2 16.8 48 0 12.8-4.8 22.4 8 36 4 4.2 11.5 5.1 20.1 4.2 11.5-11.6 21.8-24.4 30.7-38.3z" opacity=".35" fill="#ad2455"/>
  <path class="st3" d="M366.3 213.9s-10.4 2.4-25.6 2.4c-15.2 0-33.6 4-25.6 5.6 8 1.6 15.2 11.2 16 16 .8 4.8.8 8 10.4 15.2 9.6 7.2 4.8 22.4 5.6 27.2.8 4.8 4.8-15.2 16.8-29.6 12-14.4 23.2-38.4 28.8-44.8 5.6-6.4-15.2 3.2-26.4 8zM244.8 0c-29.9 0-58.6 5.4-85.1 15.2-2.7 4.9-5.1 10.4-5.5 14.6-.8 9.6.8-1.6-1.6 15.2-2.4 16.8-17.6 18.4-13.6 32 4 13.6 6.4 28 8.8 30.4 2.4 2.4 3.2-6.4 3.2-14.4s4.8-16 8-23.2c3.2-7.2-2.4 2.4 4.8-19.2 7.2-21.6.8-15.2 18.4-25.6 17.6-10.4 13.6-8 33.6-12s38.4 4 41.6-12c0-.2.1-.5.1-.7-4.2-.2-8.4-.3-12.7-.3zM362.6 41.8s-5.6 2.5.6 6.8c6.2 4.3 4.3 13 9.9 14.9s6.8-3.1 12.4-.6c5.6 2.5 6.2-1.2-.6-8-6.8-6.9-17.9-14.4-22.3-13.1zM460.3 128.5c-4.3-7.9-8.9-15.4-14-22.7-.3.6-.5 1.1-.7 1.7-1.2 4.3 3.1 19.2-9.3 18.6-12.4-.6-25.4-2.5-26.6-6.8-1.2-4.3-9.9-8-5.6-18.6 4.3-10.5 2.5-13 14.2-15.5 4-.8 7.6-1.2 10.7-1.5-9.4-10.8-19.8-20.7-31-29.7-3.5 6.2-6.7 13.7-5.8 20 1.9 13-6.2 17.3-1.2 33.4 5 16.1 21.7 32.8 37.8 34.1 15.7 1.2 22.6-6.4 31.5-13zM365.7 347.1s-21.7 11.8-27.2 26c-5.6 14.2-11.8 11.8-15.5 22.9-3.7 11.1 7.4 5 26 7.4 18.6 2.5 37.2 11.1 39 10.5 1.9-.6-9.9-9.3-12.4-19.8s5-19.8 3.7-27.3c-1.2-7.3-8-35.8-13.6-19.7zM306.9 133.4s-16.1 8.1-26 18c-9.9 9.9-14.2 13-23.5 13.6-9.3.6-9.3 2.5-26 0s-34.1-6.2-35.3-9.3c-1.2-3.1 3.1-16.7 8.1-15.5 5 1.2 3.1 2.5 7.4 2.5 4.3 0 13 11.1 30.3 1.9 17.3-9.3 15.5-13 24.2-13 8.6 0 33.4-.7 40.8 1.8z"/>
  <path d="M382.2 125.7c-13.8-10.4 1.7-24.2 0-43.2-1.7-19-12.1-3.5-20.8-12.1-8.6-8.6-6.9-19-17.3-19S323.3 30.6 307.8 22c-15.6-8.6-20.8-1.7-45 3.5s-8.6 6.9-41.5 10.4-15.6 6.9-25.9 17.3C185 63.6 185 58.4 185 72.2s-10.4 17.3-10.4 43.2c0 25.9 12.1 3.5 32.9 1.7 20.8-1.7 19 6.9 83-3.5s34.6-32.9 27.7-43.2c-6.9-10.4-45 0-45 0s38-8.6 36.3 17.3c-1.7 25.9-36.3 25.9-79.6 15.6-43.2-10.4-36.3-27.7-10.4-45s95.1-29.4 122.8 1.7c27.7 31.1 8.6 83-67.4 114.1-76.1 31.1-131.4-22.5-155.7-39.8-18.4-13.1 2-76.9 13-107-28 14.5-52.8 34.2-73.2 57.9 14.2 3.1-15.6 57.2-12.5 69.8 0 0 15.6 5.2 20.8 8.6 5.2 3.5 15.6 5.2 25.9 6.9 10.4 1.7 6.9 27.7 12.1 48.4 5.2 20.8 53.6 10.4 74.4 5.2 20.8-5.2 48.4-10.4 67.4-12.1 19-1.7 31.1 10.4 43.2 1.7 12.1-8.6 25.9-6.9 41.5-12.1 15.6-5.2 34.6 1.7 64-22.5 29.7-24 .3-43.1-13.6-53.4zm8.3 34.4c0 2.5-5.6 6.8-28.5 14.2-22.9 7.4-27.2-1.2-27.2-1.2l-24.8 2.5s14.9-10.5 25.4-16.1c10.5-5.6 17.3-6.8 24.8-16.7 7.4-9.9 18.6-4.3 18.6-4.3 12.3 3 11.7 19.1 11.7 21.6z" opacity=".3" fill="#ad2455"/>
  <g opacity=".25">
    <path class="st7" d="M345.3 465.4c0-11.8-11.8-1.2-21.7-3.7-9.9-2.5-33.4 5-35.9 11.8-1.1 3.1 2.8 7.4 7.3 11.1 17.5-3.7 34.4-9.2 50.3-16.4v-2.8z"/>
    <path class="st7" d="M387.9 443.5c-1-12.9-8.6-5.7-25.9-9.7-18.6-4.3-26.6 0-57 1.2-30.3 1.2-26.6 4.3-39 16.7-12.4 12.4-16.7 14.2-28.5 21.7-6.1 3.9-6.9 10.5-6.2 15.9 4.5.2 8.9.4 13.5.4 6.1 0 12.1-.2 18.1-.7-1.1-3.1-1.9-6.2-1.9-8.8 0-6.2 13.6-6.2 20.4-16.1 6.8-9.9 9.9-14.2 24.2-16.7 14.2-2.5 18-9.9 30.3-9.9 12.4 0 22.3 8.1 27.9 10.5 2.2 1 2.6 4.9 2.4 9.4 7.6-4.2 14.8-8.9 21.7-13.9z"/>
  </g>
  <path d="M395.5 386.2C286 447.2 79.3 399.8 40.9 257.5 13.2 154.9 71.2 78.2 105.7 43.3 41.9 87.5 0 161.3 0 244.8 0 380 109.6 489.6 244.8 489.6c135.2 0 244.8-109.6 244.8-244.8 0-18.5-2.1-36.5-6-53.9 7.1 75-11.4 152.6-88.1 195.3z" opacity=".26" fill="#49102d"/>
</svg>