<svg id="Ñëîé_1" xmlns="http://www.w3.org/2000/svg" viewBox="0 0 238.6 170.4" enable-background="new 0 0 238.6 170.4">
  <style>
    .st25,.st37{opacity:.32;fill:#140d26}.st37{opacity:.19}.st39{opacity:7.000000e-02;fill:#170426}.st40,.st41{opacity:.74;fill:#6fead6}.st41{opacity:.59}.st46{fill:#fff}
  </style>
  <defs>
    <filter id="Adobe_OpacityMaskFilter" filterUnits="userSpaceOnUse" x="57" y="137.2" width="68.9" height="33.2">
      <feColorMatrix values="1 0 0 0 0 0 1 0 0 0 0 0 1 0 0 0 0 0 1 0"/>
    </filter>
  </defs>
  <mask maskUnits="userSpaceOnUse" x="57" y="137.2" width="68.9" height="33.2" id="SVGID_1_">
    <g filter="url(#Adobe_OpacityMaskFilter)">
      <defs>
        <filter id="Adobe_OpacityMaskFilter_1_" filterUnits="userSpaceOnUse" x="57" y="137.2" width="68.9" height="33.2">
          <feFlood result="back" flood-color="#fff" flood-opacity="1"/>
          <feBlend in="SourceGraphic" in2="back"/>
        </filter>
      </defs>
      <radialGradient id="SVGID_2_" cx="112.041" cy="101.184" r="18.741" gradientTransform="matrix(.2111 -.563 1.8263 .6847 -116.991 147.622)" gradientUnits="userSpaceOnUse">
        <stop offset=".473"/>
        <stop offset=".727" stop-color="#fff"/>
        <stop offset=".754" stop-color="#e1e1e1"/>
        <stop offset=".846" stop-color="#828282"/>
        <stop offset=".92" stop-color="#3c3c3c"/>
        <stop offset=".973" stop-color="#111"/>
        <stop offset="1"/>
      </radialGradient>
      <path d="M95.4 143.3c18.9 7.1 32.5 17.6 30.3 23.4-2.2 5.8-19.3 4.8-38.2-2.3-18.9-7.1-32.5-17.6-30.3-23.4 2.2-5.8 19.3-4.8 38.2 2.3z" mask="url(#SVGID_1_)" fill="url(#SVGID_2_)"/>
    </g>
  </mask>
  <path d="M95.4 143.3c18.9 7.1 32.5 17.6 30.3 23.4-2.2 5.8-19.3 4.8-38.2-2.3-18.9-7.1-32.5-17.6-30.3-23.4 2.2-5.8 19.3-4.8 38.2 2.3z" opacity=".22" fill="#ff17a1"/>
  <defs>
    <filter id="Adobe_OpacityMaskFilter_2_" filterUnits="userSpaceOnUse" x="50.4" y="117.6" width="87.9" height="42.4">
      <feColorMatrix values="1 0 0 0 0 0 1 0 0 0 0 0 1 0 0 0 0 0 1 0"/>
    </filter>
  </defs>
  <mask maskUnits="userSpaceOnUse" x="50.4" y="117.6" width="87.9" height="42.4" id="SVGID_3_">
    <g filter="url(#Adobe_OpacityMaskFilter_2_)">
      <defs>
        <filter id="Adobe_OpacityMaskFilter_3_" filterUnits="userSpaceOnUse" x="50.4" y="117.6" width="87.9" height="42.4">
          <feFlood result="back" flood-color="#fff" flood-opacity="1"/>
          <feBlend in="SourceGraphic" in2="back"/>
        </filter>
      </defs>
      <radialGradient id="SVGID_4_" cx="137.173" cy="99.893" r="23.906" gradientTransform="matrix(.2111 -.563 1.8263 .6847 -116.991 147.622)" gradientUnits="userSpaceOnUse">
        <stop offset=".473"/>
        <stop offset=".727" stop-color="#fff"/>
        <stop offset=".754" stop-color="#e1e1e1"/>
        <stop offset=".846" stop-color="#828282"/>
        <stop offset=".92" stop-color="#3c3c3c"/>
        <stop offset=".973" stop-color="#111"/>
        <stop offset="1"/>
      </radialGradient>
      <path d="M99.4 125.3c24.1 9 41.4 22.4 38.6 29.8-2.8 7.4-24.6 6.1-48.7-2.9s-41.4-22.4-38.6-29.8c2.8-7.4 24.6-6.1 48.7 2.9z" mask="url(#SVGID_3_)" fill="url(#SVGID_4_)"/>
    </g>
  </mask>
  <path d="M99.4 125.3c24.1 9 41.4 22.4 38.6 29.8-2.8 7.4-24.6 6.1-48.7-2.9s-41.4-22.4-38.6-29.8c2.8-7.4 24.6-6.1 48.7 2.9z" opacity=".36" fill="#ff17a1"/>
  <defs>
    <filter id="Adobe_OpacityMaskFilter_4_" filterUnits="userSpaceOnUse" x="44.2" y="93" width="111" height="53.5">
      <feColorMatrix values="1 0 0 0 0 0 1 0 0 0 0 0 1 0 0 0 0 0 1 0"/>
    </filter>
  </defs>
  <mask maskUnits="userSpaceOnUse" x="44.2" y="93" width="111" height="53.5" id="SVGID_5_">
    <g filter="url(#Adobe_OpacityMaskFilter_4_)">
      <defs>
        <filter id="Adobe_OpacityMaskFilter_5_" filterUnits="userSpaceOnUse" x="44.2" y="93" width="111" height="53.5">
          <feFlood result="back" flood-color="#fff" flood-opacity="1"/>
          <feBlend in="SourceGraphic" in2="back"/>
        </filter>
      </defs>
      <radialGradient id="SVGID_6_" cx="169.984" cy="99.032" r="30.19" gradientTransform="matrix(.2111 -.563 1.8263 .6847 -116.991 147.622)" gradientUnits="userSpaceOnUse">
        <stop offset=".473"/>
        <stop offset=".727" stop-color="#fff"/>
        <stop offset=".754" stop-color="#e1e1e1"/>
        <stop offset=".846" stop-color="#828282"/>
        <stop offset=".92" stop-color="#3c3c3c"/>
        <stop offset=".973" stop-color="#111"/>
        <stop offset="1"/>
      </radialGradient>
      <path d="M106.1 102.7c30.4 11.4 52.3 28.3 48.8 37.7-3.5 9.4-31.1 7.7-61.5-3.7-30.5-11.4-52.3-28.3-48.8-37.7 3.5-9.3 31.1-7.7 61.5 3.7z" mask="url(#SVGID_5_)" fill="url(#SVGID_6_)"/>
    </g>
  </mask>
  <path d="M106.1 102.7c30.4 11.4 52.3 28.3 48.8 37.7-3.5 9.4-31.1 7.7-61.5-3.7-30.5-11.4-52.3-28.3-48.8-37.7 3.5-9.3 31.1-7.7 61.5 3.7z" opacity=".45" fill="#ff17a1"/>
  <defs>
    <filter id="Adobe_OpacityMaskFilter_6_" filterUnits="userSpaceOnUse" x="40.2" y="69" width="133.4" height="63.3">
      <feColorMatrix values="1 0 0 0 0 0 1 0 0 0 0 0 1 0 0 0 0 0 1 0"/>
    </filter>
  </defs>
  <mask maskUnits="userSpaceOnUse" x="40.2" y="69" width="133.4" height="63.3" id="SVGID_7_">
    <g filter="url(#Adobe_OpacityMaskFilter_6_)">
      <defs>
        <filter id="Adobe_OpacityMaskFilter_7_" filterUnits="userSpaceOnUse" x="40.2" y="69" width="133.4" height="63.3">
          <feFlood result="back" flood-color="#fff" flood-opacity="1"/>
          <feBlend in="SourceGraphic" in2="back"/>
        </filter>
      </defs>
      <radialGradient id="SVGID_8_" cx="216.999" cy="121.811" r="33.216" gradientTransform="matrix(.2207 -.5886 1.9961 .7484 -184.156 137.176)" gradientUnits="userSpaceOnUse">
        <stop offset=".473"/>
        <stop offset=".727" stop-color="#fff"/>
        <stop offset=".754" stop-color="#e1e1e1"/>
        <stop offset=".846" stop-color="#828282"/>
        <stop offset=".92" stop-color="#3c3c3c"/>
        <stop offset=".973" stop-color="#111"/>
        <stop offset="1"/>
      </radialGradient>
      <path d="M114.2 81.1c36.6 13.7 63 33.6 59 44.4-4 10.8-37 8.4-73.6-5.3-36.6-13.7-63-33.6-59-44.4 4-10.8 37-8.5 73.6 5.3z" mask="url(#SVGID_7_)" fill="url(#SVGID_8_)"/>
    </g>
  </mask>
  <path d="M114.2 81.1c36.6 13.7 63 33.6 59 44.4-4 10.8-37 8.4-73.6-5.3-36.6-13.7-63-33.6-59-44.4 4-10.8 37-8.5 73.6 5.3z" opacity=".7" fill="#ff17a1"/>
  <g>
    <path d="M237.2 107.3c-6.3 16.9-67.4 18.6-132.7-5.9C39.1 76.9-5.7 35.5.6 18.6S65 7.9 130.4 32.4c65.3 24.5 113.1 58 106.8 74.9z" fill="#ffb6d9"/>
    <linearGradient id="SVGID_9_" gradientUnits="userSpaceOnUse" x1="-15.758" y1="63.069" x2="236.904" y2="63.069" gradientTransform="rotate(20.555 110.565 85.131)">
      <stop offset="0" stop-color="#f26117"/>
      <stop offset="1" stop-color="#ff9c26"/>
    </linearGradient>
    <path d="M238.1 104.9c-6.3 16.9-67.4 18.6-132.7-5.9C40 74.5-4.8 33.1 1.5 16.2S65.9 5.5 131.3 30c65.3 24.4 113.1 58 106.8 74.9z" fill="url(#SVGID_9_)"/>
    <path d="M233.8 103.3c2.9-7.7-5.1-18.8-20.7-30.7-5.1-1.8-10.9-3.7-17.6-5.5C143.5 52.8 84 31.9 55.6 18.7c-7-3.3-13.3-7-19-10.7-16.9-.4-28.2 2.7-30.9 9.8C.7 31.2 30 59.3 72.2 82.2c-2.4-3.3-5.7-5.3 3.6-1.5 19.7 8.1 53 22.6 89.3 29 13.5 2.4 22 4.7 26.6 6.7 23 .1 39-4.7 42.1-13.1z" opacity=".3" fill="#140d26"/>
    <linearGradient id="SVGID_10_" gradientUnits="userSpaceOnUse" x1="156.001" y1="3.289" x2="76.19" y2="100.96" gradientTransform="rotate(20.555 110.565 85.131)">
      <stop offset="0" stop-color="#b8007a"/>
      <stop offset="1" stop-color="#8c006e"/>
    </linearGradient>
    <path d="M238.1 104.9c-6.3 16.9-64.4 10.7-129.8-13.7C43 66.7-4.8 33.1 1.5 16.2S65.9 5.5 131.3 30c65.3 24.4 113.1 58 106.8 74.9z" fill="url(#SVGID_10_)"/>
    <linearGradient id="SVGID_11_" gradientUnits="userSpaceOnUse" x1="50.351" y1="7.731" x2="-24.977" y2="87.198" gradientTransform="rotate(20.555 110.565 85.131)">
      <stop offset="0" stop-color="#ffc645"/>
      <stop offset=".978" stop-color="#f5a3c4"/>
    </linearGradient>
    <path d="M56.6 18S33.1 7.9 32.1 7.8c-1-.2-19.5.5-24.3 3.8-4.8 3.3-6.2 11-1.8 15 0 0-2.8-9.9 4.8-13.4s19.6-2.6 19.6-2.6l25.5 9.3.7-1.9z" opacity=".4" fill="url(#SVGID_11_)"/>
    <linearGradient id="SVGID_12_" gradientUnits="userSpaceOnUse" x1="70.609" y1="-9.182" x2="-10.706" y2="106.127" gradientTransform="rotate(20.555 110.565 85.131)">
      <stop offset="0" stop-color="#ffc645"/>
      <stop offset=".978" stop-color="#f5a3c4"/>
    </linearGradient>
    <path opacity=".4" fill="url(#SVGID_12_)" d="M12.2 32.2l43.7-3.6 2.1 1.7-42.6 6.2z"/>
    <linearGradient id="SVGID_13_" gradientUnits="userSpaceOnUse" x1="152.254" y1="60.182" x2="74.26" y2="92.616" gradientTransform="rotate(20.555 110.565 85.131)">
      <stop offset="0" stop-color="#ffc645"/>
      <stop offset=".978" stop-color="#f5a3c4"/>
    </linearGradient>
    <path d="M101.1 61.6S88.6 78.9 89.9 79.9c4 3.1 35.6 14.6 38.3 14.4 2.8-.2 4.3-20.9 4.3-20.9s-30.4-11.2-31.4-11.8z" opacity=".34" fill="url(#SVGID_13_)"/>
    <linearGradient id="SVGID_14_" gradientUnits="userSpaceOnUse" x1="152.618" y1="61.058" x2="74.625" y2="93.491" gradientTransform="rotate(20.555 110.565 85.131)">
      <stop offset="0" stop-color="#ffc645"/>
      <stop offset=".978" stop-color="#f5a3c4"/>
    </linearGradient>
    <path d="M132.4 75.1c.1-1.1.1-1.7.1-1.7s-1.7-.6-4.4-1.6c-10.7 1.8-25.5 4.4-37.9 6.5-.4.9-.5 1.5-.3 1.6 1.5 1.2 6.9 3.6 13.3 6 8.2-3.1 19.9-7.5 29.2-10.8z" opacity=".26" fill="url(#SVGID_14_)"/>
    <linearGradient id="SVGID_15_" gradientUnits="userSpaceOnUse" x1="66.652" y1="15.539" x2="33.473" y2="50.541" gradientTransform="rotate(20.555 110.565 85.131)">
      <stop offset="0" stop-color="#ffc645"/>
      <stop offset=".978" stop-color="#f5a3c4"/>
    </linearGradient>
    <path d="M56.6 10.7c3.1 1.4 7.5 4.7 13.1 6.8 5.6 2.1 12.5 4.5 14.1 5.3 1.2.6.3-4.3-1.6-8.3-9-2.2-17.6-4-25.5-5.3-1.1.3-1.8.8-.1 1.5z" opacity=".34" fill="url(#SVGID_15_)"/>
    <path class="st25" d="M32.8 6.7l28.5 11.7 4.7-2.6-22.7-8.4c-3.7-.4-7.2-.6-10.5-.7z"/>
    <path class="st25" d="M54.9 13.5c3.5 1.7 5.4 3.4 6.5 4.9l4.6-2.5-22.7-8.5c-3.7-.4-7.2-.6-10.5-.7L38.5 9l.5-.1s6.7.1 15.9 4.6zM94.2 54c-1.3 2.1-17.1 21.6-17.3 23.7v.4c2.2 1 4.4 2 6.7 3h.1c1.7-.4 15-20.6 16.8-24.1-1.6-4.7-6.3-3-6.3-3z"/>
    <path class="st25" d="M94.2 54c-1.3 2.1-17.1 21.6-17.3 23.7v.4c.5.3 1.1.5 1.6.7 1.2-1.7 15.8-23.9 16.4-19.4.5 3.4-7.4 15.3-11.8 21.5.2.1.3.1.5.2h.1c1.7-.4 15-20.6 16.8-24.1-1.6-4.7-6.3-3-6.3-3zM63.7 32.9l-47.9 8v.3c1.9 1.7 4.1 3.5 6.4 5.2L70 37.8c1.1-6-6.3-4.9-6.3-4.9z"/>
    <path class="st25" d="M63.7 32.9l-47.9 8v.3c.9.8 1.8 1.6 2.8 2.4 11.2-2.6 42-9.1 46.4-4.8l5.1-.9c1-6.1-6.4-5-6.4-5zM221 77.3l-29.1-9.9-1.8-5 22.6 8.6c2.9 2 5.7 4.2 8.3 6.3z"/>
    <path class="st25" d="M199.9 67.9c-3.7-1-6.3-1-8.1-.6l-1.8-4.9 22.6 8.6c3 2.1 5.8 4.3 8.4 6.3l-5.9-2-.2-.4c0-.1-5.2-4.4-15-7zM143.6 72.6c-.4 2.5-1.3 27.5-2.5 29.2-.1.1-.2.2-.2.3-2.3-.7-4.7-1.4-7-2.1l-.1-.1c-1-1.4 2.2-25.4 3.2-29.2 4.2-2.5 6.6 1.9 6.6 1.9z"/>
    <path class="st25" d="M143.6 72.6c-.4 2.5-1.3 27.5-2.5 29.2-.1.1-.2.2-.2.3-.6-.2-1.2-.3-1.7-.5.3-2.1 3.8-28.4.4-25.4-2.6 2.3-4.5 16.4-5.2 23.9-.2 0-.3-.1-.5-.1l-.1-.1c-1-1.4 2.2-25.4 3.2-29.2 4.2-2.5 6.6 1.9 6.6 1.9zM180.5 76.7l30.8 37.5-.2.2c-2.6 0-5.3-.1-8.2-.2l-30.5-37.9c3.2-5.3 8.1.4 8.1.4z"/>
    <path class="st25" d="M180.5 76.7l30.8 37.5-.2.2h-3.6c-6.8-9.3-25.7-34.5-31.8-34.1l-3.2-4c3.1-5.3 8 .4 8 .4z"/>
    <path class="st25" d="M68.7 11.4s-28.5-1-22.9 10.9C51.4 34.1 67.4 42 82.9 50.9c15.5 8.9 32.1 14.4 50.8 20.5 18.7 6.1 53.1 11.4 60 1.9 6.9-9.6-5.3-21.4-18.6-26.4C161.8 41.8 77 14.5 68.7 11.4z"/>
    <linearGradient id="SVGID_16_" gradientUnits="userSpaceOnUse" x1="95.215" y1="76.181" x2="129.422" y2="-2.099" gradientTransform="rotate(20.555 110.565 85.131)">
      <stop offset="0" stop-color="#f26117"/>
      <stop offset="1" stop-color="#ff9c26"/>
    </linearGradient>
    <path d="M194 69.8c-4.2 11.3-38.2 9-75.8-5.1-37.6-14.1-64.6-34.7-60.4-46C62 7.4 97-8.2 139.5 8.1c45.1 17.3 58.8 50.4 54.5 61.7z" fill="url(#SVGID_16_)"/>
    <path d="M114.1 63.1c-1.1-4.4 0-9.1 6.4-12.4 16.8-8.5 23.8-9 33.9-17.8 7.7-6.7 16.8-4.4 25 1.1-8.2-8.8-19.8-17.5-35.7-24.2 6.3 5.4 10 13.7-3.5 24.3-17.6 13.8-42.7 17.7-62.6 10.3 9.6 6.4 22.2 13 36.5 18.7z" opacity=".26" fill="#6fead6"/>
    <defs>
      <filter id="Adobe_OpacityMaskFilter_8_" filterUnits="userSpaceOnUse" x="121.6" y="6.3" width="62" height="42.2">
        <feFlood result="back" flood-color="#fff" flood-opacity="1"/>
        <feBlend in="SourceGraphic" in2="back"/>
      </filter>
    </defs>
    <mask maskUnits="userSpaceOnUse" x="121.6" y="6.3" width="62" height="42.2" id="SVGID_17_">
      <g filter="url(#Adobe_OpacityMaskFilter_8_)">
        <defs>
          <filter id="Adobe_OpacityMaskFilter_9_" filterUnits="userSpaceOnUse" x="121.6" y="6.3" width="62" height="42.2">
            <feFlood result="back" flood-color="#fff" flood-opacity="1"/>
            <feBlend in="SourceGraphic" in2="back"/>
          </filter>
        </defs>
        <linearGradient id="SVGID_18_" gradientUnits="userSpaceOnUse" x1="114.98" y1="47.564" x2="142.046" y2="-12.368" gradientTransform="rotate(20.555 110.565 85.131)">
          <stop offset="0" stop-color="#404040"/>
          <stop offset=".978" stop-color="#fff"/>
        </linearGradient>
        <path d="M143.3 11.1s-13.6-6-20.2-4.5 11.6 2.5 18.7 12.8 18.2 23 31 27.8c12.8 4.8 13-4.5 7.2-10.5-6.8-7.2-13.3-16.1-36.7-25.6z" mask="url(#SVGID_17_)" fill="url(#SVGID_18_)"/>
      </g>
    </mask>
    <linearGradient id="SVGID_19_" gradientUnits="userSpaceOnUse" x1="114.98" y1="47.564" x2="142.046" y2="-12.368" gradientTransform="rotate(20.555 110.565 85.131)">
      <stop offset="0" stop-color="#ffc645"/>
      <stop offset=".978" stop-color="#f5ff7d"/>
    </linearGradient>
    <path d="M143.3 11.1s-13.6-6-20.2-4.5 11.6 2.5 18.7 12.8 18.2 23 31 27.8c12.8 4.8 13-4.5 7.2-10.5-6.8-7.2-13.3-16.1-36.7-25.6z" opacity=".71" fill="url(#SVGID_19_)"/>
    <path d="M194 69.8c.4-.9.6-2.1.7-3.3-7.6 5.1-25 8.8-48.8-4.3-28.3-15.5-16.8-40.8-36.3-53.5-5.9-3.8-11.4-6-16.2-7.2-19.5 2.1-33.1 10.4-35.6 17.2-4.2 11.3 22.8 31.9 60.5 46 37.6 14.1 71.5 16.4 75.7 5.1z" opacity=".14" fill="#140d26"/>
    <defs>
      <filter id="Adobe_OpacityMaskFilter_10_" filterUnits="userSpaceOnUse" x="57.4" y="18.9" width="66.6" height="47.9">
        <feFlood result="back" flood-color="#fff" flood-opacity="1"/>
        <feBlend in="SourceGraphic" in2="back"/>
      </filter>
    </defs>
    <mask maskUnits="userSpaceOnUse" x="57.4" y="18.9" width="66.6" height="47.9" id="SVGID_20_">
      <g filter="url(#Adobe_OpacityMaskFilter_10_)">
        <defs>
          <filter id="Adobe_OpacityMaskFilter_11_" filterUnits="userSpaceOnUse" x="57.4" y="18.9" width="66.6" height="47.9">
            <feFlood result="back" flood-color="#fff" flood-opacity="1"/>
            <feBlend in="SourceGraphic" in2="back"/>
          </filter>
        </defs>
        <linearGradient id="SVGID_21_" gradientUnits="userSpaceOnUse" x1="62.231" y1="85.693" x2="86.639" y2="31.648" gradientTransform="rotate(20.555 110.565 85.131)">
          <stop offset="0" stop-color="#404040"/>
          <stop offset=".978" stop-color="#fff"/>
        </linearGradient>
        <path d="M57.7 18.9c-3.8 11.3 23.1 31.8 60.5 45.8 1.9.7 3.8 1.4 5.8 2.1-14.1-6.6-31.6-15.7-45.1-24.1C65.1 34 59.8 25.1 57.7 18.9z" mask="url(#SVGID_20_)" fill="url(#SVGID_21_)"/>
      </g>
    </mask>
    <linearGradient id="SVGID_22_" gradientUnits="userSpaceOnUse" x1="62.231" y1="85.693" x2="86.639" y2="31.648" gradientTransform="rotate(20.555 110.565 85.131)">
      <stop offset="0" stop-color="#ffc645"/>
      <stop offset=".978" stop-color="#f5ff7d"/>
    </linearGradient>
    <path d="M57.7 18.9c-3.8 11.3 23.1 31.8 60.5 45.8 1.9.7 3.8 1.4 5.8 2.1-14.1-6.6-31.6-15.7-45.1-24.1C65.1 34 59.8 25.1 57.7 18.9z" opacity=".4" fill="url(#SVGID_22_)"/>
    <path class="st37" d="M139.6 53.5c-3.5 9.4-13.1 14.6-21.4 11.5-8.3-3.1-12.2-13.3-8.6-22.7 3.5-9.4 13.1-14.6 21.4-11.5 8.2 3.1 12.1 13.3 8.6 22.7z"/>
    <linearGradient id="SVGID_23_" gradientUnits="userSpaceOnUse" x1="98.603" y1="74.621" x2="122.793" y2="17.544" gradientTransform="rotate(20.555 110.565 85.131)">
      <stop offset="0" stop-color="#39a9dc"/>
      <stop offset="1" stop-color="#7dfac9"/>
    </linearGradient>
    <path d="M139.4 52.4c-3.2 8.6-12 13.3-19.6 10.4-7.6-2.9-11.2-12.1-7.9-20.7 3.2-8.6 12-13.3 19.6-10.4 7.6 2.9 11.2 12.1 7.9 20.7z" fill="url(#SVGID_23_)"/>
    <path class="st39" d="M119.8 62.8c6.6 2.5 14-.7 18-7.2-2.1 2-5.4 3.9-10.2 3.2-8.5-1.3-5.1-11.2-9.8-14.9-2.5-1.9-4.9-1.1-6.5.1-2 8.1 1.5 16.2 8.5 18.8z"/>
    <path class="st40" d="M121 62.1c-7.6-2.9-11.2-12.1-7.9-20.7 1.4-3.7 3.9-6.7 6.8-8.7-3.5 1.9-6.4 5.2-8 9.4-3.2 8.6.3 17.9 7.9 20.7 4.3 1.6 8.9.8 12.8-1.7-3.6 2-7.7 2.5-11.6 1z"/>
    <path class="st41" d="M134.6 47.2c4.2-1.4 5.8 1.2 4.8 5.1 2.6-7.1.7-14.6-4.4-18.6.9 2.1 1.8 5.7-1.1 9.2-4.3 5.3-11.1-1.2-18.2 5.6-1.7 1.7-3.4 2.7-4.9 3.2.9 4.6 3.6 8.6 7.8 10.6-.4-1.6-1.3-7.4 3-11.8 5.2-5 7.6-1.5 13-3.3z"/>
    <defs>
      <filter id="Adobe_OpacityMaskFilter_12_" filterUnits="userSpaceOnUse" x="118.4" y="31.9" width="21.2" height="25.7">
        <feFlood result="back" flood-color="#fff" flood-opacity="1"/>
        <feBlend in="SourceGraphic" in2="back"/>
      </filter>
    </defs>
    <mask maskUnits="userSpaceOnUse" x="118.4" y="31.9" width="21.2" height="25.7" id="SVGID_24_">
      <g filter="url(#Adobe_OpacityMaskFilter_12_)">
        <defs>
          <filter id="Adobe_OpacityMaskFilter_13_" filterUnits="userSpaceOnUse" x="118.4" y="31.9" width="21.2" height="25.7">
            <feFlood result="back" flood-color="#fff" flood-opacity="1"/>
            <feBlend in="SourceGraphic" in2="back"/>
          </filter>
        </defs>
        <linearGradient id="SVGID_25_" gradientUnits="userSpaceOnUse" x1="106.955" y1="47.948" x2="125.447" y2="27.666" gradientTransform="rotate(20.555 110.565 85.131)">
          <stop offset="0" stop-color="#737373"/>
          <stop offset=".978" stop-color="#fff"/>
        </linearGradient>
        <path d="M131.1 32.6s-7.8-2.8-11.9 2.4c-4.1 5.1 7 .7 10.6 6.3 3.6 5.5-3.2 10.3.6 14.9 3.8 4.7 8.3-3.5 8.9-8.1.7-4.6-.1-11.8-8.2-15.5z" mask="url(#SVGID_24_)" fill="url(#SVGID_25_)"/>
      </g>
    </mask>
    <linearGradient id="SVGID_26_" gradientUnits="userSpaceOnUse" x1="106.955" y1="47.948" x2="125.447" y2="27.666" gradientTransform="rotate(20.555 110.565 85.131)">
      <stop offset="0" stop-color="#80f7de"/>
      <stop offset=".978" stop-color="#e6ffe0"/>
    </linearGradient>
    <path d="M131.1 32.6s-7.8-2.8-11.9 2.4c-4.1 5.1 7 .7 10.6 6.3 3.6 5.5-3.2 10.3.6 14.9 3.8 4.7 8.3-3.5 8.9-8.1.7-4.6-.1-11.8-8.2-15.5z" opacity=".68" fill="url(#SVGID_26_)"/>
    <path class="st46" d="M133.5 35.3s-3.7-.9-.6 3 3.1 7.6 5.2 6.4c2.1-1.3-1.5-7.9-4.6-9.4zM138.1 47.4s-1.4-.9-2.3 1.5c-.9 2.4-1.3 6.1.4 3.9 1.7-2.3 2.9-4.9 1.9-5.4z"/>
    <path d="M139.4 52.4c-3.2 8.6-12 13.3-19.6 10.4-7.6-2.9-11.2-12.1-7.9-20.7 3.2-8.6 12-13.3 19.6-10.4 7.6 2.9 11.2 12.1 7.9 20.7z" opacity=".09" fill="#140d26"/>
    <path class="st37" d="M104.5 34.9c-3.4 8.9-11.3 15.9-17.8 13.5-6.4-2.4-8.9-11.6-5.6-20.6 3.4-8.9 12.9-13.6 19.3-11.2 6.6 2.5 7.5 9.4 4.1 18.3z"/>
    <linearGradient id="SVGID_27_" gradientUnits="userSpaceOnUse" x1="78.187" y1="63.022" x2="70.11" y2="23.578" gradientTransform="rotate(20.555 110.565 85.131)">
      <stop offset="0" stop-color="#39a9dc"/>
      <stop offset="1" stop-color="#7dfac9"/>
    </linearGradient>
    <path d="M102.2 35.8c-3.9 7.8-11.4 13.7-17 10C78 41 76.6 32 80.5 24.2c4.4-8.7 14.6-10.1 20.6-7 6 3 5 10.8 1.1 18.6z" fill="url(#SVGID_27_)"/>
    <path class="st39" d="M102.2 35.8c.5-1 1-2 1.4-3-1.5 2.3-3.7 4.4-6.9 4.4-6.9-.1-9.7-3.1-12.5.9-1.2 1.7-2.7 2.1-4.2 1.7 1.1 2.4 2.9 4.5 5.3 6.1 5.5 3.6 12.9-2.3 16.9-10.1z"/>
    <defs>
      <filter id="Adobe_OpacityMaskFilter_14_" filterUnits="userSpaceOnUse" x="82.4" y="16.3" width="21.6" height="12.7">
        <feFlood result="back" flood-color="#fff" flood-opacity="1"/>
        <feBlend in="SourceGraphic" in2="back"/>
      </filter>
    </defs>
    <mask maskUnits="userSpaceOnUse" x="82.4" y="16.3" width="21.6" height="12.7" id="SVGID_28_">
      <g filter="url(#Adobe_OpacityMaskFilter_14_)">
        <defs>
          <filter id="Adobe_OpacityMaskFilter_15_" filterUnits="userSpaceOnUse" x="82.4" y="16.3" width="21.6" height="12.7">
            <feFlood result="back" flood-color="#fff" flood-opacity="1"/>
            <feBlend in="SourceGraphic" in2="back"/>
          </filter>
        </defs>
        <linearGradient id="SVGID_29_" gradientUnits="userSpaceOnUse" x1="73.95" y1="39.931" x2="70.917" y2="25.119" gradientTransform="rotate(20.555 110.565 85.131)">
          <stop offset="0" stop-color="#737373"/>
          <stop offset=".978" stop-color="#fff"/>
        </linearGradient>
        <path d="M97.7 16.3s-9.2-1-13.9 4.2c-4.6 5.2 2.7 4.2 7.9 4 5.2-.3 7.4 5.6 9.7 4.3 2.3-1.3 5.7-9.8-3.7-12.5z" mask="url(#SVGID_28_)" fill="url(#SVGID_29_)"/>
      </g>
    </mask>
    <linearGradient id="SVGID_30_" gradientUnits="userSpaceOnUse" x1="73.95" y1="39.931" x2="70.917" y2="25.119" gradientTransform="rotate(20.555 110.565 85.131)">
      <stop offset="0" stop-color="#80f7de"/>
      <stop offset=".978" stop-color="#e6ffe0"/>
    </linearGradient>
    <path d="M97.7 16.3s-9.2-1-13.9 4.2c-4.6 5.2 2.7 4.2 7.9 4 5.2-.3 7.4 5.6 9.7 4.3 2.3-1.3 5.7-9.8-3.7-12.5z" opacity=".68" fill="url(#SVGID_30_)"/>
    <path class="st46" d="M87 19.3s-1.7-.3-1.4 1.3c.4 1.5 3.3-.7 1.4-1.3z"/>
    <path class="st40" d="M102.7 33.5c-4.8 8.7-9.5 11.6-15.7 11.2-4.1-.3-6.9-5.5-8.4-9 .7 4 2.8 7.6 6.5 10 5.6 3.7 13.1-2.2 17-10 1-2.1 1.9-4.1 2.4-6.1-.4 1.3-1.1 2.6-1.8 3.9z"/>
    <path class="st41" d="M102.2 35.8c3.3-6.5 4.5-13 1.3-16.8.2.8 2 10.2-5.6 12.9-7.1 2.6-10.7-3.8-19.5 2.7.3 2.8 1.3 5.5 3 7.7.8-3.7 2.3-8.9 6-9 7.1-.1 8.2 2.4 11.8 1.3 2.9-.9 2.3 2.1.5 5.1.9-1.2 1.8-2.5 2.5-3.9z"/>
    <path class="st46" d="M96.4 16.9s-5.2-.6-7.1 1.5c-1.9 2.1 3.4 1.3 6.4 1.3 3 0 4.9-1.7.7-2.8z"/>
    <path d="M102.2 35.8c-3.9 7.8-11.4 13.7-17 10C78 41 76.6 32 80.5 24.2c4.4-8.7 14.6-10.1 20.6-7 6 3 5 10.8 1.1 18.6z" opacity=".17" fill="#140d26"/>
    <g>
      <path class="st37" d="M62.1 14.3s-6.4 4.6-2.4 9.8c4 5.2 12.3.1 19-6.2 6.7-6.3 8.7-14 5.5-14.6-3.3-.7-22.1 11-22.1 11z"/>
      <linearGradient id="SVGID_31_" gradientUnits="userSpaceOnUse" x1="51.526" y1="48.149" x2="45.648" y2="17.735" gradientTransform="rotate(20.555 110.565 85.131)">
        <stop offset="0" stop-color="#39a9dc"/>
        <stop offset="1" stop-color="#7dfac9"/>
      </linearGradient>
      <path d="M76.5 17.8c-5.5 5.3-13 8.4-15.9 4.3C56.9 17 58.7 9.3 64.2 4c5.5-5.3 15.6-5 19.1-1.4 3.4 3.6-1.3 9.9-6.8 15.2z" fill="url(#SVGID_31_)"/>
      <path class="st41" d="M76.5 17.8l.1-.1c-3.3.3-6.5-3-9.7-8-2.2-3.4-1.7-5.8-.5-7.4-.6.3-1.1.8-1.6 1.2-2.3 5.8 2.6 10.3 3.4 13.5.6 2.3-1.4 5.2-2.9 7 3.4-.4 7.7-2.9 11.2-6.2z"/>
      <path class="st39" d="M84.3 6.6c-.9 1.6-2.5 3.6-5.4 5.5-6.3 4.1-10.7.1-14.3 3.9-2.8 3-3.7 5-5.6 2.8.3 1.2.8 2.3 1.6 3.4 2.9 4 10.4 1 15.9-4.3 3.8-3.8 7.2-7.9 7.8-11.3z"/>
      <defs>
        <filter id="Adobe_OpacityMaskFilter_16_" filterUnits="userSpaceOnUse" x="62.3" y=".6" width="20.7" height="10.4">
          <feFlood result="back" flood-color="#fff" flood-opacity="1"/>
          <feBlend in="SourceGraphic" in2="back"/>
        </filter>
      </defs>
      <mask maskUnits="userSpaceOnUse" x="62.3" y=".6" width="20.7" height="10.4" id="SVGID_32_">
        <g filter="url(#Adobe_OpacityMaskFilter_16_)">
          <defs>
            <filter id="Adobe_OpacityMaskFilter_17_" filterUnits="userSpaceOnUse" x="62.3" y=".6" width="20.7" height="10.4">
              <feFlood result="back" flood-color="#fff" flood-opacity="1"/>
              <feBlend in="SourceGraphic" in2="back"/>
            </filter>
          </defs>
          <linearGradient id="SVGID_33_" gradientUnits="userSpaceOnUse" x1="49.986" y1="33.091" x2="45.138" y2="16.782" gradientTransform="rotate(20.555 110.565 85.131)">
            <stop offset="0" stop-color="#737373"/>
            <stop offset=".978" stop-color="#fff"/>
          </linearGradient>
          <path d="M81.6 2.4s-7.2-4.1-13.8 0c-6.6 4.1-6.3 8.8-4 8.5 2.3-.2 5.3-2.7 11.7-2.8 6.5 0 9.6-3.6 6.1-5.7z" mask="url(#SVGID_32_)" fill="url(#SVGID_33_)"/>
        </g>
      </mask>
      <linearGradient id="SVGID_34_" gradientUnits="userSpaceOnUse" x1="49.986" y1="33.091" x2="45.138" y2="16.782" gradientTransform="rotate(20.555 110.565 85.131)">
        <stop offset="0" stop-color="#80f7de"/>
        <stop offset=".978" stop-color="#e6ffe0"/>
      </linearGradient>
      <path d="M81.6 2.4s-7.2-4.1-13.8 0c-6.6 4.1-6.3 8.8-4 8.5 2.3-.2 5.3-2.7 11.7-2.8 6.5 0 9.6-3.6 6.1-5.7z" opacity=".68" fill="url(#SVGID_34_)"/>
      <path class="st46" d="M76.3 1.7s-5.2.1-7.5 1.9c-2.3 1.9 11.1.7 7.5-1.9z"/>
      <path class="st46" d="M78.9 1.9s-3.4 1.4.1 1.9 2.8-1.9-.1-1.9z"/>
      <path class="st40" d="M79.7 14.4c-4.3 3.9-11 7.4-16.5 6.7-3.1-.4-4.2-2.6-4.5-4.9.1 2.1.7 4.2 1.9 5.9 2.9 4 10.4 1 15.9-4.3 1.1-1.1 2.2-2.2 3.2-3.4z"/>
    </g>
    <g>
      <path class="st37" d="M149 51.6c-3.4 8.9-1.9 19.4 4.5 21.8 6.4 2.4 14.3-2.9 17.7-11.8 3.4-8.9-.8-18.8-7.2-21.2-6.4-2.4-11.7 2.3-15 11.2z"/>
      <linearGradient id="SVGID_35_" gradientUnits="userSpaceOnUse" x1="1653.255" y1="63.022" x2="1645.179" y2="23.578" gradientTransform="scale(-1 1) rotate(-20.555 787.799 5040.73)">
        <stop offset="0" stop-color="#39a9dc"/>
        <stop offset="1" stop-color="#7dfac9"/>
      </linearGradient>
      <path d="M150.2 53.8c-2.2 8.5-.4 17.9 6.3 18.7 8.5 1.1 15.5-4.7 17.7-13.2 2.4-9.4-4.4-17.2-10.9-18.8-6.6-1.7-10.9 4.8-13.1 13.3z" fill="url(#SVGID_35_)"/>
      <path class="st39" d="M150.2 53.8c.3-1.1.6-2.1.9-3.1-.4 2.7-.1 5.8 2.3 7.9 5.3 4.5 9.3 4 8.9 8.9-.2 2.1.7 3.4 2 4-2.4 1-5.1 1.5-8 1.1-6.5-1-8.3-10.4-6.1-18.8z"/>
      <defs>
        <filter id="Adobe_OpacityMaskFilter_18_" filterUnits="userSpaceOnUse" x="155.2" y="40.9" width="18.8" height="16.7">
          <feFlood result="back" flood-color="#fff" flood-opacity="1"/>
          <feBlend in="SourceGraphic" in2="back"/>
        </filter>
      </defs>
      <mask maskUnits="userSpaceOnUse" x="155.2" y="40.9" width="18.8" height="16.7" id="SVGID_36_">
        <g filter="url(#Adobe_OpacityMaskFilter_18_)">
          <defs>
            <filter id="Adobe_OpacityMaskFilter_19_" filterUnits="userSpaceOnUse" x="155.2" y="40.9" width="18.8" height="16.7">
              <feFlood result="back" flood-color="#fff" flood-opacity="1"/>
              <feBlend in="SourceGraphic" in2="back"/>
            </filter>
          </defs>
          <linearGradient id="SVGID_37_" gradientUnits="userSpaceOnUse" x1="1649.019" y1="39.931" x2="1645.986" y2="25.119" gradientTransform="scale(-1 1) rotate(-20.555 787.799 5040.73)">
            <stop offset="0" stop-color="#737373"/>
            <stop offset=".978" stop-color="#fff"/>
          </linearGradient>
          <path d="M166.3 42s7.6 5.3 7.7 12.3c.1 7-4.8 1.4-8.6-2.2s-9.2-.7-10.1-3.1c-.8-2.5 2.2-11.2 11-7z" mask="url(#SVGID_36_)" fill="url(#SVGID_37_)"/>
        </g>
      </mask>
      <linearGradient id="SVGID_38_" gradientUnits="userSpaceOnUse" x1="1649.019" y1="39.931" x2="1645.986" y2="25.119" gradientTransform="scale(-1 1) rotate(-20.555 787.799 5040.73)">
        <stop offset="0" stop-color="#80f7de"/>
        <stop offset=".978" stop-color="#e6ffe0"/>
      </linearGradient>
      <path d="M166.3 42s7.6 5.3 7.7 12.3c.1 7-4.8 1.4-8.6-2.2s-9.2-.7-10.1-3.1c-.8-2.5 2.2-11.2 11-7z" opacity=".68" fill="url(#SVGID_38_)"/>
      <path class="st46" d="M172.5 51.3s1.5.9.2 1.9c-1.3.9-2.1-2.6-.2-1.9z"/>
      <path class="st40" d="M151.3 51.7c-2.1 9.7-.5 15 4.5 18.8 3.3 2.5 8.8.4 12.2-1.3-3.1 2.5-7.1 3.8-11.5 3.3-6.7-.9-8.4-10.3-6.3-18.7.6-2.2 1.3-4.4 2.2-6.2-.4 1.3-.8 2.7-1.1 4.1z"/>
      <path class="st41" d="M150.2 53.8c1.8-7.1 5.2-12.8 10-13.5-.7.5-8.2 6.4-4.3 13.4 3.6 6.6 10.6 4.1 12.9 14.8-2.1 1.9-4.6 3.3-7.4 3.8 1.9-3.3 4.2-8.2 1.4-10.7-5.3-4.8-7.8-3.5-9.7-6.7-1.6-2.6-3.1.1-3.7 3.5.1-1.5.4-3.1.8-4.6z"/>
      <path class="st46" d="M166.9 43.4s4.4 3 4.4 5.8c.1 2.8-3.4-1.3-5.7-3.3-2.2-1.9-2.5-4.5 1.3-2.5z"/>
    </g>
    <g>
      <path class="st37" d="M194.5 63.9s1.8 7.7-4.6 9c-6.4 1.3-9.3-8-10.2-17.2-.9-9.2 2.6-16.3 5.5-14.6 2.8 1.7 9.3 22.8 9.3 22.8z"/>
      <linearGradient id="SVGID_39_" gradientUnits="userSpaceOnUse" x1="1626.594" y1="48.149" x2="1620.716" y2="17.735" gradientTransform="scale(-1 1) rotate(-20.555 787.799 5040.73)">
        <stop offset="0" stop-color="#39a9dc"/>
        <stop offset="1" stop-color="#7dfac9"/>
      </linearGradient>
      <path d="M181.4 57.1c.7 7.6 4.3 14.8 9.1 13.7 6.1-1.4 9.9-8.4 9.2-16-.7-7.6-8.5-14-13.5-13.6-4.9.5-5.5 8.3-4.8 15.9z" fill="url(#SVGID_39_)"/>
      <path class="st41" d="M181.4 57.1v-.2c2.3 2.4 6.9 2 12.5.4 3.9-1.1 5.1-3.3 5.2-5.3.2.6.3 1.3.5 2-2.1 5.9-8.7 6-11.4 7.9-1.9 1.3-2.4 4.9-2.4 7.2-2.4-2.5-4-7.2-4.4-12z"/>
      <path class="st39" d="M182.8 43.5c-.4 1.8-.5 4.4.5 7.7 2.1 7.2 8 7.1 8.2 12.3.2 4.1-.5 6.3 2.3 5.8-1 .7-2.2 1.2-3.4 1.5-4.8 1.1-8.4-6.1-9.1-13.7-.4-5.2-.2-10.6 1.5-13.6z"/>
      <defs>
        <filter id="Adobe_OpacityMaskFilter_20_" filterUnits="userSpaceOnUse" x="184.7" y="42.1" width="14.1" height="18.6">
          <feFlood result="back" flood-color="#fff" flood-opacity="1"/>
          <feBlend in="SourceGraphic" in2="back"/>
        </filter>
      </defs>
      <mask maskUnits="userSpaceOnUse" x="184.7" y="42.1" width="14.1" height="18.6" id="SVGID_40_">
        <g filter="url(#Adobe_OpacityMaskFilter_20_)">
          <defs>
            <filter id="Adobe_OpacityMaskFilter_21_" filterUnits="userSpaceOnUse" x="184.7" y="42.1" width="14.1" height="18.6">
              <feFlood result="back" flood-color="#fff" flood-opacity="1"/>
              <feBlend in="SourceGraphic" in2="back"/>
            </filter>
          </defs>
          <linearGradient id="SVGID_41_" gradientUnits="userSpaceOnUse" x1="1625.054" y1="33.091" x2="1620.206" y2="16.782" gradientTransform="scale(-1 1) rotate(-20.555 787.799 5040.73)">
            <stop offset="0" stop-color="#737373"/>
            <stop offset=".978" stop-color="#fff"/>
          </linearGradient>
          <path d="M187.6 42.2s8.2 1.7 10.4 9.1c2.2 7.4-1.1 10.7-2.6 9.1-1.6-1.7-2.2-5.5-7-9.8-4.8-4.4-4.8-9.1-.8-8.4z" mask="url(#SVGID_40_)" fill="url(#SVGID_41_)"/>
        </g>
      </mask>
      <linearGradient id="SVGID_42_" gradientUnits="userSpaceOnUse" x1="1625.054" y1="33.091" x2="1620.206" y2="16.782" gradientTransform="scale(-1 1) rotate(-20.555 787.799 5040.73)">
        <stop offset="0" stop-color="#80f7de"/>
        <stop offset=".978" stop-color="#e6ffe0"/>
      </linearGradient>
      <path d="M187.6 42.2s8.2 1.7 10.4 9.1c2.2 7.4-1.1 10.7-2.6 9.1-1.6-1.7-2.2-5.5-7-9.8-4.8-4.4-4.8-9.1-.8-8.4z" opacity=".68" fill="url(#SVGID_42_)"/>
      <path class="st46" d="M192.1 45.1s3.8 3.5 4.4 6.4c.5 2.9-8.8-6.8-4.4-6.4z"/>
      <path class="st46" d="M190 43.5s1.6 3.3-1.3 1.4c-3-1.9-.9-3.2 1.3-1.4z"/>
      <path class="st40" d="M181.1 52.5c.7 5.8 3.4 12.8 8.1 15.9 2.6 1.7 4.9.8 6.6-.8-1.4 1.6-3.2 2.7-5.3 3.2-4.8 1.1-8.4-6.1-9.1-13.7-.2-1.5-.3-3.1-.3-4.6z"/>
    </g>
    <linearGradient id="SVGID_43_" gradientUnits="userSpaceOnUse" x1="235.605" y1="24.583" x2="184.815" y2="78.164" gradientTransform="rotate(20.555 110.565 85.131)">
      <stop offset="0" stop-color="#ffc645"/>
      <stop offset=".978" stop-color="#f5a3c4"/>
    </linearGradient>
    <path d="M197 71.1s-1.7 5.2-5.5 6.4c-3.8 1.3-1.7 2.3 5.2 9.3 7 7.1 17.4 20.4 23.5 22 6.1 1.6 16.5-1.6 15.9-9.5-.6-7.8-15.9-20.9-15.9-20.9L197 71.1z" opacity=".34" fill="url(#SVGID_43_)"/>
    <linearGradient id="SVGID_44_" gradientUnits="userSpaceOnUse" x1="197.312" y1="43.275" x2="140.87" y2="102.819" gradientTransform="rotate(20.555 110.565 85.131)">
      <stop offset="0" stop-color="#ffc645"/>
      <stop offset=".978" stop-color="#f5a3c4"/>
    </linearGradient>
    <path d="M149.1 77.8c-.1-1.1 11.5 2.1 16.3 2 4.8-.1 7 1.9 14 10.8s22.6 21 8.2 19.7c-14.4-1.3-34.9-7.6-38.8-10-3.9-2.4.5-18.6.3-22.5z" opacity=".34" fill="url(#SVGID_44_)"/>
    <linearGradient id="SVGID_45_" gradientUnits="userSpaceOnUse" x1="189.75" y1="62.072" x2="137.808" y2="83.672" gradientTransform="rotate(20.555 110.565 85.131)">
      <stop offset="0" stop-color="#ffc645"/>
      <stop offset=".978" stop-color="#f5a3c4"/>
    </linearGradient>
    <path d="M172.1 82.3l-24.8 10.4c-.2 3.6 0 6.6 1.5 7.6.9.6 2.7 1.3 5.1 2.2l21.5-16.7c-1.2-1.5-2.3-2.6-3.3-3.5z" opacity=".3" fill="url(#SVGID_45_)"/>
    <path class="st46" d="M157.8 18.2s-14.4-6.6-2 2.9c12.4 9.6 15.5 16 20 14.6 4.5-1.4-8.2-13.5-18-17.5zM178.8 37.4s-5.6-1.5-1.7 3.7c3.9 5.1 6.6 1.2 1.7-3.7z"/>
    <linearGradient id="SVGID_46_" gradientUnits="userSpaceOnUse" x1="11.514" y1="118.706" x2="85.848" y2="45.82" gradientTransform="rotate(20.555 110.565 85.131)">
      <stop offset="0" stop-color="#ffc645"/>
      <stop offset=".978" stop-color="#f5a3c4"/>
    </linearGradient>
    <path d="M67.5 42.2s-35.4 6.5-31.2 9.9c4.3 3.4 26.2 17.7 33.3 19.4 9.3-4.5 21.3-15 18-17.2-4.2-2.7-11.4-6.8-20.1-12.1z" opacity=".34" fill="url(#SVGID_46_)"/>
    <linearGradient id="SVGID_47_" gradientUnits="userSpaceOnUse" x1="107.547" y1="52.467" x2="13.068" y2="91.756" gradientTransform="rotate(20.555 110.565 85.131)">
      <stop offset="0" stop-color="#ffc645"/>
      <stop offset=".978" stop-color="#f5a3c4"/>
    </linearGradient>
    <path d="M88.1 55.8L37 50.3c-1 .7-1.3 1.3-.6 1.8 1.1.9 3.6 2.6 6.6 4.7 13.6 1.3 31.9 3.1 41.8 4 1.9-2 3.2-3.8 3.3-5z" opacity=".18" fill="url(#SVGID_47_)"/>
    <linearGradient id="SVGID_48_" gradientUnits="userSpaceOnUse" x1="179.347" y1="75.696" x2="225.827" y2="30.12" gradientTransform="rotate(20.555 110.565 85.131)">
      <stop offset="0" stop-color="#ffc645"/>
      <stop offset=".978" stop-color="#f5a3c4"/>
    </linearGradient>
    <path d="M234.9 95.7c-3.6-7.7-14.7-17.2-14.7-17.2l-22.3-7.1c-.2.3-1.2 1.8-2.8 3.3-.2.3-.5.6-.7.9 2.5 1.2 36.7 17.7 40.5 20.1z" opacity=".46" fill="url(#SVGID_48_)"/>
    <linearGradient id="SVGID_49_" gradientUnits="userSpaceOnUse" x1="181.648" y1="60.745" x2="212.96" y2="30.042" gradientTransform="rotate(20.555 110.565 85.131)">
      <stop offset="0" stop-color="#ffc645"/>
      <stop offset=".978" stop-color="#f5a3c4"/>
    </linearGradient>
    <path d="M198.2 71.8s-2.6.8 2 2.6c6.5 2.4 22.3 6.5 22.3 6.5l-2.2-2.4-22.1-6.7z" fill="url(#SVGID_49_)"/>
    <linearGradient id="SVGID_50_" gradientUnits="userSpaceOnUse" x1="227.866" y1="27.888" x2="193.532" y2="76.574" gradientTransform="rotate(20.555 110.565 85.131)">
      <stop offset="0" stop-color="#ffc645"/>
      <stop offset=".978" stop-color="#f5a3c4"/>
    </linearGradient>
    <path d="M191.5 77.6l39.1 30.5s-3.7 1-4.8.9c-1.2-.1-35.4-30.7-35.4-30.7l1.1-.7z" opacity=".46" fill="url(#SVGID_50_)"/>
    <linearGradient id="SVGID_51_" gradientUnits="userSpaceOnUse" x1="106.816" y1="25.412" x2="48.016" y2="108.793" gradientTransform="rotate(20.555 110.565 85.131)">
      <stop offset="0" stop-color="#ffc645"/>
      <stop offset=".978" stop-color="#f5a3c4"/>
    </linearGradient>
    <path opacity=".4" fill="url(#SVGID_51_)" d="M85.5 53.8L63.2 68.3l7 2.7 18.6-15.2z"/>
    <linearGradient id="SVGID_52_" gradientUnits="userSpaceOnUse" x1="186.142" y1="40.841" x2="179.429" y2="83.11" gradientTransform="rotate(20.555 110.565 85.131)">
      <stop offset="0" stop-color="#ffc645"/>
      <stop offset=".978" stop-color="#f5a3c4"/>
    </linearGradient>
    <path opacity=".56" fill="url(#SVGID_52_)" d="M172.2 80.7l24.3 29.9-8.3-1-19.6-29.4z"/>
  </g>
</svg>