<svg version="1.1" id="Layer_1" xmlns="http://www.w3.org/2000/svg" x="0" y="0" viewBox="0 0 724.4 463.3" xml:space="preserve"><style>.st0{fill:#fff}.st1{fill:#231f20}</style><path class="st0" d="M598.4 458H66.1C29.6 458 0 428.4 0 391.9V106.1C0 69.6 29.6 40 66.1 40h532.4c36.5 0 66.1 29.6 66.1 66.1v285.7c-.1 36.6-29.7 66.2-66.2 66.2z"/><path class="st1" d="M89.8 184.1c-4.7 0-10-.9-16.1-2.9-5.9-2-11.2-4.6-15.6-7.9V194c9.1 5.3 20.6 8 34.6 8 12 0 21.1-2.7 27.5-8.3 6.5-5.6 9.7-12.6 9.7-21.1 0-10.5-5.3-19.3-12.4-24-3.5-2.4-7.4-4.7-11.5-6.8-11.7-6.1-23.8-9-23.8-16.2 0-6.7 6.2-9.9 15.2-9.9 3.9 0 8.3.8 13.3 2.3 5 1.5 9.4 3.5 12.9 5.8v-19.4c-9.3-4.3-19.1-6.4-29.9-6.4-10.2 0-18.4 2.6-24.7 7.6-6.2 5-9.4 11.8-9.4 20.2-.3 17.4 17.6 25 31 30.9 9.3 4.1 16.8 9.6 16.8 16.4-.1 7.4-7.3 11-17.6 11zm161.6-83.9l-20.5 50.3h-.6L206 99h-3.1l-23.5 51.5h-.7l-20.9-50.3h-24.9L174.6 202h3.4l25.9-59.3h.6l26.6 59.3h3.3l41.7-101.8zm37-.1H311v100.1h-22.6zm100.8 93.6c6.5-5.6 9.7-12.6 9.7-21.1 0-10.5-5.3-19.3-12.4-24-3.5-2.4-7.4-4.7-11.5-6.8-11.7-6.1-23.8-9-23.8-16.2 0-6.7 6.2-9.9 15.2-9.9 4 0 8.3.8 13.4 2.3 5 1.5 9.4 3.5 12.9 5.8v-19.4c-9.2-4.3-19.1-6.4-29.9-6.4-10.2 0-18.4 2.6-24.7 7.6-6.2 5-9.4 11.8-9.4 20.2-.3 17.4 17.6 25 30.9 30.9 9.3 4.1 16.8 9.6 16.8 16.4 0 7.4-7.1 11.1-17.4 11.1-4.7 0-10-.9-16.1-2.9-5.9-2-11.2-4.6-15.6-7.9V194c9.1 5.3 20.6 8 34.6 8 11.8 0 20.9-2.7 27.3-8.3zm84.7 0c6.5-5.6 9.7-12.6 9.7-21.1 0-10.5-5.3-19.3-12.4-24-3.5-2.4-7.4-4.7-11.5-6.8-11.7-6.1-23.8-9-23.8-16.2 0-6.7 6.2-9.9 15.2-9.9 3.9 0 8.3.8 13.3 2.3 5 1.5 9.4 3.5 12.9 5.8v-19.4c-9.3-4.3-19.1-6.4-29.9-6.4-10.2 0-18.4 2.6-24.7 7.6-6.2 5-9.4 11.8-9.4 20.2-.3 17.4 17.6 25 31 30.9 9.2 4.1 16.8 9.6 16.8 16.4 0 7.4-7.1 11.1-17.4 11.1-4.7 0-10-.9-16.1-2.9-5.9-2-11.2-4.6-15.6-7.9V194c9.1 5.3 20.6 8 34.6 8 11.8 0 20.9-2.7 27.3-8.3zM134.1 328.5H86v-26.2h40.5v-16.9H86v-22.1h45.2v-17.4H63.4V346h70.7zm82.1-26.7h-.6c-6.8-6.7-17.3-16.2-31.1-28.7-13.8-12.6-24.3-22.3-31.4-29.3h-3.3V346h22.5v-57.8h.5l62.8 59.5h3.2V245.9h-22.5v55.9zm113.7 26.7h-48.1v-26.2h40.5v-16.9h-40.5v-22.1H327v-17.4h-67.8V346h70.7zm47.3-25.5v2.1l26.4 40.8h25.8L403 309.1c13.5-6.2 20-18.8 20-30.3 0-10.2-3.6-18.2-10.9-24-7.1-5.9-15.9-8.8-26.2-8.8h-40.5v100H368v-82.8h13.7c11.7 0 19.1 7.3 19.1 18.8-.1 9.8-7.8 19.2-23.6 21zm110.5 44.7c14.4 0 26.1-2 35.3-5.8v-47.5h-20v33.1c-4.1 1.5-8.5 2.3-13.5 2.3-10.2 0-18.1-3-23.4-9.1-5.3-6.2-7.9-14.1-7.9-23.7 0-10.6 3.2-19 9.4-25.2 6.4-6.2 14.4-9.4 24.3-9.4s18.7 2.1 26.7 6.4v-19.6c-7.7-3.6-17.1-5.5-28.5-5.5-16.5 0-29.7 5.2-39.9 15.3-10 10.2-15 22.6-15 37.6 0 15.2 4.5 27.5 13.7 36.9 9.2 9.5 22.1 14.2 38.8 14.2zm76.4-1.7h22.6v-39.6l33.4-60.5H596L576.3 288h-.6l-21.6-42.1h-24.4l34.4 60.5zm-81.9 66.3c0-.5-.1-.9-.1-1.2-.1-.3-.3-.6-.6-.9-.3-.2-.6-.4-1.1-.5-.5-.1-1-.2-1.7-.2h-2.5v5.8h2.1c.7 0 1.3-.1 1.8-.2s.9-.3 1.2-.6c.3-.2.5-.6.6-.9.2-.4.3-.8.3-1.3zm-90.4 5.2c0-2-.7-3.6-2-4.6-1.3-1.1-3.4-1.6-6.1-1.6H379v13.2h4.6c1.4 0 2.6-.2 3.7-.5 1-.4 1.9-.8 2.6-1.4.7-.6 1.2-1.3 1.5-2.2.2-1 .4-1.9.4-2.9zm-106.4-2.4c-1.1-1.2-2.4-2.1-4-2.8-1.6-.6-3.3-1-5.2-1h-7.7v28h7.7c1.9 0 3.7-.3 5.2-1 1.5-.6 2.9-1.6 4-2.8 1.1-1.2 1.9-2.7 2.5-4.4.6-1.7.9-3.7.9-5.9s-.3-4.1-.9-5.9c-.6-1.5-1.4-3-2.5-4.2z"/><path class="st1" d="M663.1 200.2v193c0 34.7-28.2 62.9-62.9 62.9h-20c-26.8 0-36.8-16.7-47.4-34.3-11.2-18.6-22.7-37.8-53.6-37.8H191c-30.9 0-42.4 19.2-53.6 37.8-10.6 17.6-20.6 34.3-47.4 34.3H70c-34.7 0-62.9-28.2-62.9-62.9V108.1c0-34.7 28.2-62.9 62.9-62.9h454.1V38h-454C31.4 38 0 69.5 0 108.1v285.1c0 38.6 31.4 70.1 70.1 70.1h530.1c38.6 0 70.1-31.4 70.1-70.1v-193h-7.2zM209.6 438.3c-.6 1.4-1.6 2.7-2.8 3.7-1.2 1-2.7 1.8-4.5 2.4-1.8.6-3.9.9-6.2.9h-15v-39.8h13.7c2.6 0 4.8.2 6.7.7 1.8.5 3.4 1.2 4.6 2.1 1.2.9 2 2 2.6 3.3.6 1.3.8 2.8.8 4.4 0 .9-.1 1.8-.4 2.7-.3.9-.7 1.7-1.3 2.4-.6.7-1.3 1.4-2.2 2-.9.6-1.9 1.1-3.2 1.5 5.5 1.2 8.2 4.2 8.2 8.9-.1 1.8-.4 3.4-1 4.8zm17.4 14.8c-.2.5-.5.8-.8 1.1-.3.2-.8.4-1.5.4h-5.1l5.3-11.3-11.4-26.1h6c.5 0 .9.1 1.3.4.3.3.5.5.7.9l6 14.6c.2.5.4 1 .5 1.5.1.5.3 1 .4 1.5.2-.5.3-1 .5-1.5l.6-1.5 5.7-14.6c.1-.4.4-.7.7-.9.3-.2.7-.4 1.1-.4h5.4L227 453.1zm67.9-19.7c-1 2.4-2.3 4.5-4.1 6.3-1.8 1.8-3.9 3.1-6.3 4.1-2.5 1-5.2 1.5-8.3 1.5H261v-39.8h15.2c3 0 5.8.5 8.3 1.5 2.5 1 4.6 2.3 6.3 4.1 1.8 1.8 3.1 3.8 4.1 6.3 1 2.4 1.5 5.1 1.5 8 0 2.9-.5 5.6-1.5 8zm24.1-10.9c-.1.3-.2.6-.4.7-.2.1-.4.2-.7.2-.3 0-.7 0-1.2-.1s-1.1-.1-1.6-.1c-.7 0-1.4.1-2 .3-.6.2-1.1.5-1.6.9s-.9.9-1.2 1.5c-.4.6-.7 1.3-1 2v17.4h-6.8v-28.2h4c.7 0 1.2.1 1.4.4.3.3.5.7.6 1.3l.4 3.2c.9-1.7 1.9-3 3.1-4 1.2-1 2.6-1.4 4.3-1.4 1.3 0 2.3.3 3.1.9l-.4 5zm9.9 20.7c-.2.5-.5.9-.9 1.3s-.8.7-1.3.9c-.5.2-1.1.3-1.6.3-.6 0-1.1-.1-1.6-.3-.5-.2-1-.5-1.3-.9-.4-.4-.7-.8-.9-1.3-.2-.5-.3-1-.3-1.6 0-.6.1-1.1.3-1.6.2-.5.5-1 .9-1.3.4-.4.8-.7 1.3-.9.5-.2 1.1-.3 1.6-.3.6 0 1.1.1 1.6.3.5.2.9.5 1.3.9s.7.8.9 1.3c.2.5.3 1.1.3 1.6s-.1 1.1-.3 1.6zm35.5-31.8h-17.7v11.8h14.9v5.9h-14.9v16.2h-7.4v-39.8h25.1v5.9zm31.5 33.9c-1.3 0-2.2-.5-2.8-1.5l-8.4-12.7c-.3-.5-.7-.8-1-1-.4-.2-.9-.3-1.7-.3h-3v15.5h-7.4v-39.8h12.1c2.7 0 5 .3 6.9.8 1.9.6 3.5 1.3 4.8 2.4 1.2 1 2.1 2.2 2.7 3.6.6 1.4.9 2.9.9 4.6 0 1.3-.2 2.6-.6 3.8-.4 1.2-1 2.3-1.7 3.2-.7 1-1.7 1.8-2.7 2.6-1.1.7-2.3 1.3-3.7 1.7.5.3.9.6 1.3 1s.8.8 1.1 1.3l10 14.7h-6.8zm37.2-33.9h-17.7v11h13.9v5.7h-13.9v11.3h17.7v5.9H408v-39.8h25.1v5.9zm15.1 33.9h-7.4v-39.8h7.4v39.8zm45.4-25.4c-.4 1.3-.9 2.5-1.5 3.7-.7 1.1-1.5 2.2-2.4 3.1-.9.9-2 1.7-3.1 2.4s-2.3 1.2-3.7 1.5c-1.3.4-2.7.5-4.1.5-1.4 0-2.7-.2-4.1-.5-1.3-.4-2.5-.9-3.7-1.5-1.1-.7-2.2-1.5-3.1-2.4-.9-.9-1.7-2-2.4-3.1s-1.2-2.4-1.5-3.7c-.4-1.3-.5-2.7-.5-4.1 0-1.4.2-2.8.5-4.1.4-1.3.9-2.5 1.5-3.7.7-1.1 1.5-2.2 2.4-3.1.9-.9 2-1.7 3.1-2.4s2.3-1.2 3.7-1.5c1.3-.4 2.7-.6 4.1-.6 1.4 0 2.8.2 4.1.6 1.3.4 2.5.9 3.7 1.5 1.1.7 2.2 1.5 3.1 2.4.9.9 1.7 2 2.4 3.1s1.2 2.4 1.5 3.7c.4 1.3.5 2.6.5 4.1.1 1.5-.1 2.8-.5 4.1z"/><path class="st1" d="M201.5 429.3c-.6-.5-1.4-.9-2.3-1.1-.9-.3-2-.4-3.4-.4h-7.5v11.7h7.5c1.4 0 2.5-.2 3.5-.5.9-.3 1.7-.8 2.2-1.3.6-.6 1-1.2 1.2-1.9.2-.7.4-1.5.4-2.3 0-.9-.1-1.6-.4-2.3-.2-.8-.6-1.4-1.2-1.9zm-1.4-7.9c1.3-.9 1.9-2.4 1.9-4.4 0-2.1-.6-3.6-1.8-4.4-1.2-.9-3-1.3-5.5-1.3h-6.3v11.5h5.9c2.6-.1 4.5-.5 5.8-1.4zM490 409.2c-.6-1-1.2-1.9-2-2.7-.8-.8-1.6-1.5-2.6-2.1-1-.6-2-1-3.1-1.3-1.1-.3-2.3-.5-3.5-.5-1.8 0-3.5.3-5 1-1.6.7-2.9 1.6-4.1 2.8-1.1 1.2-2.1 2.6-2.7 4.2-.7 1.6-1 3.3-1 5.2 0 1.8.3 3.5 1 5.1.7 1.6 1.6 3 2.7 4.1 1.2 1.2 2.5 2.1 4.1 2.8 1.6.7 3.2 1 5 1 1.2 0 2.3-.2 3.5-.5 1.1-.3 2.1-.7 3.1-1.3 1-.6 1.8-1.2 2.6-2s1.5-1.7 2-2.6c.5-1 1-2 1.3-3.1.3-1.1.4-2.3.4-3.5 0-1.2-.1-2.4-.4-3.5-.3-1.1-.7-2.1-1.3-3.1zm-6.4 16c-.5 0-.9-.2-1.2-.6l-3.6-5.8c-.1-.2-.3-.3-.4-.4-.2-.1-.4-.2-.8-.2h-1.4v7h-3.9v-18.6h6.3c2.5 0 4.3.4 5.5 1.3 1.2.9 1.8 2.2 1.8 3.9 0 1.3-.3 2.4-1 3.3-.7.9-1.7 1.6-3.1 2 .3.2.5.4.7.6.2.2.4.5.5.8l4.3 6.6h-3.7z"/><path d="M524.2 0v200.2h200.2V0H524.2z" fill="#be2025"/><path class="st0" d="M684.4 120.1h-40.1v40h-40v-40h-40v-40h40V40h40v40h40.1v40.1z"/></svg>