<?xml version="1.0" encoding="utf-8"?>
<!-- Generator: Adobe Illustrator 22.0.1, SVG Export Plug-In . SVG Version: 6.00 Build 0)  -->
<svg version="1.1" id="Layer_1" xmlns="http://www.w3.org/2000/svg" xmlns:xlink="http://www.w3.org/1999/xlink" x="0px" y="0px"
	 viewBox="0 0 724.4 463.3" style="enable-background:new 0 0 724.4 463.3;" xml:space="preserve">
<style type="text/css">
	.st0{fill:#FFFFFF;}
	.st1{fill:#231F20;}
	.st2{fill:#BE2025;}
</style>
<path class="st0" d="M598.4,458H66.1C29.6,458,0,428.4,0,391.9V106.1C0,69.6,29.6,40,66.1,40h532.4c36.5,0,66.1,29.6,66.1,66.1
	v285.7C664.5,428.4,634.9,458,598.4,458z"/>
<g>
	<g>
		<path class="st1" d="M89.8,184.1c-4.7,0-10-0.9-16.1-2.9c-5.9-2-11.2-4.6-15.6-7.9V194c9.1,5.3,20.6,8,34.6,8
			c12,0,21.1-2.7,27.5-8.3c6.5-5.6,9.7-12.6,9.7-21.1c0-10.5-5.3-19.3-12.4-24c-3.5-2.4-7.4-4.7-11.5-6.8
			c-11.7-6.1-23.8-9-23.8-16.2c0-6.7,6.2-9.9,15.2-9.9c3.9,0,8.3,0.8,13.3,2.3c5,1.5,9.4,3.5,12.9,5.8v-19.4
			c-9.3-4.3-19.1-6.4-29.9-6.4c-10.2,0-18.4,2.6-24.7,7.6c-6.2,5-9.4,11.8-9.4,20.2c-0.3,17.4,17.6,25,31,30.9
			c9.3,4.1,16.8,9.6,16.8,16.4C107.3,180.5,100.1,184.1,89.8,184.1z"/>
		<polygon class="st1" points="251.4,100.2 230.9,150.5 230.3,150.5 206,99 202.9,99 179.4,150.5 178.7,150.5 157.8,100.2 
			132.9,100.2 174.6,202 178,202 203.9,142.7 204.5,142.7 231.1,202 234.4,202 276.1,100.2 		"/>
		<rect x="288.4" y="100.1" class="st1" width="22.6" height="100.1"/>
		<path class="st1" d="M389.2,193.7c6.5-5.6,9.7-12.6,9.7-21.1c0-10.5-5.3-19.3-12.4-24c-3.5-2.4-7.4-4.7-11.5-6.8
			c-11.7-6.1-23.8-9-23.8-16.2c0-6.7,6.2-9.9,15.2-9.9c4,0,8.3,0.8,13.4,2.3c5,1.5,9.4,3.5,12.9,5.8v-19.4
			c-9.2-4.3-19.1-6.4-29.9-6.4c-10.2,0-18.4,2.6-24.7,7.6c-6.2,5-9.4,11.8-9.4,20.2c-0.3,17.4,17.6,25,30.9,30.9
			c9.3,4.1,16.8,9.6,16.8,16.4c0,7.4-7.1,11.1-17.4,11.1c-4.7,0-10-0.9-16.1-2.9c-5.9-2-11.2-4.6-15.6-7.9V194
			c9.1,5.3,20.6,8,34.6,8C373.7,202,382.8,199.3,389.2,193.7z"/>
		<path class="st1" d="M473.9,193.7c6.5-5.6,9.7-12.6,9.7-21.1c0-10.5-5.3-19.3-12.4-24c-3.5-2.4-7.4-4.7-11.5-6.8
			c-11.7-6.1-23.8-9-23.8-16.2c0-6.7,6.2-9.9,15.2-9.9c3.9,0,8.3,0.8,13.3,2.3c5,1.5,9.4,3.5,12.9,5.8v-19.4
			c-9.3-4.3-19.1-6.4-29.9-6.4c-10.2,0-18.4,2.6-24.7,7.6c-6.2,5-9.4,11.8-9.4,20.2c-0.3,17.4,17.6,25,31,30.9
			c9.2,4.1,16.8,9.6,16.8,16.4c0,7.4-7.1,11.1-17.4,11.1c-4.7,0-10-0.9-16.1-2.9c-5.9-2-11.2-4.6-15.6-7.9V194
			c9.1,5.3,20.6,8,34.6,8C458.4,202,467.5,199.3,473.9,193.7z"/>
		<polygon class="st1" points="134.1,328.5 86,328.5 86,302.3 126.5,302.3 126.5,285.4 86,285.4 86,263.3 131.2,263.3 131.2,245.9 
			63.4,245.9 63.4,346 134.1,346 		"/>
		<path class="st1" d="M216.2,301.8h-0.6c-6.8-6.7-17.3-16.2-31.1-28.7c-13.8-12.6-24.3-22.3-31.4-29.3h-3.3V346h22.5v-57.8h0.5
			l62.8,59.5h3.2V245.9h-22.5V301.8z"/>
		<polygon class="st1" points="329.9,328.5 281.8,328.5 281.8,302.3 322.3,302.3 322.3,285.4 281.8,285.4 281.8,263.3 327,263.3 
			327,245.9 259.2,245.9 259.2,346 329.9,346 		"/>
		<path class="st1" d="M377.2,303v2.1l26.4,40.8h25.8L403,309.1c13.5-6.2,20-18.8,20-30.3c0-10.2-3.6-18.2-10.9-24
			c-7.1-5.9-15.9-8.8-26.2-8.8h-40.5v100h22.6v-82.8h13.7c11.7,0,19.1,7.3,19.1,18.8C400.7,291.8,393,301.2,377.2,303z"/>
		<path class="st1" d="M487.7,347.7c14.4,0,26.1-2,35.3-5.8v-47.5h-20v33.1c-4.1,1.5-8.5,2.3-13.5,2.3c-10.2,0-18.1-3-23.4-9.1
			c-5.3-6.2-7.9-14.1-7.9-23.7c0-10.6,3.2-19,9.4-25.2c6.4-6.2,14.4-9.4,24.3-9.4c9.9,0,18.7,2.1,26.7,6.4v-19.6
			c-7.7-3.6-17.1-5.5-28.5-5.5c-16.5,0-29.7,5.2-39.9,15.3c-10,10.2-15,22.6-15,37.6c0,15.2,4.5,27.5,13.7,36.9
			C458.1,343,471,347.7,487.7,347.7z"/>
		<polygon class="st1" points="564.1,346 586.7,346 586.7,306.4 620.1,245.9 596,245.9 576.3,288 575.7,288 554.1,245.9 
			529.7,245.9 564.1,306.4 		"/>
		<path class="st1" d="M482.2,412.3c0-0.5-0.1-0.9-0.1-1.2c-0.1-0.3-0.3-0.6-0.6-0.9c-0.3-0.2-0.6-0.4-1.1-0.5
			c-0.5-0.1-1-0.2-1.7-0.2h-2.5v5.8h2.1c0.7,0,1.3-0.1,1.8-0.2c0.5-0.1,0.9-0.3,1.2-0.6c0.3-0.2,0.5-0.6,0.6-0.9
			C482.1,413.2,482.2,412.8,482.2,412.3z"/>
		<path class="st1" d="M391.8,417.5c0-2-0.7-3.6-2-4.6c-1.3-1.1-3.4-1.6-6.1-1.6H379v13.2h4.6c1.4,0,2.6-0.2,3.7-0.5
			c1-0.4,1.9-0.8,2.6-1.4c0.7-0.6,1.2-1.3,1.5-2.2C391.6,419.4,391.8,418.5,391.8,417.5z"/>
		<path class="st1" d="M285.4,415.1c-1.1-1.2-2.4-2.1-4-2.8c-1.6-0.6-3.3-1-5.2-1h-7.7v28h7.7c1.9,0,3.7-0.3,5.2-1
			c1.5-0.6,2.9-1.6,4-2.8c1.1-1.2,1.9-2.7,2.5-4.4c0.6-1.7,0.9-3.7,0.9-5.9c0-2.2-0.3-4.1-0.9-5.9
			C287.3,417.8,286.5,416.3,285.4,415.1z"/>
		<path class="st1" d="M663.1,200.2v193c0,34.7-28.2,62.9-62.9,62.9h-20c-26.8,0-36.8-16.7-47.4-34.3
			c-11.2-18.6-22.7-37.8-53.6-37.8H191c-30.9,0-42.4,19.2-53.6,37.8c-10.6,17.6-20.6,34.3-47.4,34.3h-20
			c-34.7,0-62.9-28.2-62.9-62.9V108.1c0-34.7,28.2-62.9,62.9-62.9h454.1V38H70.1C31.4,38,0,69.5,0,108.1v285.1
			c0,38.6,31.4,70.1,70.1,70.1h20h490.1h20c38.6,0,70.1-31.4,70.1-70.1v-193H663.1z M209.6,438.3c-0.6,1.4-1.6,2.7-2.8,3.7
			c-1.2,1-2.7,1.8-4.5,2.4c-1.8,0.6-3.9,0.9-6.2,0.9h-15v-39.8h13.7c2.6,0,4.8,0.2,6.7,0.7c1.8,0.5,3.4,1.2,4.6,2.1
			c1.2,0.9,2,2,2.6,3.3c0.6,1.3,0.8,2.8,0.8,4.4c0,0.9-0.1,1.8-0.4,2.7c-0.3,0.9-0.7,1.7-1.3,2.4c-0.6,0.7-1.3,1.4-2.2,2
			c-0.9,0.6-1.9,1.1-3.2,1.5c5.5,1.2,8.2,4.2,8.2,8.9C210.5,435.3,210.2,436.9,209.6,438.3z M227,453.1c-0.2,0.5-0.5,0.8-0.8,1.1
			c-0.3,0.2-0.8,0.4-1.5,0.4h-5.1l5.3-11.3l-11.4-26.1h6c0.5,0,0.9,0.1,1.3,0.4c0.3,0.3,0.5,0.5,0.7,0.9l6,14.6
			c0.2,0.5,0.4,1,0.5,1.5c0.1,0.5,0.3,1,0.4,1.5c0.2-0.5,0.3-1,0.5-1.5c0.2-0.5,0.4-1,0.6-1.5l5.7-14.6c0.1-0.4,0.4-0.7,0.7-0.9
			c0.3-0.2,0.7-0.4,1.1-0.4h5.4L227,453.1z M294.9,433.4c-1,2.4-2.3,4.5-4.1,6.3c-1.8,1.8-3.9,3.1-6.3,4.1c-2.5,1-5.2,1.5-8.3,1.5
			H261v-39.8h15.2c3,0,5.8,0.5,8.3,1.5c2.5,1,4.6,2.3,6.3,4.1c1.8,1.8,3.1,3.8,4.1,6.3c1,2.4,1.5,5.1,1.5,8
			C296.4,428.3,295.9,431,294.9,433.4z M319,422.5c-0.1,0.3-0.2,0.6-0.4,0.7c-0.2,0.1-0.4,0.2-0.7,0.2c-0.3,0-0.7,0-1.2-0.1
			c-0.5-0.1-1.1-0.1-1.6-0.1c-0.7,0-1.4,0.1-2,0.3c-0.6,0.2-1.1,0.5-1.6,0.9c-0.5,0.4-0.9,0.9-1.2,1.5c-0.4,0.6-0.7,1.3-1,2v17.4
			h-6.8v-28.2h4c0.7,0,1.2,0.1,1.4,0.4c0.3,0.3,0.5,0.7,0.6,1.3l0.4,3.2c0.9-1.7,1.9-3,3.1-4c1.2-1,2.6-1.4,4.3-1.4
			c1.3,0,2.3,0.3,3.1,0.9L319,422.5z M328.9,443.2c-0.2,0.5-0.5,0.9-0.9,1.3c-0.4,0.4-0.8,0.7-1.3,0.9c-0.5,0.2-1.1,0.3-1.6,0.3
			c-0.6,0-1.1-0.1-1.6-0.3c-0.5-0.2-1-0.5-1.3-0.9c-0.4-0.4-0.7-0.8-0.9-1.3c-0.2-0.5-0.3-1-0.3-1.6c0-0.6,0.1-1.1,0.3-1.6
			c0.2-0.5,0.5-1,0.9-1.3c0.4-0.4,0.8-0.7,1.3-0.9c0.5-0.2,1.1-0.3,1.6-0.3c0.6,0,1.1,0.1,1.6,0.3c0.5,0.2,0.9,0.5,1.3,0.9
			c0.4,0.4,0.7,0.8,0.9,1.3c0.2,0.5,0.3,1.1,0.3,1.6C329.2,442.1,329.1,442.7,328.9,443.2z M364.4,411.4h-17.7v11.8h14.9v5.9h-14.9
			v16.2h-7.4v-39.8h25.1V411.4z M395.9,445.3c-1.3,0-2.2-0.5-2.8-1.5l-8.4-12.7c-0.3-0.5-0.7-0.8-1-1c-0.4-0.2-0.9-0.3-1.7-0.3H379
			v15.5h-7.4v-39.8h12.1c2.7,0,5,0.3,6.9,0.8c1.9,0.6,3.5,1.3,4.8,2.4c1.2,1,2.1,2.2,2.7,3.6c0.6,1.4,0.9,2.9,0.9,4.6
			c0,1.3-0.2,2.6-0.6,3.8c-0.4,1.2-1,2.3-1.7,3.2c-0.7,1-1.7,1.8-2.7,2.6c-1.1,0.7-2.3,1.3-3.7,1.7c0.5,0.3,0.9,0.6,1.3,1
			c0.4,0.4,0.8,0.8,1.1,1.3l10,14.7H395.9z M433.1,411.4h-17.7v11h13.9v5.7h-13.9v11.3h17.7v5.9h-25.1v-39.8h25.1V411.4z
			 M448.2,445.3h-7.4v-39.8h7.4V445.3z M493.6,419.9c-0.4,1.3-0.9,2.5-1.5,3.7c-0.7,1.1-1.5,2.2-2.4,3.1c-0.9,0.9-2,1.7-3.1,2.4
			c-1.1,0.7-2.3,1.2-3.7,1.5c-1.3,0.4-2.7,0.5-4.1,0.5c-1.4,0-2.7-0.2-4.1-0.5c-1.3-0.4-2.5-0.9-3.7-1.5c-1.1-0.7-2.2-1.5-3.1-2.4
			c-0.9-0.9-1.7-2-2.4-3.1c-0.7-1.1-1.2-2.4-1.5-3.7c-0.4-1.3-0.5-2.7-0.5-4.1c0-1.4,0.2-2.8,0.5-4.1c0.4-1.3,0.9-2.5,1.5-3.7
			c0.7-1.1,1.5-2.2,2.4-3.1c0.9-0.9,2-1.7,3.1-2.4c1.1-0.7,2.3-1.2,3.7-1.5c1.3-0.4,2.7-0.6,4.1-0.6c1.4,0,2.8,0.2,4.1,0.6
			c1.3,0.4,2.5,0.9,3.7,1.5c1.1,0.7,2.2,1.5,3.1,2.4c0.9,0.9,1.7,2,2.4,3.1c0.7,1.1,1.2,2.4,1.5,3.7c0.4,1.3,0.5,2.6,0.5,4.1
			C494.2,417.3,494,418.6,493.6,419.9z"/>
		<path class="st1" d="M201.5,429.3c-0.6-0.5-1.4-0.9-2.3-1.1c-0.9-0.3-2-0.4-3.4-0.4h-7.5v11.7h7.5c1.4,0,2.5-0.2,3.5-0.5
			c0.9-0.3,1.7-0.8,2.2-1.3c0.6-0.6,1-1.2,1.2-1.9c0.2-0.7,0.4-1.5,0.4-2.3c0-0.9-0.1-1.6-0.4-2.3
			C202.5,430.4,202.1,429.8,201.5,429.3z"/>
		<path class="st1" d="M200.1,421.4c1.3-0.9,1.9-2.4,1.9-4.4c0-2.1-0.6-3.6-1.8-4.4c-1.2-0.9-3-1.3-5.5-1.3h-6.3v11.5h5.9
			C196.9,422.7,198.8,422.3,200.1,421.4z"/>
		<path class="st1" d="M490,409.2c-0.6-1-1.2-1.9-2-2.7c-0.8-0.8-1.6-1.5-2.6-2.1c-1-0.6-2-1-3.1-1.3c-1.1-0.3-2.3-0.5-3.5-0.5
			c-1.8,0-3.5,0.3-5,1c-1.6,0.7-2.9,1.6-4.1,2.8c-1.1,1.2-2.1,2.6-2.7,4.2c-0.7,1.6-1,3.3-1,5.2c0,1.8,0.3,3.5,1,5.1
			c0.7,1.6,1.6,3,2.7,4.1c1.2,1.2,2.5,2.1,4.1,2.8c1.6,0.7,3.2,1,5,1c1.2,0,2.3-0.2,3.5-0.5c1.1-0.3,2.1-0.7,3.1-1.3
			c1-0.6,1.8-1.2,2.6-2c0.8-0.8,1.5-1.7,2-2.6c0.5-1,1-2,1.3-3.1c0.3-1.1,0.4-2.3,0.4-3.5c0-1.2-0.1-2.4-0.4-3.5
			C491,411.2,490.6,410.2,490,409.2z M483.6,425.2c-0.5,0-0.9-0.2-1.2-0.6l-3.6-5.8c-0.1-0.2-0.3-0.3-0.4-0.4
			c-0.2-0.1-0.4-0.2-0.8-0.2h-1.4v7h-3.9v-18.6h6.3c2.5,0,4.3,0.4,5.5,1.3c1.2,0.9,1.8,2.2,1.8,3.9c0,1.3-0.3,2.4-1,3.3
			c-0.7,0.9-1.7,1.6-3.1,2c0.3,0.2,0.5,0.4,0.7,0.6c0.2,0.2,0.4,0.5,0.5,0.8l4.3,6.6H483.6z"/>
	</g>
	<g>
		<g>
			<path class="st2" d="M524.2,0v200.2h200.2V0H524.2z"/>
		</g>
		<g>
			<path class="st0" d="M684.4,120.1h-40.1v40h-40v-40h-40v-40h40V40h40v40h40.1V120.1z"/>
		</g>
	</g>
</g>
</svg>
