<svg xmlns="http://www.w3.org/2000/svg" viewBox="0 0 408.4 408.4">
  <circle cx="204.2" cy="204.2" r="194.2" fill="none" stroke="#294362" stroke-width="20" stroke-miterlimit="10"/>
  <path d="M273 171.4c-2-7.5-8-13.5-15.5-15.5-10.7-2.9-48.9-3.3-53.3-3.3h-.1c-4.3 0-42.5.4-53.2 3.2h-.1c-7.4 2-13.5 8.2-15.5 15.6-2.8 10.7-2.6 31.3-2.6 32.9 0 1.6-.2 22.1 2.6 32.7 2 7.6 8 13.5 15.5 15.5 10.8 2.9 48.9 3.3 53.2 3.3 4.3 0 42.5-.4 53.2-3.2 7.6-2 13.5-8 15.6-15.5 2.8-10.7 2.6-30.9 2.6-32.6.3-1.8.6-22.4-2.4-33.1zm-79.8 54V183l34.2 21.2-34.2 21.2z" fill="#294362"/>
</svg>