<svg xmlns="http://www.w3.org/2000/svg" xmlns:xlink="http://www.w3.org/1999/xlink" viewBox="0 0 50.27 56.99"><defs><style>.cls-1{isolation:isolate;}.cls-13,.cls-2{fill:#fff;}.cls-3{fill:url(#radial-gradient);}.cls-4{opacity:0.33;mix-blend-mode:multiply;}.cls-5{fill:#4fc6e7;}.cls-6{fill:#2a89bb;}.cls-7{fill:#007dc2;}.cls-8{fill:#004c77;}.cls-9{opacity:0.58;}.cls-10{fill:#faaf40;}.cls-11{mix-blend-mode:screen;}.cls-12{fill:#f6e96e;}.cls-13{opacity:0.53;}.cls-14{fill:#114763;}.cls-15{fill:#706f73;}.cls-16{fill:#ae402f;}.cls-17{fill:#981b2d;}.cls-18{fill:#130c0e;}.cls-19{fill:#272930;}.cls-20{opacity:0.41;}.cls-21{fill:#a51e33;}.cls-22{fill:#231f20;}</style><radialGradient id="radial-gradient" cx="30.14" cy="-3.43" r="49.99" gradientUnits="userSpaceOnUse"><stop offset="0.18" stop-color="#faaf40"/><stop offset="0.31" stop-color="#f9a73e"/><stop offset="0.52" stop-color="#f69139"/><stop offset="0.78" stop-color="#f26d31"/><stop offset="0.81" stop-color="#f16930"/><stop offset="0.99" stop-color="#faaf40"/></radialGradient></defs><title>fish</title><g class="cls-1"><g id="Ñëîé_2" data-name="Ñëîé 2"><path class="cls-2" d="M6.92,33.75c-.33-.26.63-5.81.24-6.9.22.63-1.81,2.14-2.27,2.31-1.1.39-2.37-.08-3.55.45a3.68,3.68,0,0,1,1,1c-1.92.34-1.95,1.7,0,2.13C3.83,33,5.66,32.75,6.92,33.75Z"/><path class="cls-3" d="M18.34,11.08A27.48,27.48,0,0,1,27,4c1.93-.9,3.61-2,5.48-3,0,0,0,0,0,0a11.35,11.35,0,0,0-3,6.62,11,11,0,0,0,1.15,4.87c.6,1.37,1.85,2,2.86,3.12a17.7,17.7,0,0,1,4.07,9.92C38,30,37,34.1,36.39,38.47A19,19,0,0,0,38,49c-1.7-.09-2.9-1.36-4.79-1.49s-5.37.36-7.19.24c-6.7-.44-12.07,0-15.25-7.43-1.09-2.53-2.83-8-6.32-7.77,2.21-.35,2.19-2.7,2.6-4.41A24.16,24.16,0,0,1,9.84,21.3c1.48-2.4,4.09-3.14,5.47-5.51a29.42,29.42,0,0,1,2.76-4.39Z"/><g class="cls-4"><path class="cls-5" d="M4.31,32.82A2.41,2.41,0,0,0,6,32.08c1-1.35.83-3.52,1.18-5.08-.35,1.49-1.13,4.15-3,4.25-.36,0-4.61-1.29-3,.69A3.91,3.91,0,0,0,4.31,32.82Z"/></g><path class="cls-5" d="M19,46.68c-1.86-.52-5.71-1.72-6.26-3.13,1.09,2.82,2,6.19,3.55,8.78C17.68,54.74,20,57.08,23,56.85c-.89,0-3.26-2.65-3.33-3.46C19.47,51,22,52.07,23.42,52c-1.41-1.45-3.85-2.94-3.87-5.15Z"/><path class="cls-6" d="M31.34,3.29C30,4.77,28,6.2,27.23,8.07c-1.93,4.45.64,8.62,2,12.83A28.64,28.64,0,0,1,30.6,31.09c-.2,3.44-1.53,6.22-.92,9.69.76,4.4,1.66,6.73,6.29,7.59-.3-2.86-1.77-5.5-2-8.43-.33-5,2.55-9.76,1.17-14.64-.89-3.17-3.34-5.64-4.53-8.68-.6-1.54-.33-3.27-.61-4.9a12.61,12.61,0,0,1,.91-8.16Z"/><path class="cls-6" d="M12.29,19.13c1.35-2.37,4.32-3.75,6.43-5.33-.59,2.16-1.07,3.85-.48,6.1s1.2,4.45,1.82,6.7c1.28,4.59-1,9.16-2.43,13.53-.88,2.69.08,4.55,1.08,7-4.12-.74-5.88-4-7.93-7.17A14.86,14.86,0,0,1,9,37.35c2.68-1.51,1.44-5.94,1.69-8.25.17-1.6,1.7-1.41,2.74-2.52a4.54,4.54,0,0,0,.94-4,7.39,7.39,0,0,0-2.08-3.93Z"/><path class="cls-7" d="M29.24,37.06c-.08,3.54.7,10,4.69,11.2a9.13,9.13,0,0,0,3.42.56c-.62.08-2.29-3.82-2.49-4.37-.48-1.32-1.22-3.14-.63-4.52-1.5,0-4.4-1.42-4.9-2.87Z"/><path class="cls-7" d="M11.13,29.12c-.27,2.58-.7,5-1.12,7.55-.46,2.69,2.14,5.94,4.05,7.62.91.8,2.41,2,3.66,2,0,0,.07-5,.11-5.43a12.46,12.46,0,0,1,1.75-5.08c-3.77.36-6.52-3.8-8.72-6.16Z"/><path class="cls-8" d="M10.93,31.66c-.52,1.38-.33,2.82-.7,4.21-.3,1.1-.76,1.73-.28,2.9a15.09,15.09,0,0,0,5.18,6.33,10.88,10.88,0,0,0,3.2,1,7.56,7.56,0,0,1-.72-5.69c-3.3.69-5.4-3.64-6.35-6.1-.23-.61-.42-1.24-.6-1.87Z"/><path class="cls-8" d="M31.94,47.51s2.05,0,2.33.05a24.75,24.75,0,0,1,2.37.85c-.42-.14-1.66-3-1.61-3.5-.47.28-1.07,0-1.55-.1-1.66-.48-3.53-1.71-4-3.47A10.06,10.06,0,0,0,31.94,47.51Z"/><path class="cls-8" d="M37.18,27.51c.81-.68,2-.78,2.91-1.33-1.15,1.79-.65,6.75.22,8.57a4.15,4.15,0,0,0-3.39-1.81c.79-1.74.53-3.89.53-5.78Z"/><path class="cls-5" d="M46.07,20a8.69,8.69,0,0,1,3.5-1.23,35.22,35.22,0,0,0-4,8.15c-1.1,2.91-.58,6.56.1,9.55.29,1.28.87,3,.5,4.26-1.09-1-1.71-2.48-2.7-3.6s-2.34-2-3-3.32a14,14,0,0,1-.66-5.64C40.06,25.35,43.75,21.46,46.07,20Z"/><g class="cls-9"><path class="cls-6" d="M13.09,44.64a27.68,27.68,0,0,0,2.73,5c.75,1.22,2.39,3.1,3.87,3.38-1.25-1.7-3-3.59-3.37-5.76C17.93,49,18.85,51.49,21.45,52c-1.26-1.46-2.49-2.8-2.39-4.81-1.56-.11-5.47-2-6.4-3.23a2.19,2.19,0,0,0,.88,1.69Z"/></g><g class="cls-9"><path class="cls-6" d="M40.75,25.55c-1.29,2-1.73,7.39,0,9.28A8.2,8.2,0,0,0,43,36.05c-.82-.7-2.09-1.75-2.18-2.9,1.57-.3,2.35,1.33,3.81,1.31-.67-1.45-4.08-2.64-3.81-4.2s3.23-1.71,4.07-2.93c-1.05,0-3.57,1.65-3.25-.16.28-1.63,3.11-3.27,4-4.72-1.51.31-3,3.7-4.72,3.1Z"/></g><path class="cls-10" d="M25.91,12.92c-1.23.63-6,.94-6.43,1a16.9,16.9,0,0,0-4.24,2.19c.64-.37,1.43-2.79,1.93-3.5a23.21,23.21,0,0,1,2.77-3.25A56,56,0,0,1,25.73,4.9a37,37,0,0,1,4.8-3.08A8.19,8.19,0,0,1,33,.67c-2.87,3.5-7.56,6.75-6.78,11.93C26.21,12.71,26.11,12.82,25.91,12.92Z"/><g class="cls-11"><path class="cls-12" d="M24.41,11.79c.46-1.32,1.73-2.58,2.54-3.7,1-1.32,2.08-2.51,3.06-3.8.08-.11.23-.33.13-.48l0-.05c-.17-.26-.53-.18-.78-.12-1.55.39-2.67,2.58-3.5,3.8A10.9,10.9,0,0,0,23.66,12c0,.31.69,0,.75-.19Z"/></g><g class="cls-11"><path class="cls-12" d="M21.74,13A51.19,51.19,0,0,1,24.93,8c1-1.32,2.76-2.48,3.49-4,.15-.31-.44-.12-.53-.07a17.22,17.22,0,0,0-4.16,4.14c-1.19,1.46-2.62,3.26-3,5.14-.09.39.94-.13,1-.3Z"/></g><g class="cls-11"><path class="cls-12" d="M18,14.21a49.22,49.22,0,0,0,3.56-4.3c1.28-1.48,2.9-2.72,4.1-4.25.62-.79-.46-.77-.94-.46a22.48,22.48,0,0,0-4.43,4.34c-1.09,1.25-2.76,2.91-3.15,4.57-.12.52.68.27.86.1Z"/></g><path class="cls-13" d="M32.82,23.18a18.76,18.76,0,0,0-6.9-3.57c-3.19-.77-7.28-.39-10.49,0,1-3.3,6.22-4.82,9.28-5.48,4.55-1,7.13-.05,10,3.55,1.19,1.48,2.42,3.61,1.72,5.59C35.52,25.85,34.87,24.71,32.82,23.18Z"/><path class="cls-14" d="M37.39,27.31a7.47,7.47,0,0,0,3.94-2.11,50.16,50.16,0,0,0,3.46-4.09c1.13-1.28,4.94-2.92,3.11,0-.58.94-.94,1.66-1.46,2.64-2.56,4.81-2,8.65-.55,13.6.28,1,1.23,3.91-.54,1.26a14.33,14.33,0,0,0-1.92-2.27,26.73,26.73,0,0,0-5.42-4c-.23-.11-.91.38-.76.45a21.17,21.17,0,0,1,8.8,8.61c.11.18.8-.13.82-.31.5-3.76-1.47-7-1.61-10.72-.17-4.22,2.85-8.56,5-11.91,0-.07,0-.14-.07-.14-6.22.11-7,7.43-12.49,8.65-.1,0-.59.36-.3.31Z"/><path class="cls-14" d="M11.81,42.57c3,4.6,4,14.86,11.4,14.41.11,0,.62-.32.42-.33-1.34-.07-2.44-1.88-3.11-2.88-1.39-2.08,1.23-1.8,2.65-1.51.08,0,.64-.17.54-.28-1.44-1.59-3.2-2.91-4.28-4.8-.06-.12-.6.15-.54.28.82,2,2.86,3.24,4.26,4.78l.54-.27c-3.57-.74-5.52,0-2.67,3.45A5.28,5.28,0,0,0,22.85,57a12.35,12.35,0,0,1-5.64-4.19C15,49.6,14.32,45.62,12.05,42.43c0,0-.27.09-.24.14Z"/><path class="cls-14" d="M40.05,25.89c-1.08,2.37-1.73,7.4.91,9,.19.12.67-.11.48-.34-2.16-2.71-1.5-5.57-.85-8.71.06-.31-.46-.14-.54,0Z"/><path class="cls-14" d="M41.31,26.85a22,22,0,0,0,2.95-2.59,13,13,0,0,0,2.22-2.69c0-.06-.25,0-.28.07-.78.74-1.41,1.65-2.12,2.46a20.94,20.94,0,0,1-2.91,2.74c-.12.1.09,0,.14,0Z"/><path class="cls-14" d="M41.44,29.55c1.05-.63,2.24-1.07,3.26-1.76.14-.09,0-.12-.09-.09a16.65,16.65,0,0,0-3.29,1.79c-.19.12,0,.12.12.06Z"/><path class="cls-14" d="M40.55,31.62c1.89.78,3.05,2.29,4.55,3.61.06.05.38-.08.33-.16-.94-1.69-2.58-3.39-4.59-3.64-.07,0-.39.15-.29.19Z"/><path class="cls-14" d="M14.74,45.38c.53,2.51,2.23,5.68,4.5,7,.09.05.47-.1.38-.19a19.61,19.61,0,0,1-2.89-3.08,26.89,26.89,0,0,1-1.89-3.8s-.11,0-.1,0Z"/><path class="cls-14" d="M16.89,46.76a11.38,11.38,0,0,0,1.56,2.58,4.43,4.43,0,0,0,2.16,1.81c.07,0,.25-.07.18-.15a8.39,8.39,0,0,0-.93-.74,8.27,8.27,0,0,1-1.05-1.16c-.62-.78-1.06-1.68-1.66-2.46-.07-.09-.31,0-.26.12Z"/><path class="cls-14" d="M16.07,51.66A9.84,9.84,0,0,0,17.58,53a4,4,0,0,0,1.92,1c.05,0,.35-.09.26-.16a5,5,0,0,0-.93-.46,5.94,5.94,0,0,1-.85-.56,20.18,20.18,0,0,0-1.63-1.3c-.05,0-.33.07-.28.13Z"/><path class="cls-14" d="M35.46,27.39c-.17,7.5-4.23,14.07.78,20.82.08.11.43-.05.37-.17-1.72-3.44-2.86-6-2.41-10,.41-3.61,1.59-7,1.32-10.68,0,0-.06,0-.06,0Z"/><path class="cls-14" d="M31.51,2.66c-6,5.42-6.32,10.49-2.84,17.6,4.48,9.15-3.35,18.84,3.26,27.13.07.09.45-.11.43-.14C27,40.31,31.64,32.86,30.84,25c-.42-4-3.19-7.49-4.06-11.46-1-4.58,2-8.15,5.19-11,.08-.07-.37,0-.46.09Z"/><path class="cls-15" d="M4.55,31c-1.11-.16-4.29-1.53-4.54.5-.13,1.1.94,1.56,1.85,1.62,1.47.1,2.81-.18,4.18.48.19.1.7-.12.58-.38-.63-1.4-3.51-.71-4.68-.9a1.24,1.24,0,0,1-1-.91c-.17-.58.91-.54,1.22-.53a20.88,20.88,0,0,1,2.24.35c.11,0,.34-.21.19-.23Z"/><path class="cls-16" d="M5.46,33.15c2.12.67,3.17,3.93,4,5.71a15.93,15.93,0,0,0,4.36,6c6.89,5.76,16.15.92,23.57,4.4.21.1,1.05-.09,1-.42A1.13,1.13,0,0,0,38,48c-.17-.23-1.08.15-1,.34a1.5,1.5,0,0,1,.35.94l1-.42c-6.63-3.22-14.38-.12-21.31-3-3.5-1.45-5.28-4.19-6.83-7.4-.94-1.93-2-5.15-4.4-5.56-.11,0-.47.26-.36.3Z"/><path class="cls-17" d="M38.46,48.55c-4.33-8.17.64-17.16-.67-25.85-.66-4.36-4.12-6.59-6.85-9.6-3.14-3.47.55-10.29,3.11-13,.14-.15-.25,0-.29,0C25.81,4,18.87,8.3,14.8,16.71c0,0,.59-.16.69-.35C19.34,8.81,25.38,4.4,32.72.78c-1.43.71-2.41,4.35-2.87,5.71-.85,2.51-1.23,4.69.32,7,1.38,2,3.7,3.45,5.22,5.43C37.52,21.69,37.5,25.73,37.3,29c-.39,6.78-3.16,13.42.57,19.72.06.11.62-.15.59-.21Z"/><path class="cls-15" d="M20.73,13.17c-3.29.39-5.73,3-8.08,5.12-1.43,1.28-3.38,2.63-4.35,4.31a11.31,11.31,0,0,0-1.17,2.89C6.33,28.34,4.6,29,1.9,29c-.16,0-.62.18-.61.39C1.37,30.89,2.54,31,3.87,31c.22,0,.87-.48.42-.48l-1.85-1a10,10,0,0,0,2-.08,7.66,7.66,0,0,0,1.09-.34,3.65,3.65,0,0,0,1.73-1.74,11.22,11.22,0,0,0,.69-2.1c.7-2.49,2-3.86,3.84-5.54,2.65-2.41,5.24-5.31,8.84-6.2.18,0,.5-.35.13-.3Z"/><path class="cls-17" d="M20.84,13.14c-2.79,0-5.13,2.32-7.06,4.08-2.15,2-4.72,3.64-4.55,6.9,0,.29.95-.09.95-.35,0-2.69,1.49-4.09,3.44-5.76,2.19-1.89,4-3.8,7-4.53.12,0,.62-.35.25-.34Z"/><path class="cls-14" d="M30,13.07c0,4.38,3.26,8.18,4.9,12.07,0,0,.15,0,.14-.07-.89-4.37-4.48-7.45-5-12l0,0Z"/><path class="cls-14" d="M18.5,14.06c-.6,1.78-1.52,4.21-.95,6.12C18.66,24,20.1,26.24,20.2,30.43c.13,5.47-4.9,10.34-2.28,15.5,0,.07.37-.09.34-.17-1.38-3.47-.17-6,1.24-9.12,1.12-2.52,1.15-5.37,1.06-8.06A12.72,12.72,0,0,0,19,22.69c-1.64-3-1.2-5.7-.22-8.76,0,0-.22.06-.25.13Z"/><path class="cls-14" d="M10.78,29a29.56,29.56,0,0,1-1.1,7.88c0,.12.18.06.22,0a14.69,14.69,0,0,0,1-7.94c0-.09-.16,0-.16.07Z"/><path class="cls-17" d="M19.58,12.79a37.59,37.59,0,0,1,7.74-8.66c.16-.13-.06-.2-.18-.14-3.33,1.85-6,5.54-7.86,8.8-.11.19.23.12.3,0Z"/><path class="cls-17" d="M22.34,12.56C24.6,7.88,28.59,4.32,32.69,1.28c.21-.16-.07-.13-.18-.07A25.86,25.86,0,0,0,21.87,12.76c0,.05.4-.07.47-.2Z"/><path class="cls-17" d="M24.37,12.56a13.17,13.17,0,0,1,1.09-2.27c.42-.69,1-1.26,1.45-1.95,0-.08-.18,0-.2,0a9.12,9.12,0,0,0-2.85,4.39c0,.08.46-.06.51-.2Z"/><path class="cls-2" d="M10.53,18.88C8,19.68,7.09,23,7.27,25.42c.13,1.75,1.45,2.42,3.07,2.68,4,.63,4.6-5,3.44-7.63-.88-2-2.46-2.21-4.19-1Z"/><circle class="cls-18" cx="12.36" cy="25.6" r="1.14"/><path class="cls-2" d="M11.54,25.1a.53.53,0,1,0,.53-.52A.52.52,0,0,0,11.54,25.1Z"/><g class="cls-4"><path class="cls-5" d="M9.08,19.66c-1,1.56-1.67,3.82-.58,5.52,1.24,1.95,3.74,1.25,4.82-.51a4.57,4.57,0,0,0,.5-2.86c.59,2.54.57,5.69-2.52,6.49C8.55,29,6.64,26.62,7,24a8.84,8.84,0,0,1,1.64-3.64Z"/></g><path class="cls-19" d="M13.68,20c-.46-1.35-2.95-2-4.08-1.13a7.93,7.93,0,0,0-2.79,6.77C7.3,28.22,9.8,29,12,28.1c2.67-1,3.43-3.93,2.35-6.42,0-.08-.33.06-.33.14.19,2.23.28,5.23-2.47,6A3.24,3.24,0,0,1,7.7,25.2c-.41-1.73.38-3.66,1.23-5.13s1.62-1.23,2.82-.9a2.43,2.43,0,0,1,1.65,1c0,.07.31-.1.28-.18Z"/><g class="cls-20"><path class="cls-21" d="M17.84,40.77a14.47,14.47,0,0,0,3.7,1.52C26,43.42,33,43.42,36.07,39.3c0,1.08.07,8.63,1.14,8.94-5-1.19-9.91,0-14.92-.73a15,15,0,0,1-11.89-9C9.25,36,8.56,33.19,5.93,31.85,10.46,34.15,13.56,38.31,17.84,40.77Z"/></g><path class="cls-22" d="M9.93,17.4a19.6,19.6,0,0,1,2.51.26,3,3,0,0,1,1.45.75c.34.34.36.64.83.86.23.12.57-.11.69-.3.7-1.14-.64-2-1.6-2.32a5.38,5.38,0,0,0-3.73,0c-.31.12-.71.69-.15.74Z"/><g class="cls-11"><path class="cls-12" d="M16.56,19a22.39,22.39,0,0,1,15.72.65c.31.12,2.19-.31,1.93-.75-1.51-2.5-6.65-2.51-9.15-2.46a18.41,18.41,0,0,0-8.53,2.08c-.39.21-.61.67,0,.48Z"/></g></g></g></svg>